<?xml version="1.0" encoding="utf-8"?>
<svg version="1.1"
   xmlns="http://www.w3.org/2000/svg" xmlns:xlink="http://www.w3.org/1999/xlink" xmlns:a="http://ns.adobe.com/AdobeSVGViewerExtensions/3.0/"
   x="0px" y="0px" width="73px" height="57px" viewBox="0 0 73 57" overflow="visible" enable-background="new 0 0 73 57"
   xml:space="preserve">
<defs>
</defs>
<path fill-rule="evenodd" clip-rule="evenodd" d="M19.059,0C41.004,1.169,56.027,13.192,72,21.112
  C62.598,30.261,38.759,51.897,27.529,57c0-2.111,0-4.222,0-6.333c7.763-7.742,15.53-15.482,23.294-23.221c0-0.706,0-1.408,0-2.111
  c-5.647,0-11.294,0-16.941,0C27.571,29.471,9.998,27.717,0,27.445c0-1.408,0-2.817,0-4.222c14.285,0.418,38.164,0.342,46.588-6.334
  C36.904,14.8,22.467,8.778,19.059,0z"/>
<path fill-rule="evenodd" clip-rule="evenodd" d="M19.637,0C39.611,7.785,53.676,19.24,72,28.259
  c-0.729,0.726-1.453,1.453-2.182,2.173C62.974,40.629,48.647,46.917,34.909,50c0-0.724,0-1.448,0-2.175c0.729,0,1.452,0,2.182,0
  c6.23-8.443,19.196-10.217,24.001-19.566c-3.306-1.162-3.694-1.467-8.729-2.172C44.867,31.448,10.004,37.105,0,30.433
  c16.057-0.066,30.543-3.549,43.638-6.517c0-0.728,0-1.453,0-2.175C32.372,16.91,23.09,12.952,19.637,0z"/>
<path fill-rule="evenodd" clip-rule="evenodd" d="M40.224,0c5.22,0.551,11.279,0.681,16.231,1.739
  c5.384,1.15,10.155-1.24,14.819-0.348c0.117,0.348,0.235,0.696,0.353,1.044c0.437,0.639,0.384,1.983,0.353,3.131
  c-1.955,2.03-3.528,4.399-5.646,6.261c-1.83,1.609-3.926,3.189-5.292,5.218c-1.318,1.956-1.181,5.656-3.529,6.608
  c-0.457,0.306-0.87,0.311-1.764,0.348c-0.381-0.611-0.888-1.258-1.411-1.739c-0.216-3.991,0.772-6.261,2.47-9.043
  c-0.118,0-0.235,0-0.353,0c-7.24,5.816-28.722,7.601-41.283,4.87C9.955,16.953,0.39,18.979,0,13.217
  c0.545-0.394,0.297-0.377,1.059-0.696c1.279-0.929,3.948-0.82,5.998-0.348c5.788,1.333,13.153,0.771,19.406,2.087
  c1.461,0.307,3.676-0.155,4.587-0.348c4.419-0.936,8.19,0.083,11.997-1.043c4.259-1.26,8.156-3.764,12.35-4.87
  c0-0.116,0-0.232,0-0.348C49.57,7.801,37.671,7.751,37.048,2.783C38.41,1.211,38.541,1.244,40.224,0z"/>
<path fill-rule="evenodd" clip-rule="evenodd" d="M15.115,0c0.72,0,1.44,0,2.159,0c0.103,0.333,0.206,0.667,0.308,1
  c0.409,0.611,0.398,1.723,0,2.333C16.278,7.49,10.549,11.048,8.329,15c0.103,0,0.206,0,0.309,0c2.328-1.917,6.404-1.732,9.563-2.667
  C28.853,9.18,47.029,8.766,57.994,12c4.802,1.417,8.626,1.751,12.031,4.333c0.752,0.569,2.445,1.821,1.851,2.666
  c-0.635,0.792-1.657,0.724-3.085,0.667c-2.49-2.088-6.639-1.715-10.18-2.666c-13.382-3.594-32.511-1.894-45.038,1
  c0,0.111,0,0.223,0,0.333c3.081,0.008,8.553,1.307,9.563,3.667c0.232,0.358,0.186,0.315,0.309,1.001
  c-0.45,0.284-0.885,0.603-1.234,1c-3.644,0.04-6.866-0.868-9.871-1.667c-4.005-1.065-7.995-1.12-11.722-2
  c-0.445-0.89-0.615-1.407-0.617-3c3.294-3.331,6.507-6.736,9.254-10.666C10.958,4.229,13.743,2.855,15.115,0z"/>
<path fill-rule="evenodd" clip-rule="evenodd" d="M58.542,0c2.618,0.76,3.195,2.156,5.383,3.34
  c0.071,8.484,6.538,10.366,8.075,17.37c-1.079,0.372-1.618,0.534-3.364,0.668c-2.749-4.327-6.055-8.918-8.748-13.362
  c-0.224,0-0.449,0-0.673,0C55.09,22.947,38.73,31.774,22.878,35.408c-6.717,1.54-15.644-0.378-21.533-0.668
  C0.699,33.56,0.5,33.617,0,32.068c5.379-1.798,14.925-0.723,21.533-0.668c4.037-1.114,8.075-2.228,12.112-3.34
  c8.163-3.436,15.656-10.262,19.514-18.039c-0.448,0-0.897,0-1.346,0c-1.954,1.956-9.416,5.347-12.112,4.009
  c-2.18-0.851-1.771-0.588-2.019-3.34C45.101,6.906,53.229,5.745,58.542,0z"/>
<path fill-rule="evenodd" clip-rule="evenodd" d="M20.764,0.029C36.942-0.288,47.077,1.979,57.24,7.096
  c3.171,1.596,6.139,4.248,9.54,5.436c0-2.718,0-5.436,0-8.154c-0.492-0.704-0.502-1.341-0.561-2.718
  c0.968-0.325,1.769-0.484,3.367-0.544c0.374,0.544,0.749,1.087,1.123,1.631c2.19,2.558,1.318,11.365-0.561,13.59
  c-4,3.763-18.745,0.135-24.131-1.087c-0.187-0.906-0.374-1.812-0.561-2.718c0.374-0.181,0.748-0.362,1.122-0.544
  c2.591-1.858,6.305,0.464,8.979-1.087c-5.983-1.88-11.638-5.515-18.519-7.067C24.205,0.939,9.662,6.95,0.561,8.183
  C0.374,7.639,0.187,7.096,0,6.552C3.182,4.707,7.175,2.829,11.224,1.66C14.368,0.752,18.339,1.602,20.764,0.029z"/>
</svg>
