<?xml version="1.0" encoding="utf-8"?>
<svg version="1.1"
   xmlns="http://www.w3.org/2000/svg"  x="0px" y="0px" width="1em" height="1em" 
   viewBox="0 0 16 16" overflow="visible" enable-background="new 0 0 16 16" xml:space="preserve">
   <style>
    path {fill: #FBFAF8}
   </style>
<path fill-rule="evenodd" clip-rule="evenodd" d="M5.376,1.452c0.034-0.209,0.022-0.194,0.092-0.304
  c1.218-1.412,4.166-1.492,5.741-0.404c0.621,0.429,1.116,1.157,1.732,1.616c0-0.402,0-0.808,0-1.212
  c0.061-0.067,0.121-0.134,0.182-0.202c0.062,0,0.122,0,0.183,0c0,0.068,0,0.135,0,0.202c0.191,0.335,0.232,1.33,0.273,1.718
  c-0.472,0.304-0.851,0.644-1.549,0.707c-0.031-0.066-0.061-0.135-0.091-0.201c0.308-0.139,0.844-0.287,1.003-0.607
  c-1.485-0.87-2.773-3.283-5.65-2.323C6.613,0.667,6.025,1.265,5.376,1.452z"/>
<path fill-rule="evenodd" clip-rule="evenodd" d="M0.729,8.019c0.091,0,0.182,0,0.274,0c0.221,0.322,1.465,2.068,1.366,2.122
  c-0.065,0.057-0.004,0.146-0.182,0.101c0-0.033,0-0.067,0-0.101C1.692,9.95,1.483,9.329,1.276,8.827c-0.031,0-0.061,0-0.091,0
  c0,0.203,0,0.404,0,0.606c0.121,0.573,0.243,1.146,0.365,1.717c0.399,1.042,2.021,3.089,2.825,3.335
  c-0.03,0.068-0.061,0.135-0.091,0.202c-0.207,0.041-0.099,0.094-0.273,0c-0.833-0.342-2.498-2.665-2.825-3.637
  C1.001,10.505,1.13,9.231,0.729,8.928c0,0.067,0,0.135,0,0.202c-0.19,0.227-0.32,0.636-0.456,0.909c-0.061,0-0.122,0-0.182,0
  C0.033,9.862,0.073,9.942,0,9.837C0.243,9.231,0.486,8.625,0.729,8.019z"/>
<path fill-rule="evenodd" clip-rule="evenodd" d="M15.766,9.837c0.225,0.131,0.062-0.042,0.183,0.202
  c0.21,0.46-0.272,0.978-0.456,1.313c-0.635,1.156-0.917,2.493-2.096,3.031c-0.532,0.243-1.373,0.073-1.823,0.405
  c0.03,0.033,0.061,0.067,0.091,0.101c0.486,0.303,0.972,0.606,1.458,0.909c0,0.068,0,0.134,0,0.202c-0.091,0-0.182,0-0.273,0
  c-0.392-0.417-1.207-0.552-1.458-1.111c-0.073-0.118-0.071-0.17-0.091-0.404c0.473-0.343,0.835-0.932,1.184-1.414
  c0.061,0,0.122,0,0.182,0c0,0.1,0,0.202,0,0.303c-0.245,0.251-0.522,0.628-0.638,1.01c0.061,0,0.121,0,0.182,0
  c0.378-0.266,0.973-0.16,1.366-0.404C14.278,13.547,15.713,10.983,15.766,9.837z"/>
</svg>
