<?xml version="1.0" encoding="utf-8"?>
<svg version="1.1" xmlns="http://www.w3.org/2000/svg" xmlns:xlink="http://www.w3.org/1999/xlink" viewBox="0 0 72 57" >
  <path id="right_two"  d="M19.059,0C41.004,1.169,56.027,13.192,72,21.112
    C62.598,30.261,38.759,51.897,27.529,57c0-2.111,0-4.222,0-6.333c7.763-7.742,15.53-15.482,23.294-23.221c0-0.706,0-1.408,0-2.111
    c-5.647,0-11.294,0-16.941,0C27.571,29.471,9.998,27.717,0,27.445c0-1.408,0-2.817,0-4.222c14.285,0.418,38.164,0.342,46.588-6.334
    C36.904,14.8,22.467,8.778,19.059,0z"/>
</svg>