<?xml version="1.0" encoding="utf-8"?>
<svg version="1.1"
   xmlns="http://www.w3.org/2000/svg" xmlns:xlink="http://www.w3.org/1999/xlink" xmlns:a="http://ns.adobe.com/AdobeSVGViewerExtensions/3.0/"
   x="0px" y="0px" width="72px" height="50px" viewBox="0 0 72 50" overflow="visible" enable-background="new 0 0 72 50"
   xml:space="preserve">
<path id="right_2_" fill-rule="evenodd" clip-rule="evenodd" d="M19.638,0C39.611,7.785,53.676,19.24,72,28.259
  c-0.729,0.726-1.453,1.453-2.182,2.173C62.974,40.629,48.647,46.917,34.909,50c0-0.724,0-1.448,0-2.175c0.729,0,1.452,0,2.183,0
  c6.229-8.443,19.195-10.217,24.001-19.566c-3.306-1.162-3.694-1.467-8.729-2.172C44.867,31.448,10.004,37.105,0,30.433
  c16.057-0.066,30.543-3.549,43.638-6.517c0-0.728,0-1.453,0-2.175C32.372,16.91,23.09,12.952,19.638,0z"/>
</svg>
