<?xml version="1.0" encoding="utf-8"?>
<svg version="1.1" xmlns="http://www.w3.org/2000/svg" xmlns:xlink="http://www.w3.org/1999/xlink" viewBox="0 0 72 24" >
  <path id="slight_up" d="M40.224,0c5.22,0.551,11.279,0.681,16.231,1.739
    c5.384,1.15,10.155-1.24,14.819-0.348c0.117,0.348,0.235,0.696,0.353,1.044c0.437,0.639,0.384,1.983,0.353,3.131
    c-1.955,2.03-3.528,4.399-5.646,6.261c-1.83,1.609-3.926,3.189-5.292,5.218c-1.318,1.956-1.181,5.656-3.529,6.608
    c-0.457,0.306-0.87,0.311-1.764,0.348c-0.381-0.611-0.888-1.258-1.411-1.739c-0.216-3.991,0.772-6.261,2.47-9.043
    c-0.118,0-0.235,0-0.353,0c-7.24,5.816-28.722,7.601-41.283,4.87C9.955,16.953,0.39,18.979,0,13.217
    c0.545-0.394,0.297-0.377,1.059-0.696c1.279-0.929,3.948-0.82,5.998-0.348c5.788,1.333,13.153,0.771,19.406,2.087
    c1.461,0.307,3.676-0.155,4.587-0.348c4.419-0.936,8.19,0.083,11.997-1.043c4.259-1.26,8.156-3.764,12.35-4.87
    c0-0.116,0-0.232,0-0.348C49.57,7.801,37.671,7.751,37.048,2.783C38.41,1.211,38.541,1.244,40.224,0z"/>
</svg>