<?xml version="1.0" encoding="utf-8"?>
<svg version="1.1"
   xmlns="http://www.w3.org/2000/svg" xmlns:xlink="http://www.w3.org/1999/xlink"
   x="0px" y="0px" width="72px" height="24px" viewBox="0 0 72 24" overflow="visible"
   enable-background="new 0 0 72 24" xml:space="preserve">
<path id="slight_x5F_down_1_" fill-rule="evenodd" clip-rule="evenodd" d="M15.115,0c0.72,0,1.44,0,2.159,0
  c0.103,0.333,0.206,0.667,0.308,1c0.409,0.611,0.398,1.723,0,2.333C16.278,7.49,10.549,11.048,8.329,15c0.103,0,0.206,0,0.309,0
  c2.328-1.917,6.404-1.732,9.563-2.667C28.853,9.18,47.029,8.766,57.994,12c4.802,1.417,8.626,1.751,12.031,4.333
  c0.752,0.569,2.445,1.821,1.851,2.666c-0.635,0.792-1.657,0.724-3.085,0.667c-2.49-2.088-6.639-1.715-10.18-2.666
  c-13.382-3.594-32.511-1.894-45.038,1c0,0.111,0,0.223,0,0.333c3.081,0.008,8.553,1.307,9.563,3.667
  c0.232,0.358,0.186,0.315,0.309,1.001c-0.45,0.284-0.885,0.603-1.234,1c-3.644,0.04-6.866-0.868-9.871-1.667
  c-4.005-1.065-7.995-1.12-11.722-2c-0.445-0.89-0.615-1.407-0.617-3c3.294-3.331,6.507-6.736,9.254-10.666
  C10.958,4.229,13.743,2.855,15.115,0z"/>
</svg>
