<?xml version="1.0" encoding="utf-8"?>
<svg version="1.1"
   xmlns="http://www.w3.org/2000/svg" xmlns:xlink="http://www.w3.org/1999/xlink"
   x="0px" y="0px" width="72px" height="36px" viewBox="0 0 72 36" overflow="visible"
   enable-background="new 0 0 72 36" xml:space="preserve">
<path id="swoop_x5F_up_1_" fill-rule="evenodd" clip-rule="evenodd" d="M58.542,0c2.618,0.76,3.195,2.156,5.383,3.34
  c0.071,8.484,6.538,10.366,8.075,17.37c-1.079,0.372-1.618,0.534-3.364,0.668c-2.749-4.327-6.055-8.918-8.748-13.362
  c-0.224,0-0.449,0-0.673,0C55.09,22.947,38.73,31.774,22.878,35.408c-6.717,1.54-15.644-0.378-21.533-0.668
  C0.699,33.56,0.5,33.617,0,32.068c5.379-1.798,14.925-0.723,21.533-0.668c4.037-1.114,8.075-2.228,12.112-3.34
  c8.164-3.436,15.656-10.262,19.514-18.039c-0.448,0-0.897,0-1.346,0c-1.954,1.956-9.416,5.347-12.112,4.009
  c-2.18-0.851-1.771-0.588-2.019-3.34C45.101,6.906,53.229,5.745,58.542,0z"/>
</svg>
