<?xml version="1.0" encoding="utf-8"?>
<svg version="1.1"
   xmlns="http://www.w3.org/2000/svg" xmlns:xlink="http://www.w3.org/1999/xlink"
   x="0px" y="0px" width="72px" height="18px" viewBox="0 0 72 18" overflow="visible"
   enable-background="new 0 0 72 18" xml:space="preserve">
<path id="swoop_x5F_down_1_" fill-rule="evenodd" clip-rule="evenodd" d="M20.764,0.029C36.942-0.288,47.077,1.979,57.24,7.096
  c3.171,1.596,6.139,4.248,9.54,5.436c0-2.718,0-5.436,0-8.154c-0.492-0.704-0.502-1.341-0.561-2.718
  c0.968-0.325,1.769-0.484,3.367-0.544c0.374,0.544,0.749,1.087,1.123,1.631c2.19,2.558,1.318,11.365-0.561,13.59
  c-4,3.763-18.745,0.135-24.131-1.087c-0.187-0.906-0.374-1.812-0.561-2.718c0.374-0.181,0.749-0.362,1.123-0.544
  c2.591-1.858,6.305,0.464,8.979-1.087c-5.983-1.88-11.638-5.515-18.519-7.067C24.205,0.939,9.662,6.95,0.562,8.183
  C0.374,7.639,0.187,7.096,0,6.552C3.183,4.707,7.175,2.829,11.224,1.66C14.368,0.752,18.339,1.602,20.764,0.029z"/>
</svg>
