<svg version="1.1" xmlns="http://www.w3.org/2000/svg"  viewBox="0 0 82 25">
  <path d="M15.115,0.872
	c0.253-0.416,0.925-1.137,2.021-0.771s0.845,3.494,0.447,4.104c-1.305,4.157-7.034,7.715-9.254,11.667
	c0.102,0,6.692-1.803,9.871-2.668c11.359-3.09,29.711-2.754,40.883-0.332c6.917,1.5,15.41,5.318,19.441,7.584
	c0.822,0.462,1.975,1.165,1.851,2.665c-0.516,1.351-1.467,1.643-3.085,0.667c-2.798-1.705-14.04-6.417-19.011-7.317
	c-19.11-3.465-32.179-0.494-44.706,2.399c0,0.111,8.553,1.641,9.563,4c0.231,0.358,0.185,0.315,0.308,1.001
	c-0.096,1-0.682,1-1.234,0.999c-3.643,0.04-6.866-0.867-9.871-1.666C8.334,22.14-0.038,20.562,0,18.204
	C0.03,16.337,13.743,3.727,15.115,0.872"/>
</svg>