<?xml version="1.0" encoding="utf-8"?>
<svg version="1.1"
   xmlns="http://www.w3.org/2000/svg" xmlns:xlink="http://www.w3.org/1999/xlink"
   x="0" y="0" viewBox="0 0 16 16" overflow="visible"
   enable-background="new 0 0 16 16" xml:space="preserve">
<path id="watermark" style="opacity:.1; fill:gray" d="M8,0C3.582,0,0,3.582,0,8c0,4.419,3.582,8,8,8c4.419,0,8-3.581,8-8C16,3.582,12.419,0,8,0z M9.882,11.868
  C9.768,11.9,9.656,11.915,9.543,11.94l0.048,1.535c-0.534,0.334-1.397,0.36-1.876,0.258C7.238,13.628,7,13.449,7,13.449v-1.444
  c-1-0.35-2.383-1.682-2.383-4.017c0-1.604,0.462-2.757,1.263-3.46C6.284,4.18,6.777,3.941,7.281,3.79L7.234,2.514
  C7.769,2.18,8.219,2.153,8.698,2.256C9.174,2.36,9,2.54,9,2.54v1.152c1,0.091,1.383,0.254,1.818,0.506
  c0.012,0.11,0.164,0.567,0.164,0.667c0,0.627,0.01,1.135-0.269,2.135H9.305C9.155,6,9.065,6.041,9.033,5.657
  C8.905,5.646,8.735,5.462,8.521,5.462c-0.982,0-1.473,0.78-1.473,2.515c0,0.88,0.137,1.448,0.408,1.793
  c0.271,0.348,0.664,0.496,1.176,0.496c0.811,0,1.526-0.087,2.146-0.24l0.48,1.264C10.917,11.52,10.457,11.709,9.882,11.868z"/>
</svg>
