<?xml version="1.0" encoding="utf-8"?>
<svg version="1.1"
   xmlns="http://www.w3.org/2000/svg"
   width="1em" height="1em" viewBox="0 0 16 16"
   style="overflow:visible;enable-background:new 0 0 16 16;"
   xml:space="preserve" onload="document.show()">
  <defs>
    <script>
      document.show = function() {
        document.getElementById(window.location.hash.substring(1)).setAttribute('style', 'display:block');
      }
    </script>
    <style>
      g > g {display:none}
    </style>
  </defs>
  <g id="icons">
    <g id="play">
      <path d="M8,0C3.6,0,0,3.6,0,8c0,4.4,3.6,8,8,8c4.4,0,8-3.6,8-8C16,3.6,12.4,0,8,0z M4.9,12.1V3.9L13.1,8L4.9,12.1z"/>
    </g>
    <g id="silhouette">
      <path d="M14,12.5c-1-0.4-2.4-1.5-4.5-1.9c0.5-0.6,1-1.5,1.4-2.6c0.2-0.6,0.2-1.2,0.2-1.9c0-0.6,0.1-1.5,0-1.9
        C10.6,2.5,9.4,2,8,2C6.6,2,5.4,2.5,5,4.2c-0.1,0.5,0,1.4,0,1.9c0,0.8,0,1.3,0.2,1.9c0.4,1.1,0.8,2,1.4,2.6C4.4,11,3,12,2,12.5
        c-2,0.9-2,1.9-2,1.9V16l16,0v-1.6C16,14.3,16,13.4,14,12.5z"/>
    </g>
    <g id="gear">
      <path d="M14.5,6h-0.2c-0.8,0-1-0.5-0.4-1.1l0.3-0.3c0.6-0.6,0.6-1.5,0-2.1l-0.7-0.7c-0.6-0.6-1.5-0.6-2.1,0L11,2.1
        C10.5,2.7,10,2.5,10,1.7V1.5C10,0.7,9.3,0,8.5,0h-1C6.7,0,6,0.7,6,1.5v0.2c0,0.8-0.5,1-1.1,0.4L4.7,1.8c-0.6-0.6-1.5-0.6-2.1,0
        L1.9,2.6c-0.6,0.6-0.6,1.5,0,2.1L2.1,5C2.7,5.5,2.5,6,1.7,6H1.5C0.7,6,0,6.7,0,7.5v1C0,9.3,0.7,10,1.5,10h0.2c0.8,0,1,0.5,0.4,1.1
        l-0.3,0.3c-0.6,0.6-0.6,1.5,0,2.1l0.7,0.7c0.6,0.6,1.5,0.6,2.1,0L5,13.9C5.5,13.3,6,13.5,6,14.3v0.2C6,15.3,6.7,16,7.5,16h1
        c0.8,0,1.5-0.7,1.5-1.5v-0.2c0-0.8,0.5-1,1.1-0.4l0.3,0.3c0.6,0.6,1.5,0.6,2.1,0l0.7-0.7c0.6-0.6,0.6-1.5,0-2.1L13.9,11
        c-0.6-0.6-0.4-1.1,0.4-1.1h0.2c0.8,0,1.5-0.7,1.5-1.5v-1C16,6.7,15.3,6,14.5,6z M8,11c-1.7,0-3-1.3-3-3s1.3-3,3-3s3,1.3,3,3
        S9.6,11,8,11z"/>
    </g>
    <g id="logo">
      <path d="M3.658,2.298h3.238V0.465c0,0-0.161-0.248-0.84-0.392c-0.68-0.142-1.731-0.105-2.49,0.356L3.658,2.298z"/>
      <path d="M6.804,12.709H3.566v2.833c0,0,0.16,0.249,0.839,0.392c0.68,0.142,1.731,0.106,2.491-0.356L6.804,12.709z"/>
      <path d="M5.375,4.261c-1.397,0-2.095,1.199-2.095,3.598c0,1.215,0.194,2.062,0.581,2.539c0.387,0.479,0.945,0.717,1.673,0.717
        c1.154,0,2.171-0.105,3.052-0.319l0.684,1.754c-0.486,0.318-1.14,0.588-1.958,0.808c-0.82,0.22-1.617,0.33-2.391,0.33
        C1.639,13.688,0,11.791,0,7.995c0-2.216,0.569-3.81,1.708-4.782c1.017-0.849,2.255-1.275,3.712-1.275
        c1.458,0,2.673,0.272,3.644,0.82c0.016,0.152,0.023,0.295,0.023,0.432c0,0.867-0.197,1.685-0.592,2.459H6.49
        C6.277,5.27,6.148,4.814,6.103,4.283C5.921,4.269,5.679,4.261,5.375,4.261z"/>
    </g>
  </g>
  <g id="triangles">
    <g id="equilateral">
      <polygon points="16,0 0,0 8,13 "/>
    </g>
    <g id="isosceles">
      <polygon points="16,0 0,0 8,8 "/>
    </g>
  </g>
</svg>
