<?xml version="1.0" encoding="utf-8"?>
<!-- Generator: Adobe Illustrator 15.0.2, SVG Export Plug-In  -->
<!DOCTYPE svg PUBLIC "-//W3C//DTD SVG 1.1//EN" "http://www.w3.org/Graphics/SVG/1.1/DTD/svg11.dtd" [
	<!ENTITY ns_flows "http://ns.adobe.com/Flows/1.0/">
]>
<svg version="1.1"
	 xmlns="http://www.w3.org/2000/svg" xmlns:xlink="http://www.w3.org/1999/xlink" xmlns:a="http://ns.adobe.com/AdobeSVGViewerExtensions/3.0/"
	 x="0px" y="0px" width="576px" height="576px" viewBox="-56.38 -185.841 576 576"
	 overflow="visible" enable-background="new -56.38 -185.841 576 576" xml:space="preserve">
<defs>
</defs>
<path fill-rule="evenodd" clip-rule="evenodd" d="M59.403,55.142c7.175,0,15.468-1.788,24.882-5.375v23.086
	c-2.094,0.743-5.084,1.562-8.967,2.462c1.195,3.442,1.796,6.65,1.796,9.644c0,9.556-2.879,17.891-8.633,24.993
	c-5.75,7.091-13.185,11.317-22.301,12.665c-5.976,0.888-8.966,4.104-8.966,9.632c0,1.945,0.972,3.89,2.913,5.835
	c2.538,2.833,6.275,4.633,11.21,5.375c21.367,3.285,32.049,12.175,32.049,26.678c0,23.154-13.821,34.747-41.467,34.747
	c-11.359,0-20.697-2.029-28.021-6.057C4.636,193.749,0,185.748,0,174.837c0-12.55,6.949-21.148,20.846-25.773v-0.452
	c-5.077-3.132-7.619-7.917-7.619-14.342c0-8.376,2.393-13.599,7.174-15.688v-0.452c-4.782-1.639-9.043-5.383-12.775-11.21
	c-4.185-6.271-6.275-12.998-6.275-20.169c0-10.762,3.809-19.724,11.428-26.898c7.324-6.723,16.064-10.085,26.225-10.085
	C46.329,49.767,53.128,51.555,59.403,55.142L59.403,55.142z M60.303,173.045c0-7.626-6.279-11.432-18.833-11.432
	c-12.105,0-18.154,3.958-18.154,11.884c0,7.764,6.573,11.646,19.72,11.646C54.544,185.144,60.303,181.115,60.303,173.045
	L60.303,173.045z M25.781,86.973c0,10.31,4.709,15.463,14.12,15.463c9.115,0,13.671-5.222,13.671-15.686
	c0-4.333-1.042-8.074-3.135-11.209c-2.539-3.434-6.049-5.153-10.536-5.153C30.49,70.387,25.781,75.916,25.781,86.973L25.781,86.973z
	 M25.781,86.973"/>
<path fill-rule="evenodd" clip-rule="evenodd" d="M108.052,33.396c-4.33,0-8.032-1.643-11.095-4.924
	c-3.063-3.292-4.594-7.175-4.594-11.662c0-4.628,1.531-8.587,4.594-11.88C100.02,1.646,103.722,0,108.052,0
	c4.181,0,7.813,1.646,10.869,4.931c3.066,3.292,4.594,7.251,4.594,11.88c0,4.487-1.527,8.369-4.594,11.662
	C115.866,31.754,112.233,33.396,108.052,33.396L108.052,33.396z M108.052,33.396"/>
<path fill-rule="evenodd" clip-rule="evenodd" d="M95.724,150.403c0-2.986,0-8.062,0-15.237V65.452c0-7.021,0-11.855,0-14.571h24.43
	c0,2.778,0,7.55,0,14.124v68.814c0,7.618,0,12.966,0,16.585H95.724z M95.724,150.403"/>
<path fill-rule="evenodd" clip-rule="evenodd" d="M166.988,50.881h19.499v21.298c-0.747,0-2.257,0-4.146,0c-2.027,0-3.92,0-5.716,0
	h-9.637v41.693c0,10.015,3.289,15.022,9.862,15.022c4.629,0,8.817-1.271,12.546-3.813v22.404
	c-5.529,3.002-12.171,4.487-19.947,4.487c-10.903,0-18.453-3.882-22.634-11.653c-3.14-5.827-4.709-15.016-4.709-27.573V72.627l0,0
	v-0.448h-3.14c-1.941,0-4.66,0-7.623,0V50.881h10.984v-8.736c0-4.188,0-7.518,0-10.088h24.659c0,2.697,0,6.053,0,9.636V50.881z
	 M166.988,50.881"/>
<path fill-rule="evenodd" clip-rule="evenodd" d="M245.717,50.207c-6.416,0-13.139,2.248-20.172,6.734v-39.23
	c0-8.519,0-16.815,0-16.815H201.12c0,0,0,7.998,0,16.815v118.58c0,6.86,0,14.112,0,14.112h24.426v-5.557c0,0,0-6.021,0-8.556V81.149
	c5.233-4.935,10.303-7.4,15.249-7.4c5.681,0,10.015,2.833,13.001,8.515c2.244,4.486,3.361,10.084,3.361,16.811l-0.12,30.265
	c0,5.084,0,21.064,0,21.064h24.998v-20.621V99.074c0-12.998-2.909-24.059-8.736-33.17C266.721,55.44,257.533,50.207,245.717,50.207
	L245.717,50.207z M245.717,50.207"/>
<path fill-rule="evenodd" clip-rule="evenodd" d="M325.075,151.299c-11.807,0-20.543-5.229-26.225-15.682
	c-4.479-8.529-6.723-19.647-6.723-33.399V71.501c0-10.157,0-20.621,0-20.621h24.948v21.072l-0.071,30.265
	c0,8.515,0.973,14.64,2.918,18.377c2.243,4.64,6.362,6.952,12.327,6.952c4.188,0,8.897-2.466,14.112-7.404V65.004
	c0-2.535,0-8.737,0-8.737v-5.387h24.671c0,0,0,7.248,0,14.124v68.591c0,8.813,0,16.808,0,16.808h-23.981v-8.062
	C340.16,148.312,332.847,151.299,325.075,151.299L325.075,151.299z M325.075,151.299"/>
<path fill-rule="evenodd" clip-rule="evenodd" d="M425.957,151.077c-8.071,0-14.794-2.918-20.169-8.736v8.062h-23.086
	c0,0,0-7.252,0-14.112V17.711c0-8.817,0-16.815,0-16.815h24.434c0,0,0,8.296,0,16.815v39.005c6.868-4.334,13.592-6.509,20.169-6.509
	c11.792,0,21.071,5.233,27.795,15.697c5.682,9.111,8.507,20.172,8.507,33.17c0,13.304-2.986,24.882-8.959,34.744
	C447.48,145.327,437.909,151.077,425.957,151.077L425.957,151.077z M422.595,73.749c-4.924,0-10.085,2.465-15.46,7.4v38.771
	c4.778,4.64,9.487,6.952,14.112,6.952c5.827,0,10.229-3.216,13.231-9.64c2.389-5.077,3.575-11.13,3.575-18.159
	C438.054,82.19,432.893,73.749,422.595,73.749L422.595,73.749z M422.595,73.749"/>
<path d="M112.738,171.896c-1.42-1.93-3.246-3.155-5.735-3.155c-2.393,0-4.674,1.838-4.674,4.319c0,6.447,15.18,3.752,15.18,16.608
	c0,7.664-4.771,13.101-12.592,13.101c-5.283,0-9.143-3.048-11.784-7.466l4.828-4.725c1.015,2.956,3.706,5.59,6.911,5.59
	c3.04,0,4.927-2.588,4.927-5.543c0-3.951-3.66-5.069-6.658-6.233c-4.928-2.036-8.534-4.525-8.534-10.467
	c0-6.355,4.725-11.478,11.172-11.478c3.407,0,8.128,1.669,10.463,4.257L112.738,171.896z"/>
<path d="M138.535,202.77c-11.685,0-18.947-8.943-18.947-20.215c0-11.378,7.523-20.106,18.947-20.106
	c11.428,0,18.943,8.729,18.943,20.106C157.478,193.826,150.211,202.77,138.535,202.77z M138.535,169.813
	c-7.056,0-11.226,6.248-11.226,12.436c0,5.896,2.948,13.162,11.226,13.162c8.281,0,11.222-7.267,11.222-13.162
	C149.756,176.062,145.594,169.813,138.535,169.813z"/>
<path d="M186.728,173.627c-2.087-2.55-5.233-4.073-8.431-4.073c-7.167,0-11.275,6.6-11.275,13.216
	c0,6.439,4.261,12.895,11.217,12.895c3.201,0,6.401-1.685,8.488-4.059v8.882c-2.795,1.325-5.59,2.282-8.683,2.282
	c-10.77,0-18.745-9.296-18.745-19.854c0-10.865,7.669-20.467,18.897-20.467c2.994,0,5.942,0.811,8.53,2.228V173.627z"/>
<path d="M199.117,201.759h-7.473v-38.301h7.473V201.759z"/>
<path d="M212.364,193.688l-3.144,8.07h-7.875l14.938-39.311h5.789l14.518,39.311h-7.971l-2.94-8.07H212.364z M218.819,173.665h-0.1
	l-4.216,13.928h9.089L218.819,173.665z"/>
<path d="M246.353,195.258h10.552v6.501h-18.032v-38.301h7.48V195.258z"/>
<path d="M299.57,173.627c-2.091-2.55-5.237-4.073-8.438-4.073c-7.167,0-11.271,6.6-11.271,13.216
	c0,6.439,4.266,12.895,11.218,12.895c3.201,0,6.401-1.685,8.492-4.059v8.882c-2.788,1.325-5.598,2.282-8.684,2.282
	c-10.773,0-18.752-9.296-18.752-19.854c0-10.865,7.673-20.467,18.89-20.467c3.002,0,5.949,0.811,8.546,2.228V173.627z"/>
<path d="M321.606,202.77c-11.684,0-18.951-8.943-18.951-20.215c0-11.378,7.52-20.106,18.951-20.106
	c11.417,0,18.937,8.729,18.937,20.106C340.542,193.826,333.276,202.77,321.606,202.77z M321.606,169.813
	c-7.066,0-11.232,6.248-11.232,12.436c0,5.896,2.948,13.162,11.232,13.162c8.27,0,11.218-7.267,11.218-13.162
	C332.824,176.062,328.659,169.813,321.606,169.813z"/>
<path d="M344.187,163.458h10.682c11.057,0,18.483,8.285,18.483,19.196c0,10.781-7.626,19.104-18.537,19.104h-10.628V163.458z
	 M351.668,195.258h1.201c9.212,0,12.765-5.076,12.765-12.642c0-8.338-4.272-12.649-12.765-12.649h-1.201V195.258z"/>
<path d="M384.463,201.759h-7.466v-38.301h7.466V201.759z"/>
<path d="M389.891,162.448h5.391l20.154,26.761h0.106v-25.751h7.466v39.066h-5.375l-20.177-26.769h-0.084v26.003h-7.481V162.448z"/>
<path d="M462.274,181.392v0.965c0,10.818-5.536,20.413-17.42,20.413c-11.188,0-18.247-9.448-18.247-20
	c0-10.927,7.259-20.321,18.69-20.321c6.509,0,12.19,3.3,15.139,9.142l-6.593,3.554c-1.531-3.454-4.786-6.096-8.737-6.096
	c-7.213,0-10.773,7.358-10.773,13.722c0,6.34,3.6,13.399,10.828,13.399c4.67,0,8.575-4.065,8.713-8.683h-8.124v-6.095H462.274z"/>
</svg>
