<?xml version="1.0" encoding="utf-8"?>
<!-- Generator: Adobe Illustrator 15.0.0, SVG Export Plug-In . SVG Version: 6.00 Build 0)  -->
<!DOCTYPE svg PUBLIC "-//W3C//DTD SVG 1.1//EN" "http://www.w3.org/Graphics/SVG/1.1/DTD/svg11.dtd">
<svg version="1.1" id="Layer_1" xmlns="http://www.w3.org/2000/svg" xmlns:xlink="http://www.w3.org/1999/xlink" x="0px" y="0px"
	 width="800px" height="600px" viewBox="0 0 800 600" enable-background="new 0 0 800 600" xml:space="default">
<path fill-rule="evenodd" clip-rule="evenodd" fill="#BD902C" d="M528.21,397.73c0-2.19-1.47-4.381-4.41-5.84l-41.87-21.201
	c-4.41-2.199-6.609-3.66-8.81-3.66c-2.21,0-4.41,1.461-5.88,4.391c-13.961,27.78-36.73,42.4-61.7,42.4
	c-35.99,0-66.11-29.98-66.11-65.801V252.99c0-35.82,30.12-65.81,66.11-65.81c24.239,0,47.739,14.63,60.97,40.95
	c1.471,2.93,3.67,4.39,5.87,4.39c2.94,0,6.61-2.19,12.49-5.12l38.2-19.01c2.93-1.46,4.4-3.65,4.4-6.58
	c0-3.65-5.141-13.89-17.631-28.36c-15.619-17.72-37.6-32.28-70.13-38.25v-29.04c0-3.73-3.08-6.75-6.87-6.75h-54.9
	c-3.79,0-6.86,3.02-6.86,6.75v29.31c-60.68,11.85-97.78,55.8-97.78,117.52v95.029c0,61.711,37.1,105.66,97.78,117.51v29.311
	c0,3.73,3.07,6.75,6.86,6.75h54.9c3.79,0,6.87-3.02,6.87-6.75v-29.07c30.63-5.67,51.8-19.029,67.2-35.479
	C519.391,416.57,528.21,401.391,528.21,397.73z"/>
</svg>
