<?xml version="1.0" encoding="utf-8"?>
<!-- Generator: Adobe Illustrator 15.0.2, SVG Export Plug-In  -->
<!DOCTYPE svg PUBLIC "-//W3C//DTD SVG 1.1//EN" "http://www.w3.org/Graphics/SVG/1.1/DTD/svg11.dtd" [
	<!ENTITY ns_flows "http://ns.adobe.com/Flows/1.0/">
]>
<svg version="1.1"
	 xmlns="http://www.w3.org/2000/svg" xmlns:xlink="http://www.w3.org/1999/xlink" xmlns:a="http://ns.adobe.com/AdobeSVGViewerExtensions/3.0/"
	 x="0px" y="0px" width="256px" height="495px" viewBox="0.19 0 256 495"
	 style="overflow:visible;enable-background:new 0.19 0 256 495;" xml:space="preserve">
<defs>
</defs>
<path style="fill-rule:evenodd;clip-rule:evenodd;fill:#BD902C;" d="M254.91,298.32c0-2.19-1.47-4.38-4.41-5.84l-41.87-21.2
	c-4.41-2.2-6.61-3.66-8.81-3.66c-2.21,0-4.41,1.46-5.88,4.39c-13.96,27.78-36.73,42.4-61.7,42.4c-35.99,0-66.11-29.98-66.11-65.8
	v-95.03c0-35.82,30.12-65.81,66.11-65.81c24.24,0,47.74,14.63,60.97,40.95c1.47,2.93,3.67,4.39,5.87,4.39
	c2.94,0,6.61-2.19,12.49-5.12l38.2-19.01c2.93-1.46,4.4-3.65,4.4-6.58c0-3.65-5.14-13.89-17.63-28.36
	c-15.62-17.72-37.6-32.28-70.13-38.25V6.75c0-3.73-3.08-6.75-6.87-6.75h-54.9c-3.79,0-6.86,3.02-6.86,6.75v29.31
	C37.1,47.91,0,91.86,0,153.58v95.03c0,61.71,37.1,105.66,97.78,117.51v29.31c0,3.73,3.07,6.75,6.86,6.75h54.9
	c3.79,0,6.87-3.02,6.87-6.75v-29.07c30.63-5.67,51.8-19.03,67.2-35.48C246.09,317.16,254.91,301.98,254.91,298.32z"/>
<path style="fill-rule:evenodd;clip-rule:evenodd;fill:#BD902C;" d="M38.93,459.56c0-0.33-0.22-0.66-0.67-0.88l-6.36-3.19
	c-0.67-0.33-1.01-0.55-1.34-0.55c-0.34,0-0.67,0.22-0.89,0.66c-2.12,4.18-5.58,6.37-9.38,6.37c-5.47,0-10.05-4.5-10.05-9.89V437.8
	c0-5.38,4.58-9.89,10.05-9.89c3.68,0,7.26,2.2,9.27,6.15c0.22,0.44,0.55,0.66,0.89,0.66c0.44,0,1-0.33,1.9-0.77l5.8-2.85
	c0.45-0.22,0.67-0.55,0.67-0.99c0-0.55-0.78-2.09-2.68-4.26c-2.37-2.67-5.71-4.86-10.66-5.76v-4.36c0-0.56-0.46-1.01-1.04-1.01H16.1
	c-0.58,0-1.05,0.45-1.05,1.01v4.41c-9.22,1.78-14.86,8.38-14.86,17.66v14.28c0,9.28,5.64,15.89,14.86,17.67v4.4
	c0,0.56,0.47,1.02,1.05,1.02h8.34c0.58,0,1.04-0.46,1.04-1.02v-4.37c4.66-0.85,7.87-2.86,10.21-5.33
	C37.59,462.39,38.93,460.11,38.93,459.56z"/>
<path style="fill-rule:evenodd;clip-rule:evenodd;fill:#BD902C;" d="M69.8,451.98c0,5.3-4.48,9.74-9.83,9.74s-9.83-4.44-9.83-9.74
	v-14.07c0-5.3,4.48-9.74,9.83-9.74s9.83,4.44,9.83,9.74V451.98z M79.66,451.98v-14.07c0-10.76-7.67-17.87-19.69-17.87
	s-19.69,7.11-19.69,17.87v14.07c0,10.75,7.67,17.86,19.69,17.86S79.66,462.73,79.66,451.98z"/>
<path style="fill-rule:evenodd;clip-rule:evenodd;fill:#BD902C;" d="M102.25,468.31c1.44,0.4,2.87,0.62,4.06,0.62
	c1.79,0,3.51-0.21,5.14-0.62"/>
<path style="fill-rule:evenodd;clip-rule:evenodd;fill:#BD902C;" d="M95.39,468.3v-1.61c0-0.71,0.33-1.22,0.88-1.22
	c0.33,0,0.54,0.21,0.87,0.41c1.41,1.08,3.27,1.91,5.11,2.43"/>
<path style="fill-rule:evenodd;clip-rule:evenodd;fill:#BD902C;" d="M159.26,451.98c0,5.3-4.47,9.74-9.83,9.74
	c-4.99,0-9.22-3.86-9.77-8.69v-3.05h-0.06l0.01-12.07c0-5.3,4.47-9.74,9.82-9.74c5.36,0,9.83,4.44,9.83,9.74V451.98z M169.12,451.98
	v-14.07c0-10.76-7.67-17.87-19.69-17.87s-19.68,7.11-19.68,17.87v14.07c0,0.55,0.02,1.08,0.06,1.62v39.26c0,0.6,0.33,0.86,1.09,0.86
	h7.67c0.77,0,1.09-0.26,1.09-0.86v-24.94c2.78,1.25,6.07,1.92,9.77,1.92C161.45,469.84,169.12,462.73,169.12,451.98z"/>
<path style="fill-rule:evenodd;clip-rule:evenodd;fill:#BD902C;" d="M114.99,451.98c0,5.3-4.48,9.74-9.83,9.74
	c-4.99,0-9.22-3.86-9.77-8.69v-3.05h-0.06v-12.07c0-5.3,4.48-9.74,9.83-9.74s9.83,4.44,9.83,9.74V451.98z M124.85,451.98v-14.07
	c0-10.76-7.67-17.87-19.69-17.87s-19.68,7.11-19.68,17.87v14.07c0,0.55,0.02,1.08,0.05,1.62l0.01,39.26c0,0.6,0.33,0.86,1.09,0.86
	h7.67c0.76,0,1.09-0.26,1.09-0.86v-24.94c2.78,1.25,6.07,1.92,9.77,1.92C117.18,469.84,124.85,462.73,124.85,451.98z"/>
<path style="fill-rule:evenodd;clip-rule:evenodd;fill:#BD902C;" d="M202.79,437.96c0,0.76-0.33,1.08-1.09,1.08h-17.48
	c-0.76,0-1.09-0.32-1.09-1.08c0-5.33,4.48-9.79,9.83-9.79C198.31,428.17,202.79,432.63,202.79,437.96z M212.65,445.23v-7.27
	c0-8.71-7.67-17.92-19.69-17.92c-12.02,0-19.68,9.21-19.68,17.92v13.82c0,10.95,7.66,18.06,19.68,18.06
	c7.43,0,12.02-2.43,15.09-5.69c1.86-2.03,3.17-4.31,3.17-4.86c0-0.33-0.22-0.67-0.65-0.89l-6.25-3.2c-0.65-0.33-0.98-0.55-1.31-0.55
	s-0.66,0.22-0.87,0.66c-2.08,4.2-5.47,6.41-9.18,6.41c-5.35,0-9.83-4.53-9.83-9.94v-4.42c0-0.77,0.33-1.1,1.09-1.1h27.33
	C212.32,446.26,212.65,445.95,212.65,445.23z"/>
<path style="fill-rule:evenodd;clip-rule:evenodd;fill:#BD902C;" d="M217.43,446.32v22.72c0,0.6,0.33,0.86,1.09,0.86h7.67
	c0.77,0,1.09-0.26,1.09-0.86v-24.56h-0.11l-0.01-6.57c0-5.3,4.49-9.74,9.86-9.74c3.61,0,7.12,2.16,9.09,6.06
	c0.22,0.43,0.54,0.65,0.87,0.65c0.44,0,0.99-0.33,1.86-0.76l5.7-2.81c0.44-0.22,0.65-0.54,0.65-0.98c0-0.54-0.76-2.05-2.62-4.2
	c-3.07-3.45-7.78-6.09-15.55-6.09c-12.05,0-19.71,7.11-19.71,17.87v8.41H217.43z"/>
</svg>
