<svg xmlns="http://www.w3.org/2000/svg" xmlns:xlink="http://www.w3.org/1999/xlink">
  <symbol id="play"   viewBox="0 0 16 16">
    <path d="M8,0C3.6,0,0,3.6,0,8c0,4.4,3.6,8,8,8c4.4,0,8-3.6,8-8C16,3.6,12.4,0,8,0z M4.9,12.1V3.9L13.1,8L4.9,12.1z"/>
  </symbol>
  <symbol id="check"  viewBox="0 0 100 100">
    <path d="M94.414,1.001C83.248,5.244,42.827,63.756,42.827,63.756L28.561,40.739l-12.298,7.398l21.652,33.261h9.602  c0,0,32.87-46.548,46.897-58.065V1.001z"/>
    <path d="M6.62,83.479c0,5.394,4.373,9.768,9.768,9.768l52.468,0.062c5.395,0,9.768-4.373,9.768-9.768l-0.085-31.474h5.787v31.537  C84.325,92.107,77.433,99,68.93,99L15.76,98.938c-8.11,0-14.683-6.575-14.683-14.682L1,31.161c0-8.503,6.893-15.396,15.396-15.396  l48.809-0.079v5.794l-48.738-0.022c-5.394,0-9.768,4.372-9.768,9.768L6.62,83.479z"/>
  </symbol>
  <symbol id="power"  viewBox="0 0 91.849 100">
    <path d="M0,53.572C-0.016,40.7,5.321,30.962,10.48,24.78l0,0c5.187-6.233,10.224-9.236,10.676-9.516l0,0
      c3.368-1.993,7.697-0.849,9.667,2.555l0,0c1.966,3.392,0.851,7.747-2.489,9.75l0,0l0.001,0.001c0,0-0.004,0.001-0.015,0.008l0,0
      c-0.009,0.004-0.023,0.014-0.042,0.026l0,0c-0.068,0.042-0.194,0.125-0.367,0.244l0,0c-0.351,0.234-0.897,0.625-1.572,1.162l0,0
      c-1.349,1.073-3.203,2.74-5.029,4.945l0,0c-3.669,4.467-7.166,10.798-7.181,19.616l0,0c0.003,8.889,3.547,16.882,9.314,22.722l0,0
      c5.78,5.83,13.687,9.416,22.48,9.418l0,0c8.793-0.002,16.699-3.588,22.478-9.418l0,0c5.769-5.84,9.313-13.833,9.316-22.722l0,0
      c-0.016-8.548-3.294-14.743-6.837-19.195l0,0c-3.373-4.221-6.982-6.572-7.341-6.791l0,0c-0.004-0.003-0.009-0.004-0.012-0.006l0,0
      c-0.005-0.003-0.008-0.005-0.011-0.006l0,0c-0.003-0.003-0.007-0.003-0.007-0.003l0,0l0,0c-3.336-2.005-4.452-6.36-2.488-9.752l0,0
      c1.972-3.404,6.3-4.548,9.667-2.555l0,0c0.454,0.279,5.491,3.282,10.678,9.516l0,0c5.162,6.183,10.496,15.92,10.481,28.792l0,0
      C91.843,79.208,71.283,99.991,45.924,100l0,0C20.565,99.991,0.006,79.208,0,53.572L0,53.572z"/>
    <path d="M38.859,50.001v-21.43V7.143C38.859,3.199,42.022,0,45.925,0l0,0c3.899,0,7.062,3.199,7.062,7.143l0,0v21.428v21.43h0.002
      c0,3.941-3.165,7.141-7.064,7.141l0,0C42.022,57.142,38.859,53.942,38.859,50.001L38.859,50.001z"/>
  </symbol>
  <symbol id='toggle' viewBox="0 0 24 24">
    <path d="M3,18h18v-2H3V18z M3,13h18v-2H3V13z M3,8h18V6H3V8z"/>
  </symbol>
  <symbol id='delete' viewBox="0 0 100 100">
    <path d="M50,0C22.384,0.004,0.004,22.384,0,50.001C0.004,77.617,22.384,99.997,50,100c27.617-0.003,49.996-22.383,50-49.999  C99.996,22.384,77.617,0.004,50,0z M76.611,76.612C69.782,83.432,60.412,87.631,50,87.634c-10.411-0.003-19.781-4.202-26.61-11.021  c-6.82-6.83-11.021-16.2-11.022-26.611C12.369,39.589,16.569,30.22,23.39,23.39c6.829-6.82,16.199-11.021,26.61-11.023  c10.412,0.003,19.782,4.203,26.611,11.023c6.82,6.83,11.02,16.199,11.022,26.611C87.631,60.412,83.432,69.782,76.611,76.612z   M69.295,30.705c-2.565-2.565-6.725-2.565-9.29,0L50,40.71L39.995,30.705c-2.565-2.565-6.725-2.565-9.29,0  c-2.566,2.565-2.566,6.726,0,9.29l10.004,10.006L30.705,60.005c-2.566,2.566-2.566,6.726,0,9.291  c1.282,1.282,2.964,1.925,4.645,1.925c1.682,0,3.362-0.643,4.646-1.925L50,59.291l10.005,10.005  c1.282,1.282,2.964,1.925,4.646,1.925c1.681,0,3.362-0.643,4.645-1.925c2.566-2.565,2.566-6.725,0-9.291L59.29,50.001l10.005-10.006  C71.861,37.431,71.861,33.271,69.295,30.705z"/>
  </symbol>
  <symbol id="enter"  viewBox="0 0 222 222">
    <path d="M222,115.019856 C222,51.4938385 172.309821,0 111.00399,0 C49.6991554,0 0,51.4938385 0,115.019856 C0,163.594015 29.0610747,205.138207 70.1417468,222 L98.222383,148.477828 C85.3679666,143.202769 76.2727289,130.214589 76.2727289,115.019856 C76.2727289,95.1464006 91.8240992,79.0359728 111.002992,79.0359728 C130.182883,79.0359728 145.734253,95.1464006 145.734253,115.019856 C145.734253,130.214589 136.630039,143.203803 123.784599,148.477828 L151.857256,222 C192.946904,205.138207 222,163.594015 222,115.019856 L222,115.019856 Z M222,115.019856" id="Shape"></path>
  </symbol>
  <symbol id="add"    viewBox="0 0 114 114">
    <path d="M16.6947584,16.69477 C-5.56507781,38.9546217 -5.56476114,75.0452595 16.6947584,97.3051112 C38.954278,119.564963 75.0455241,119.564963 97.3053603,97.3051112 C119.56488,75.0455762 119.56488,38.954305 97.3053603,16.69477 C75.0452074,-5.56508167 38.954278,-5.564765 16.6947584,16.69477 L16.6947584,16.69477 Z M89.52674,89.5280537 C71.5627661,107.490329 42.4370742,107.490968 24.4731002,89.5280537 C6.50880687,71.5638615 6.50912631,42.4371767 24.4731002,24.4733039 C42.4373936,6.50879222 71.5627661,6.50911166 89.5270595,24.4729845 C107.491033,42.4378156 107.491033,71.5635421 89.52674,89.5280537 L89.52674,89.5280537 Z M89.52674,89.5280537" id="Shape"></path>
    <path d="M82.3636364,51.3636364 L62.6363636,51.3636364 L62.6363636,31.6363636 C62.6363636,28.5235253 60.1128384,26 57,26 C53.8871616,26 51.3636364,28.5235253 51.3636364,31.6363636 L51.3636364,51.3636364 L31.6363636,51.3636364 C28.5235253,51.3636364 26,53.8871616 26,57 C26,60.1128384 28.5235253,62.6363636 31.6363636,62.6363636 L51.3636364,62.6363636 L51.3636364,82.3636364 C51.3636364,85.4764747 53.8871616,88 57,88 C60.1128384,88 62.6363636,85.4764747 62.6363636,82.3636364 L62.6363636,62.6363636 L82.3636364,62.6363636 C85.4764747,62.6363636 88,60.1128384 88,57 C88,53.8871616 85.4764747,51.3636364 82.3636364,51.3636364 L82.3636364,51.3636364 Z M82.3636364,51.3636364" id="Shape"></path>
  </symbol>
  <symbol id="remove" viewBox="0 0 114 114">
    <path d="M16.6947584,16.69477 C-5.56507781,38.9546217 -5.56476114,75.0452595 16.6947584,97.3051112 C38.954278,119.564963 75.0455241,119.564963 97.3053603,97.3051112 C119.56488,75.0455762 119.56488,38.954305 97.3053603,16.69477 C75.0452074,-5.56508167 38.954278,-5.564765 16.6947584,16.69477 L16.6947584,16.69477 Z M88.6731885,88.6744879 C70.9044752,106.441521 42.0953668,106.442153 24.3266535,88.6744879 C6.55762418,70.9055587 6.55794015,42.0954683 24.3266535,24.326855 C42.0956828,6.55760969 70.9044752,6.55792567 88.6735045,24.326539 C106.442218,42.0961002 106.442218,70.9052427 88.6731885,88.6744879 L88.6731885,88.6744879 Z M88.6731885,88.6744879" id="Shape"></path>
    <path d="M83.2727273,62 L31.7272727,62 C28.5642273,62 26,59.5375278 26,56.5 C26,53.4624722 28.5642273,51 31.7272727,51 L83.2727273,51 C86.4357727,51 89,53.4624722 89,56.5 C89,59.5375278 86.4357727,62 83.2727273,62 L83.2727273,62 Z M83.2727273,62" id="Shape"></path>
  </symbol>
  <symbol id='open'   viewBox="0 0 100 100">
    <polygon points="91.875,62 85,62 85,85 15,85 15,15 38,15 38,8.125 38,0 0,0 0,100 100,100 100,62 "/>
    <polygon points="54,0 54,0.627 71.787,18.477 52.701,38 38,38 38,62 62,62 62,49.799 82.773,29.462 99.374,46 100,46 100,0 "/>
  </symbol>
  <symbol id="edit"   viewBox="0 0 16 16">
    <path d="M14.5,6h-0.2c-0.8,0-1-0.5-0.4-1.1l0.3-0.3c0.6-0.6,0.6-1.5,0-2.1l-0.7-0.7c-0.6-0.6-1.5-0.6-2.1,0L11,2.1
      C10.5,2.7,10,2.5,10,1.7V1.5C10,0.7,9.3,0,8.5,0h-1C6.7,0,6,0.7,6,1.5v0.2c0,0.8-0.5,1-1.1,0.4L4.7,1.8c-0.6-0.6-1.5-0.6-2.1,0
      L1.9,2.6c-0.6,0.6-0.6,1.5,0,2.1L2.1,5C2.7,5.5,2.5,6,1.7,6H1.5C0.7,6,0,6.7,0,7.5v1C0,9.3,0.7,10,1.5,10h0.2c0.8,0,1,0.5,0.4,1.1
      l-0.3,0.3c-0.6,0.6-0.6,1.5,0,2.1l0.7,0.7c0.6,0.6,1.5,0.6,2.1,0L5,13.9C5.5,13.3,6,13.5,6,14.3v0.2C6,15.3,6.7,16,7.5,16h1
      c0.8,0,1.5-0.7,1.5-1.5v-0.2c0-0.8,0.5-1,1.1-0.4l0.3,0.3c0.6,0.6,1.5,0.6,2.1,0l0.7-0.7c0.6-0.6,0.6-1.5,0-2.1L13.9,11
      c-0.6-0.6-0.4-1.1,0.4-1.1h0.2c0.8,0,1.5-0.7,1.5-1.5v-1C16,6.7,15.3,6,14.5,6z M8,11c-1.7,0-3-1.3-3-3s1.3-3,3-3s3,1.3,3,3
      S9.6,11,8,11z"/>
  </symbol>
  <g>
    <use xlink:href='#enter'  height='4em' y='0em'  x='-5em'/>
    <use xlink:href='#power'  height="4em" y='5em'  x='-5em' />
    <use xlink:href='#open'   height="4em" y='10em' x='-5em' />
    <use xlink:href='#check'  height="4em" y='15em' x='-5em'/>
    <use xlink:href='#toggle' height='4em' y='20em' x='-5em'/>
  </g>
  <g>
    <use xlink:href='#add'    height="4em" y='0'    x='5em'/>
    <use xlink:href='#remove' height="4em" y='5em'  x='5em'/>
    <use xlink:href='#delete' height='4em' y='10em' x='5em'/>
    <use xlink:href='#play'   height="4em" y='15em' x='5em'/>
    <use xlink:href='#edit'   height="4em" y='20em' x='5em'/>
  </g>
</svg>
