<svg xmlns="http://www.w3.org/2000/svg" xmlns:xlink="http://www.w3.org/1999/xlink">
  <symbol id='logo'      viewBox="0 0 72 24">
    <path d="M17.6,19.3c-1.9,0-3.2-0.5-4.1-1.5c-0.9-1-1.3-2.6-1.3-4.7s0.5-3.7,1.5-4.8c1-1.1,2.4-1.7,4.3-1.7
      c1.9,0,3.2,0.5,4.1,1.5c0.9,1,1.3,2.5,1.3,4.6s-0.5,3.7-1.5,4.9C20.9,18.7,19.5,19.3,17.6,19.3z M15.5,12.9c0,2.6,0.7,3.9,2.3,3.9
      c0.8,0,1.3-0.3,1.7-0.9c0.4-0.6,0.6-1.6,0.6-2.9c0-2.5-0.8-3.8-2.3-3.8c-0.8,0-1.3,0.3-1.7,0.8S15.5,11.5,15.5,12.9z"/>
    <path d="M23.7,6.8c0.9-0.2,1.6-0.3,2.3-0.3c0.7,0,1.3,0,1.7,0v1.2c1-0.8,2.2-1.2,3.4-1.2c1.6,0,2.7,0.5,3.4,1.4
      c0.7,0.9,1.1,2.5,1.1,4.7c0,1.2-0.2,2.2-0.5,3.1c-0.3,0.9-0.8,1.6-1.3,2.1c-1.1,1-2.4,1.5-3.8,1.5c-0.6,0-1.3-0.1-1.8-0.2v2.1
      c0.9,0.3,1.5,0.6,1.8,0.9L29.5,24h-5.9l-0.2-1.9c0.2-0.3,0.6-0.6,1.3-0.8V9.6c-0.5-0.2-1-0.5-1.3-0.8L23.7,6.8z M29.6,16.8
      c0.8,0,1.4-0.4,1.9-1.1c0.5-0.7,0.7-1.7,0.7-3c0-1.3-0.1-2.2-0.4-2.6c-0.3-0.5-0.7-0.7-1.4-0.7c-1,0-1.8,0.2-2.4,0.7v6.5
      C28.5,16.7,29,16.8,29.6,16.8z"/>
    <path d="M35.8,6.8c0.9-0.2,1.6-0.3,2.3-0.3s1.3,0,1.7,0v1.2c1-0.8,2.2-1.2,3.4-1.2c1.6,0,2.7,0.5,3.4,1.4
      c0.7,0.9,1.1,2.5,1.1,4.7c0,1.2-0.2,2.2-0.5,3.1c-0.3,0.9-0.8,1.6-1.3,2.1c-1.1,1-2.4,1.5-3.8,1.5c-0.6,0-1.3-0.1-1.8-0.2v2.1
      c0.9,0.3,1.5,0.6,1.8,0.9L41.6,24h-5.9l-0.2-1.9c0.2-0.3,0.6-0.6,1.3-0.8V9.6c-0.5-0.2-1-0.5-1.3-0.8L35.8,6.8z M41.7,16.8
      c0.8,0,1.4-0.4,1.9-1.1c0.5-0.7,0.7-1.7,0.7-3c0-1.3-0.1-2.2-0.4-2.6c-0.3-0.5-0.7-0.7-1.4-0.7c-1,0-1.8,0.2-2.4,0.7v6.5
      C40.6,16.7,41.1,16.8,41.7,16.8z"/>
    <path d="M54,19.3c-1.9,0-3.3-0.5-4.2-1.6c-0.9-1-1.4-2.6-1.4-4.6c0-1.2,0.2-2.3,0.5-3.1c0.3-0.9,0.8-1.5,1.3-2
      c1.1-0.9,2.4-1.4,3.8-1.4c1.5,0,2.6,0.4,3.3,1.2c0.8,0.8,1.2,2.2,1.2,4.2c0,1.2-0.6,1.8-1.7,1.8h-5.1c0.1,1,0.3,1.8,0.8,2.2
      c0.4,0.4,1.2,0.6,2.1,0.6c0.5,0,1-0.1,1.5-0.2c0.5-0.1,0.8-0.3,1.1-0.4l0.3-0.2l0.7,2c-0.1,0.1-0.2,0.3-0.4,0.4
      c-0.2,0.2-0.6,0.4-1.4,0.7C55.7,19.2,54.9,19.3,54,19.3z M55.4,11.6c0-0.2,0-0.5,0-0.8c0-0.3-0.1-0.7-0.4-1
      c-0.3-0.4-0.7-0.6-1.3-0.6c-0.6,0-1.1,0.2-1.4,0.6c-0.3,0.4-0.5,1.1-0.7,2L55.4,11.6z"/>
    <path d="M66.2,9.9c-1.2,0-2,0.2-2.5,0.7v5.6c1.3,0.2,2.1,0.6,2.6,1l-0.2,1.9h-6.7l-0.2-1.9c0.2-0.3,0.6-0.6,1.3-0.8V9.6
      c-0.5-0.2-1-0.5-1.3-0.8l0.2-1.9c0.9-0.2,1.6-0.3,2.3-0.3c0.7,0,1.3,0,1.7,0v1.5c0.4-0.4,0.8-0.8,1.4-1.1c0.6-0.3,1.1-0.4,1.5-0.4
      c0.5,0,0.8,0,0.9,0.1l-0.1,3.2C67,9.9,66.6,9.9,66.2,9.9z"/>
    <path d="M70,19.3c-1.3,0-2-0.6-2-1.9c0-1.2,0.7-1.9,2-1.9s2,0.6,2,1.9C72,18.7,71.3,19.3,70,19.3z"/>
    <path d="M5.4,2.5h3.3v-2c0,0-0.2-0.3-0.9-0.4C7.1-0.1,6.1,0,5.3,0.5L5.4,2.5z"/>
    <path d="M8.6,18.3H5.3v3c0,0,0.2,0.3,0.9,0.4c0.7,0.2,1.8,0.1,2.6-0.4L8.6,18.3z"/>
    <path d="M8.8,5.1C8.3,4.9,7.6,4.8,6.7,4.8C5.7,4.8,5,5.2,4.4,6c-0.6,0.9-0.9,2.3-0.9,4.5c0,2.1,0.3,3.6,0.8,4.5
      c0.6,0.9,1.4,1.3,2.5,1.3c1.7,0,3.2-0.3,4.5-0.8l0.8,2.2c-1.7,1-3.6,1.5-5.8,1.5c-2.2,0-3.8-0.7-4.8-2C0.5,16,0,13.8,0,10.8
      c0-3,0.6-5.2,1.8-6.7C3.1,2.7,4.8,2,7,2c1.8,0,3.5,0.5,5.1,1.5c0,0.1,0,0.3,0,0.6c0,0.3-0.1,0.8-0.2,1.4c-0.1,0.7-0.3,1.2-0.5,1.6
      H9.2C9,6.7,8.9,6,8.8,5.1z"/>
  </symbol>
  <symbol id='mark'      viewBox="-3.5 0 16 16">
    <path d="M3.6,2.3h3.1V0.5c0,0-0.2-0.2-0.8-0.4C5.2-0.1,4.2,0,3.5,0.4L3.6,2.3z"/>
    <path d="M6.6,12.7H3.5v2.8c0,0,0.2,0.2,0.8,0.4C4.9,16.1,6,16,6.7,15.6L6.6,12.7z"/>
    <path d="M5.2,4.3c-1.4,0-2,1.2-2,3.6c0,1.2,0.2,2.1,0.6,2.5c0.4,0.5,0.9,0.7,1.6,0.7c1.1,0,2.1-0.1,3-0.3L9,12.5
      c-0.5,0.3-1.1,0.6-1.9,0.8c-0.8,0.2-1.6,0.3-2.3,0.3C1.6,13.7,0,11.8,0,8c0-2.2,0.6-3.8,1.7-4.8c1-0.8,2.2-1.3,3.6-1.3
      c1.4,0,2.6,0.3,3.5,0.8c0,0.2,0,0.3,0,0.4c0,0.9-0.2,1.7-0.6,2.5H6.3C6.1,5.3,6,4.8,5.9,4.3C5.7,4.3,5.5,4.3,5.2,4.3z"/>
  </symbol>
  <symbol id='watermark' viewBox="0 0 72 72">
    <path fill="#2A2929" d="M72.2,36.1C72.2,56,56,72.2,36.1,72.2C16.2,72.2,0,56,0,36.1C0,16.2,16.2,0,36.1,0C56,0,72.2,16.2,72.2,36.1
      z M52,54.2l-2.7-7c-3.4,0.9-7.4,1.3-11.9,1.3c-2.8,0-5-0.9-6.5-2.9c-1.5-1.9-2.3-5.3-2.3-10.2c0-9.6,2.7-14.4,8.1-14.4
      c1.2,0,2.1,0.2,2.8,0.3c0.2,2.1,0.7,3.7,1.5,5.7H49c1.5-4,2.3-6.6,2.3-10c0-0.5,0.1-1.2,0-1.8c-2.4-1.4-5.3-2.4-8.3-2.9V5.9
      c0,0-0.7-1-3.4-1.6c-2.6-0.6-6.8-0.4-9.7,1.4l0.3,7.1c-2.8,0.8-5.3,2.2-7.6,4.1c-4.4,3.9-6.6,10.3-6.6,19.1
      c0,12.9,4.9,20.3,13.9,22.2v8c0,0,0.5,1,3.2,1.6c2.6,0.6,6.7,0.4,9.6-1.4l-0.3-8.5c0.6-0.1,1.2-0.2,1.9-0.4
      C47.6,56.6,50.1,55.5,52,54.2z"/>
  </symbol>

  <use xlink:href="#logo"      height="4em" y='0'/>
  <use xlink:href="#mark"      height="4em" y='5em'/>
  <use xlink:href="#watermark" height="4em" y='10em'/>
</svg>
