<svg xmlns="http://www.w3.org/2000/svg" xmlns:xlink="http://www.w3.org/1999/xlink">
  <symbol id='logo' viewBox="0 0 1539 512">
    <path d="M376.203013,411.1622 C335.590513,411.1622 307.803013,400.484236 288.565513,379.12831 C269.328013,357.772383 260.778013,323.6029 260.778013,278.755454 C260.778013,233.908008 271.465513,199.738525 292.840513,176.247006 C314.215513,152.755487 344.140513,139.941931 384.753013,139.941931 C425.365513,139.941931 453.153013,150.619894 472.390513,171.975821 C491.628013,193.331747 500.178013,225.365637 500.178013,270.213084 C500.178013,315.06053 489.490513,349.230012 468.115513,374.857124 C446.740513,398.348644 416.815513,411.1622 376.203013,411.1622 M331.315513,274.484269 C331.315513,330.009678 346.278013,357.772383 380.478013,357.772383 C397.578013,357.772383 408.265513,351.365605 416.815513,338.552049 C425.365513,325.738493 429.640513,304.382566 429.640513,276.619862 C429.640513,223.230045 412.540513,195.46734 380.478013,195.46734 C363.378013,195.46734 352.690513,201.874118 344.140513,212.552081 C335.590513,223.230045 331.315513,244.585971 331.315513,274.484269 Z M506.590513,144.213116 C525.828013,139.941931 540.790513,137.806338 555.753013,137.806338 L592.090513,137.806338 L592.090513,163.43345 C613.465513,146.348709 639.115513,137.806338 664.765513,137.806338 C698.965513,137.806338 722.478013,148.484301 737.440513,167.704635 C752.403013,186.924969 760.953013,221.094452 760.953013,268.077491 C760.953013,293.704603 756.678013,315.06053 750.265513,334.280864 C743.853013,353.501198 733.165513,368.450346 722.478013,379.12831 C698.965513,400.484236 671.178013,411.1622 641.253013,411.1622 C628.428013,411.1622 613.465513,409.026607 602.778013,406.891014 L602.778013,451.73846 C622.015513,458.145238 634.840513,464.552016 641.253013,470.958794 L630.565513,511.535055 L504.453013,511.535055 L500.178013,470.958794 C504.453013,464.552016 513.003013,458.145238 527.965513,453.874053 L527.965513,204.009711 C517.278013,199.738525 506.590513,193.331747 500.178013,186.924969 L506.590513,144.213116 Z M632.703013,357.772383 C649.803013,357.772383 662.628013,349.230012 673.315513,334.280864 C684.003013,319.331715 688.278013,297.975788 688.278013,270.213084 C688.278013,242.450379 686.140513,223.230045 679.728013,214.687674 C673.315513,204.009711 664.765513,199.738525 649.803013,199.738525 C628.428013,199.738525 611.328013,204.009711 598.503013,214.687674 L598.503013,353.501198 C609.190513,355.63679 619.878013,357.772383 632.703013,357.772383 Z M765.228013,144.213116 C784.465513,139.941931 799.428013,137.806338 814.390513,137.806338 L850.728013,137.806338 L850.728013,163.43345 C872.103013,146.348709 897.753013,137.806338 923.403013,137.806338 C957.603013,137.806338 981.115513,148.484301 996.078013,167.704635 C1011.04051,186.924969 1019.59051,221.094452 1019.59051,268.077491 C1019.59051,293.704603 1015.31551,315.06053 1008.90301,334.280864 C1002.49051,353.501198 991.803013,368.450346 981.115513,379.12831 C957.603013,400.484236 929.815513,411.1622 899.890513,411.1622 C887.065513,411.1622 872.103013,409.026607 861.415513,406.891014 L861.415513,451.73846 C880.653013,458.145238 893.478013,464.552016 899.890513,470.958794 L889.203013,511.535055 L763.090513,511.535055 L758.815513,470.958794 C763.090513,464.552016 771.640513,458.145238 786.603013,453.874053 L786.603013,204.009711 C775.915513,199.738525 765.228013,193.331747 758.815513,186.924969 L765.228013,144.213116 Z M891.340513,357.772383 C908.440513,357.772383 921.265513,349.230012 931.953013,334.280864 C942.640513,319.331715 946.915513,297.975788 946.915513,270.213084 C946.915513,242.450379 944.778013,223.230045 938.365513,214.687674 C931.953013,204.009711 923.403013,199.738525 908.440513,199.738525 C887.065513,199.738525 869.965513,204.009711 857.140513,214.687674 L857.140513,353.501198 C867.828013,355.63679 878.515513,357.772383 891.340513,357.772383 Z M1154.25301,411.1622 C1113.64051,411.1622 1083.71551,400.484236 1064.47801,376.992717 C1045.24051,355.63679 1034.55301,321.467308 1034.55301,278.755454 C1034.55301,253.128342 1038.82801,229.636823 1045.24051,212.552081 C1051.65301,193.331747 1062.34051,180.518191 1073.02801,169.840228 C1096.54051,150.619894 1124.32801,139.941931 1154.25301,139.941931 C1186.31551,139.941931 1209.82801,148.484301 1224.79051,165.569043 C1241.89051,182.653784 1250.44051,212.552081 1250.44051,255.263935 C1250.44051,280.891047 1237.61551,293.704603 1214.10301,293.704603 L1105.09051,293.704603 C1107.22801,315.06053 1111.50301,332.145271 1122.19051,340.687642 C1130.74051,349.230012 1147.84051,353.501198 1167.07801,353.501198 C1177.76551,353.501198 1188.45301,351.365605 1199.14051,349.230012 C1209.82801,347.09442 1216.24051,342.823234 1222.65301,340.687642 L1229.06551,336.416456 L1244.02801,379.12831 C1241.89051,381.263902 1239.75301,385.535088 1235.47801,387.67068 C1231.20301,391.941866 1222.65301,396.213051 1205.55301,402.619829 C1190.59051,409.026607 1173.49051,411.1622 1154.25301,411.1622 Z M1184.17801,246.721564 L1184.17801,229.636823 C1184.17801,223.230045 1182.04051,214.687674 1175.62801,208.280896 C1169.21551,199.738525 1160.66551,195.46734 1147.84051,195.46734 C1135.01551,195.46734 1124.32801,199.738525 1117.91551,208.280896 C1111.50301,216.823267 1107.22801,231.772415 1102.95301,250.992749 L1184.17801,246.721564 Z M1415.02801,210.416489 C1389.37801,210.416489 1372.27801,214.687674 1361.59051,225.365637 L1361.59051,344.958827 C1389.37801,349.230012 1406.47801,357.772383 1417.16551,366.314754 L1412.89051,406.891014 L1269.67801,406.891014 L1265.40301,366.314754 C1269.67801,359.907976 1278.22801,353.501198 1293.19051,349.230012 L1293.19051,204.009711 C1282.50301,199.738525 1271.81551,193.331747 1265.40301,186.924969 L1269.67801,146.348709 C1288.91551,142.077523 1303.87801,139.941931 1318.84051,139.941931 L1355.17801,139.941931 L1355.17801,171.975821 C1363.72801,163.43345 1372.27801,154.891079 1385.10301,148.484301 C1397.92801,142.077523 1408.61551,139.941931 1417.16551,139.941931 C1427.85301,139.941931 1434.26551,139.941931 1436.40301,142.077523 L1434.26551,210.416489 L1415.02801,210.416489 Z M1496.25301,411.1622 C1468.46551,411.1622 1453.50301,398.348644 1453.50301,370.585939 C1453.50301,344.958827 1468.46551,330.009678 1496.25301,330.009678 C1524.04051,330.009678 1539.00301,342.823234 1539.00301,370.585939 C1539.00301,398.348644 1524.04051,411.1622 1496.25301,411.1622 Z M258.640513,73.738558 L258.640513,86.5521141 C258.640513,92.9588921 256.503013,103.636855 254.365513,116.450411 C252.228013,131.39956 247.953013,142.077523 243.678013,150.619894 L196.653013,150.619894 C192.378013,142.077523 190.240513,127.128375 188.103013,107.908041 C177.415513,103.636855 162.453013,101.501263 143.215513,101.501263 C121.840513,101.501263 106.878013,110.043633 94.0530132,127.128375 C81.2280132,146.348709 74.8155132,176.247006 74.8155132,223.230045 C74.8155132,268.077491 81.2280132,300.111381 91.9155132,319.331715 C104.740513,338.552049 121.840513,347.09442 145.353013,347.09442 C181.690513,347.09442 213.753013,340.687642 241.540513,330.009678 L258.640513,376.992717 C235.882833,390.367642 211.448351,399.554301 184.811986,404.552693 L188.103013,453.874053 C171.003013,464.552016 147.490513,466.687609 132.528013,462.416424 C117.565513,460.280831 113.290513,453.874053 113.290513,453.874053 L113.290513,407.910492 C77.1306951,403.970777 50.0556951,389.681121 32.0655132,366.314754 C10.6905132,340.687642 0.00301318267,293.704603 0.00301318267,229.636823 C0.00301318267,165.569043 12.8280132,118.586004 38.4780132,86.5521141 C59.0334827,64.4352075 84.2676174,50.498659 115.045664,44.7424686 L113.290513,9.670778 C130.390513,-1.00718534 151.765513,-3.142778 166.728013,1.12840733 C181.690513,3.264 185.965513,9.670778 185.965513,9.670778 L185.965513,44.9956549 L258.640513,73.738558 Z"></path>
  </symbol>
  <symbol id='mark'      viewBox="0 0 288 512">
    <path d="M281.6,86.4 L281.6,99.2 C281.6,128 275.2,153.6 262.4,179.2 L201.6,179.2 C195.2,169.6 192,153.6 188.8,137.6 L166.4,137.6 C121.6,137.6 102.4,176 102.4,252.8 C102.4,291.2 108.8,320 121.6,332.8 C134.4,348.8 150.4,355.2 172.8,355.2 C208,355.2 240,352 268.8,345.6 L288,400 C272,409.6 252.8,419.2 227.2,425.6 C222.118472,426.870382 217.036945,428.01468 211.980445,429.032895 L214.4,499.2 C192,512 156.8,515.2 137.6,508.8 C118.4,502.4 112,496 112,496 L112,432.514841 C37.3333333,419.338202 0,359.835768 0,256 C0,185.6 19.2,134.4 54.4,102.4 C72.5354601,87.8916319 92.7265134,76.4666537 114.97316,69.290038 L112,12.8 C134.4,4.4408921e-16 166.4,-3.2 188.8,3.2 C208,9.6 214.4,16 214.4,16 L214.4,64.2304202 C240.249811,68.3533112 262.939939,76.0332996 281.6,86.4 Z" ></path>
  </symbol>
  <symbol id='watermark' viewBox="0 0 512 512">
    <path d="M512.421399,256.2107 C512.421399,397.445961 397.445961,512.421399 256.2107,512.421399 C114.975439,512.421399 0,397.445961 0,256.2107 C0,114.975439 114.975439,0 256.2107,0 C397.445961,0 512.421399,114.975439 512.421399,256.2107 L512.421399,256.2107 Z M369.056963,384.670912 L349.89439,334.990167 C325.763743,341.377691 297.374746,344.216591 265.437124,344.216591 C245.564826,344.216591 229.950877,337.829066 219.305003,323.634568 C208.659129,310.149794 202.98133,286.019147 202.98133,251.242625 C202.98133,183.109032 222.143903,149.042235 260.469049,149.042235 C268.985748,149.042235 275.373273,150.461685 280.341347,151.17141 C281.760797,166.075634 285.309422,177.431232 290.987221,191.625731 L347.765216,191.625731 C358.411089,163.236734 364.088889,144.783886 364.088889,120.653238 C364.088889,117.104613 364.798614,112.136539 364.088889,107.878189 C347.055491,97.9420403 326.473468,90.844791 305.18172,87.2961663 L305.18172,41.8737708 C305.18172,41.8737708 300.213645,34.7765216 281.051072,30.518172 C262.598224,26.2598224 232.789777,27.6792723 212.207754,40.454321 L214.336929,90.844791 C194.464631,96.5225904 176.721507,106.458739 160.397834,119.943513 C129.169937,147.622785 113.555989,193.045181 113.555989,255.500975 C113.555989,347.055491 148.33251,399.575135 212.207754,413.059909 L212.207754,469.837903 C212.207754,469.837903 215.756379,476.935153 234.918952,481.193502 C253.3718,485.451852 282.470522,484.032402 303.052545,471.257353 L300.92337,410.930734 C305.18172,410.221009 309.440069,409.511284 314.408144,408.091835 C337.829066,401.70431 355.57219,393.897336 369.056963,384.670912 L369.056963,384.670912 Z"></path>
  </symbol>

  <use xlink:href="#logo"      height="4em" y='0'/>
  <use xlink:href="#mark"      height="4em" y='5em'/>
  <use xlink:href="#watermark" height="4em" y='10em'/>
</svg>
