<svg xmlns="http://www.w3.org/2000/svg" xmlns:xlink="http://www.w3.org/1999/xlink">

  <symbol id='tablet'  viewBox="0 0 296.65 381.5">
    <path d="M276.291,2.5H20.36c-9.822,0-17.858,8.037-17.858,17.859v340.783c0,9.822,8.036,17.857,17.858,17.857h255.931   c9.822,0,17.858-8.035,17.858-17.857V20.359C294.149,10.537,286.113,2.5,276.291,2.5z M148.325,370.805   c-4.805,0-8.699-3.895-8.699-8.699s3.895-8.701,8.699-8.701s8.7,3.896,8.7,8.701S153.129,370.805,148.325,370.805z    M263.525,344.324H33.125V37.436h230.399V344.324z"/>
    <path d="M150.475,358.605h-4.3c-0.745,0-1.351,0.605-1.351,1.35v4.299c0,0.745,0.606,1.352,1.351,1.352h4.3   c0.744,0,1.35-0.606,1.35-1.352v-4.299C151.825,359.211,151.219,358.605,150.475,358.605z M150.825,364.254   c0,0.194-0.156,0.352-0.35,0.352h-4.3c-0.193,0-0.351-0.157-0.351-0.352v-4.299c0-0.192,0.157-0.35,0.351-0.35h4.3   c0.193,0,0.35,0.157,0.35,0.35V364.254z"/>
  </symbol>
  <symbol id='phone'   viewBox="0 0 113.07 210.85">
    <circle cx="37.785" cy="18.851" r="1.899"/>
    <path d="M48.585,20.75h15.899c1.048,0,1.9-0.853,1.9-1.9c0-1.047-0.853-1.898-1.9-1.898H48.585c-1.047,0-1.899,0.852-1.899,1.898   C46.686,19.897,47.538,20.75,48.585,20.75z"/>
    <path d="M98.569,2.5H14.501c-6.601,0-12,5.4-12,12v181.85c0,6.602,5.399,12,12,12h84.068c6.6,0,12-5.398,12-12V14.5   C110.569,7.9,105.169,2.5,98.569,2.5z M48.585,15.951h15.899c1.599,0,2.9,1.3,2.9,2.898c0,1.6-1.302,2.9-2.9,2.9H48.585   c-1.599,0-2.899-1.301-2.899-2.9C45.686,17.251,46.986,15.951,48.585,15.951z M37.785,15.951c1.599,0,2.9,1.3,2.9,2.898   c0,1.6-1.301,2.9-2.9,2.9s-2.9-1.301-2.9-2.9C34.885,17.251,36.186,15.951,37.785,15.951z M56.535,202.209   c-4.805,0-8.7-3.895-8.7-8.699s3.896-8.699,8.7-8.699s8.699,3.895,8.699,8.699S61.34,202.209,56.535,202.209z M104.535,177.051h-96   V33.092h96V177.051z"/>
    <path d="M58.685,190.01h-4.299c-0.745,0-1.351,0.606-1.351,1.352v4.299c0,0.744,0.606,1.35,1.351,1.35h4.299   c0.744,0,1.351-0.605,1.351-1.35v-4.299C60.035,190.616,59.429,190.01,58.685,190.01z M59.035,195.66   c0,0.192-0.157,0.35-0.351,0.35h-4.299c-0.193,0-0.351-0.157-0.351-0.35v-4.299c0-0.194,0.157-0.352,0.351-0.352h4.299   c0.193,0,0.351,0.157,0.351,0.352V195.66z"/>
    <path d="M48.585,16.951h15.899c1.048,0,1.9,0.852,1.9,1.898c0,1.048-0.853,1.9-1.9,1.9H48.585c-1.047,0-1.899-0.853-1.899-1.9   C46.686,17.803,47.538,16.951,48.585,16.951z"/>
    <path d="M37.785,16.951c1.048,0,1.9,0.852,1.9,1.898c0,1.048-0.853,1.9-1.9,1.9s-1.9-0.853-1.9-1.9   C35.885,17.803,36.737,16.951,37.785,16.951z"/>
  </symbol>
  <symbol id='laptop'  viewBox="0 0 509.6 297.2">
    <path d="M284.357,282.524h-59.115c-3.054,0-4.799-2.173-5.443-5.1H2.5v8.799c0.002,4.684,30.92,8.479,69.06,8.479h366.48   c38.14,0,69.058-3.795,69.06-8.479v-8.799H289.801C289.156,280.352,287.411,282.524,284.357,282.524z"/>
    <path d="M460.382,17.498c0-8.25-6.75-15-15-15H64.217c-8.25,0-15,6.75-15,15v258.927h411.165V17.498z M446.721,259.712H62.8V18.306   h383.921V259.712z"/>
  </symbol>
  <symbol id='monitor' viewBox="0 0 100 100">
    <path d="M84.779,88.954h-8.635h-8.271c-4.947,0-8.96-4.035-8.96-9.013l0.081-4.646H41.075l-0.082,4.646   c0,4.978-4.011,9.013-8.96,9.013H20.553h-5.425c-1.199,0-2.169,0.977-2.169,2.183s0.971,2.184,2.169,2.184h69.651   c1.196,0,2.168-0.978,2.168-2.184S85.976,88.954,84.779,88.954z"/>
    <path d="M93.621,6.07H6.285c-3.219,0-5.831,2.625-5.831,5.864v53.376c0,3.097,2.489,5.605,5.565,5.616h87.85   c3.082,0,5.584-2.514,5.584-5.617V11.935C99.453,8.696,96.843,6.07,93.621,6.07z M7.308,13.382H92.6v46.461H7.308V13.382z"/>
  </symbol>

  <use xlink:href="#phone"   height="4em" y='0'/>
  <use xlink:href="#tablet"  height="4em" y='5em' />
  <use xlink:href="#laptop"  height="4em" y='10em'/>
  <use xlink:href="#monitor" height="4em" y='15em'/>

</svg>
