<svg version="1.1" xmlns="http://www.w3.org/2000/svg"  width="1em" height="1em" viewBox="0 0 16 16"
   overflow="visible" enable-background="new 0 0 16 12" xml:space="preserve">
   <style>path{fill:white;}</style>
   <g id="gear">
     <path d="M14.5,6h-0.2c-0.8,0-1-0.5-0.4-1.1l0.3-0.3c0.6-0.6,0.6-1.5,0-2.1l-0.7-0.7c-0.6-0.6-1.5-0.6-2.1,0L11,2.1
       C10.5,2.7,10,2.5,10,1.7V1.5C10,0.7,9.3,0,8.5,0h-1C6.7,0,6,0.7,6,1.5v0.2c0,0.8-0.5,1-1.1,0.4L4.7,1.8c-0.6-0.6-1.5-0.6-2.1,0
       L1.9,2.6c-0.6,0.6-0.6,1.5,0,2.1L2.1,5C2.7,5.5,2.5,6,1.7,6H1.5C0.7,6,0,6.7,0,7.5v1C0,9.3,0.7,10,1.5,10h0.2c0.8,0,1,0.5,0.4,1.1
       l-0.3,0.3c-0.6,0.6-0.6,1.5,0,2.1l0.7,0.7c0.6,0.6,1.5,0.6,2.1,0L5,13.9C5.5,13.3,6,13.5,6,14.3v0.2C6,15.3,6.7,16,7.5,16h1
       c0.8,0,1.5-0.7,1.5-1.5v-0.2c0-0.8,0.5-1,1.1-0.4l0.3,0.3c0.6,0.6,1.5,0.6,2.1,0l0.7-0.7c0.6-0.6,0.6-1.5,0-2.1L13.9,11
       c-0.6-0.6-0.4-1.1,0.4-1.1h0.2c0.8,0,1.5-0.7,1.5-1.5v-1C16,6.7,15.3,6,14.5,6z M8,11c-1.7,0-3-1.3-3-3s1.3-3,3-3s3,1.3,3,3
       S9.6,11,8,11z"/>
   </g>
</svg>