<?xml version="1.0" encoding="UTF-8" standalone="no"?>
<svg width="104px" height="128px" viewBox="0 0 104 128" version="1.1" xmlns="http://www.w3.org/2000/svg" xmlns:xlink="http://www.w3.org/1999/xlink" xmlns:sketch="http://www.bohemiancoding.com/sketch/ns">
    <title>Untitled</title>
    <description>Created with Sketch (http://www.bohemiancoding.com/sketch)</description>
    <defs></defs>
    <g id="Page-1" stroke="none" stroke-width="1" fill="none" fill-rule="evenodd" sketch:type="MSPage">
        <path d="M25.7105328,55.3748981 C25.7105328,61.5221481 29.1889182,66.5048981 33.479245,66.5048981 C37.7695718,66.5048981 41.2474548,61.5221481 41.2474548,55.3748981 C41.2474548,49.2293981 37.7693206,44.2528981 33.479245,44.2483981 C29.188667,44.2483981 25.7105328,49.2293981 25.7105328,55.3748981 Z M67.3931255,55.3748981 C67.3931255,61.5221481 70.8707572,66.5048981 75.161084,66.5048981 C79.4516621,66.5048981 82.9292938,61.5221481 82.9292938,55.3748981 C82.929545,49.2293981 79.4519133,44.2528981 75.161084,44.2483981 C70.8707572,44.2483981 67.3931255,49.2293981 67.3931255,55.3748981 Z M92.5562767,0.177148083 C92.5562767,0.177148083 86.1381206,-1.85110192 71.6198938,7.81839808 C65.9310279,6.40439808 59.8801548,5.70514808 53.8187304,5.70514808 C47.149606,5.70514808 40.4106426,6.55089808 34.1248791,8.26614808 C19.1446596,-1.90460192 12.5310548,0.179148083 12.5310548,0.179148083 C8.213345,10.9223981 10.8823011,18.8768981 11.6942426,20.8526481 C6.62061329,26.3018981 3.52257427,33.2583981 3.52257427,41.7871481 C3.52257427,48.2263981 4.2594011,54.0021481 6.05913768,59.0228981 L7.95132305,63.2881481 C13.0081206,72.6698981 22.9802791,78.7296481 40.7196426,80.6323981 C38.2019206,82.3146481 35.6337035,85.1773981 34.5926499,90.0213981 C31.1609913,91.6546481 20.3005206,95.6411481 13.783384,84.4863981 C13.783384,84.4863981 10.1354255,77.8486481 3.15378402,77.3296481 C3.15378402,77.3296481 -3.61909402,77.2261481 2.68576207,81.5298981 C2.68576207,81.5298981 7.21776207,83.6551481 10.3449426,91.6406481 C10.3449426,91.6406481 14.4237426,105.263648 34.1077962,100.892648 L34.1077962,114.962648 C34.1077962,114.962648 33.6920279,119.939398 29.1070206,121.597648 C29.1070206,121.597648 26.398623,123.465898 29.3167889,124.499898 C29.3167889,124.499898 42.0257328,125.537148 42.0257328,115.170398 L42.0257328,99.8276481 C42.0257328,99.8276481 41.5215352,93.7431481 44.5258694,91.6271481 L44.5258694,116.828648 C44.5258694,116.828648 44.3181109,122.842648 41.1929401,125.122648 C41.1929401,125.122648 39.107567,128.853398 43.6918206,127.818898 C43.6918206,127.818898 52.4425499,126.574148 52.8595743,116.415148 L53.0577865,90.9116481 L55.1612474,90.9116481 L55.3612182,116.415148 C55.7777401,126.574148 64.5284694,127.818898 64.5284694,127.818898 C69.1107133,128.853398 67.0278523,125.122648 67.0278523,125.122648 C63.9024304,122.841398 63.6946718,116.828648 63.6946718,116.828648 L63.6946718,91.8448981 C66.6962426,94.1728981 66.1940548,99.8281481 66.1940548,99.8281481 L66.1940548,115.170398 C66.1940548,125.538148 78.9037523,124.499398 78.9037523,124.499398 C81.8191548,123.464648 79.112767,121.598398 79.112767,121.598398 C74.5282621,119.939898 74.1122426,114.962898 74.1122426,114.962898 L74.1122426,94.8523981 C74.1122426,87.0096481 70.793884,82.8551481 67.5476255,80.6636481 C86.4662133,78.7963981 95.5445328,72.7181481 99.7273377,63.2726481 L101.221089,59.0563981 C102.623647,54.0268981 103.045445,48.2386481 103.045445,41.7843981 C103.045696,32.5283981 99.5509816,25.1231481 93.8776913,19.4881481 C94.8690035,16.3033981 96.1944377,9.23089808 92.5562767,0.177148083 Z M16.3287401,54.2396481 C16.3287401,49.4918981 18.6786474,45.0833981 22.7024304,41.4248981 C29.4162718,35.3276481 40.7769206,38.5561481 53.6659889,38.5561481 C66.4977791,38.5541481 77.8202426,35.2928981 84.5423743,41.3481481 C88.6194157,45.0241481 91.0027352,49.4603981 91.0027352,54.2398981 C91.0032377,76.5571481 74.2868401,77.1606481 53.6667426,77.1606481 C33.0436304,77.1606481 16.3287401,74.0718981 16.3287401,54.2396481 Z" id="github" fill="#000000" sketch:type="MSShapeGroup"></path>
    </g>
</svg>