<?xml version="1.0" encoding="utf-8"?>
<svg version="1.1" xmlns="http://www.w3.org/2000/svg"
   x="0px" y="0px" width="1em" height="1em" viewBox="-3.5 0 16 16"
   overflow="visible" enable-background="new -3.5 0 16 16;" xml:space="preserve">
   <style>path{fill:white;}</style>
<path d="M3.6,2.3h3.1V0.5c0,0-0.2-0.2-0.8-0.4C5.2-0.1,4.2,0,3.5,0.4L3.6,2.3z"/>
<path d="M6.6,12.7H3.5v2.8c0,0,0.2,0.2,0.8,0.4C4.9,16.1,6,16,6.7,15.6L6.6,12.7z"/>
<path d="M5.2,4.3c-1.4,0-2,1.2-2,3.6c0,1.2,0.2,2.1,0.6,2.5c0.4,0.5,0.9,0.7,1.6,0.7c1.1,0,2.1-0.1,3-0.3L9,12.5
  c-0.5,0.3-1.1,0.6-1.9,0.8c-0.8,0.2-1.6,0.3-2.3,0.3C1.6,13.7,0,11.8,0,8c0-2.2,0.6-3.8,1.7-4.8c1-0.8,2.2-1.3,3.6-1.3
  c1.4,0,2.6,0.3,3.5,0.8c0,0.2,0,0.3,0,0.4c0,0.9-0.2,1.7-0.6,2.5H6.3C6.1,5.3,6,4.8,5.9,4.3C5.7,4.3,5.5,4.3,5.2,4.3z"/>
</svg>
