<?xml version="1.0" encoding="utf-8"?>
<!-- Generator: Adobe Illustrator 15.0.2, SVG Export Plug-In  -->
<!DOCTYPE svg PUBLIC "-//W3C//DTD SVG 1.1//EN" "http://www.w3.org/Graphics/SVG/1.1/DTD/svg11.dtd" [
	<!ENTITY ns_flows "http://ns.adobe.com/Flows/1.0/">
]>
<svg version="1.1"
	 xmlns="http://www.w3.org/2000/svg" xmlns:xlink="http://www.w3.org/1999/xlink" xmlns:a="http://ns.adobe.com/AdobeSVGViewerExtensions/3.0/"
	 x="0px" y="0px" width="16px" height="16px" viewBox="-3.55 0 16 16" overflow="visible" enable-background="new -3.55 0 16 16"
	 xml:space="preserve">
<defs>
</defs>
<path d="M3.658,2.298h3.238V0.465c0,0-0.161-0.248-0.84-0.392c-0.68-0.142-1.731-0.105-2.49,0.356L3.658,2.298z"/>
<path d="M6.804,12.709H3.566v2.833c0,0,0.16,0.249,0.839,0.392c0.68,0.142,1.731,0.106,2.491-0.356L6.804,12.709z"/>
<path d="M5.375,4.261c-1.397,0-2.095,1.199-2.095,3.598c0,1.215,0.194,2.062,0.581,2.539c0.387,0.479,0.945,0.717,1.673,0.717
	c1.154,0,2.171-0.105,3.052-0.319l0.684,1.754c-0.486,0.318-1.14,0.588-1.958,0.808c-0.82,0.22-1.617,0.33-2.391,0.33
	C1.639,13.688,0,11.791,0,7.995c0-2.216,0.569-3.81,1.708-4.782c1.017-0.849,2.255-1.275,3.712-1.275
	c1.458,0,2.673,0.272,3.644,0.82c0.016,0.152,0.023,0.295,0.023,0.432c0,0.867-0.197,1.685-0.592,2.459H6.49
	C6.277,5.27,6.148,4.814,6.103,4.283C5.921,4.269,5.679,4.261,5.375,4.261z"/>
</svg>
