<?xml version="1.0" encoding="utf-8"?>
<svg version="1.1" xmlns="http://www.w3.org/2000/svg" x="0px" y="0px" width="112px" height="36px" viewBox="0 0 112 36" style="overflow:visible;enable-background:new 0 0 112 36;" xml:space="preserve">
  <style type="text/css">
    path{fill:white;}
    g.¢{}
    path.o{}
    path.p{}
    path.e{}
    path.r{}
    path.period{}
  </style>
  <g class="¢">
    <path d="M8.343,3.68h5.187V0.746c0,0-0.256-0.399-1.345-0.627c-1.088-0.228-2.772-0.171-3.989,0.57L8.343,3.68z"/>
    <path d="M13.382,27.198H8.196v4.538c0,0,0.256,0.399,1.344,0.627c1.089,0.228,2.773,0.171,3.99-0.57L13.382,27.198z"/>
    <path d="M13.64,7.555c-0.729-0.315-1.824-0.474-3.282-0.474c-1.459,0-2.639,0.632-3.538,1.896
      c-0.9,1.265-1.35,3.478-1.35,6.638s0.432,5.404,1.295,6.729c0.862,1.325,2.145,1.988,3.847,1.988c2.602,0,4.936-0.389,7.002-1.167
      l1.312,3.246c-2.577,1.532-5.604,2.297-9.081,2.297c-3.478,0-5.987-0.984-7.532-2.954C0.771,23.784,0,20.562,0,16.088
      c0-4.474,0.953-7.78,2.863-9.92c1.908-2.139,4.589-3.209,8.042-3.209c2.771,0,5.409,0.766,7.914,2.298c0,0.146,0,0.425,0,0.839
      s-0.085,1.119-0.254,2.115c-0.17,0.998-0.414,1.812-0.729,2.443H14.37C14.029,9.998,13.786,8.965,13.64,7.555z"/>
  </g>
  <path class="o" d="M27.408,28.707c-2.882,0-5.016-0.765-6.401-2.297c-1.386-1.531-2.08-3.848-2.08-6.948s0.772-5.47,2.316-7.112
    c1.543-1.641,3.762-2.461,6.656-2.461c2.893,0,5.039,0.729,6.437,2.188c1.397,1.46,2.097,3.739,2.097,6.839
    s-0.784,5.507-2.352,7.221C32.514,27.851,30.289,28.707,27.408,28.707z M24.18,19.152c0,3.891,1.167,5.836,3.501,5.836
    c1.19,0,2.072-0.444,2.644-1.332c0.571-0.887,0.857-2.34,0.857-4.358c0-3.793-1.192-5.689-3.574-5.689
    c-1.167,0-2.031,0.419-2.59,1.258C24.459,15.706,24.18,17.134,24.18,19.152z"/>
  <path class="p" d="M36.798,10.18c1.337-0.292,2.541-0.437,3.611-0.437s1.957,0.024,2.662,0.072v1.787
    c1.629-1.142,3.367-1.714,5.216-1.714c2.431,0,4.194,0.693,5.288,2.079c1.095,1.386,1.642,3.696,1.642,6.929
    c0,1.727-0.255,3.246-0.766,4.56c-0.511,1.312-1.204,2.333-2.079,3.063c-1.678,1.458-3.671,2.188-5.98,2.188
    c-0.999,0-1.946-0.097-2.846-0.291v3.136c1.435,0.388,2.358,0.839,2.771,1.349l-0.364,2.808h-9.155l-0.365-2.808
    c0.316-0.438,0.985-0.851,2.006-1.239V14.229c-0.852-0.292-1.52-0.705-2.006-1.24L36.798,10.18z M46.026,24.988
    c1.215,0,2.176-0.541,2.881-1.623c0.705-1.082,1.057-2.577,1.057-4.486c0-1.908-0.195-3.215-0.583-3.92
    c-0.389-0.705-1.094-1.058-2.116-1.058c-1.557,0-2.796,0.365-3.72,1.094v9.702C44.299,24.891,45.126,24.988,46.026,24.988z"/>
  <path class="p" d="M55.618,10.18c1.337-0.292,2.541-0.437,3.61-0.437c1.069,0,1.957,0.024,2.663,0.072v1.787
    c1.628-1.142,3.367-1.714,5.216-1.714c2.431,0,4.194,0.693,5.288,2.079c1.094,1.386,1.641,3.696,1.641,6.929
    c0,1.727-0.255,3.246-0.766,4.56c-0.511,1.312-1.204,2.333-2.079,3.063c-1.677,1.458-3.672,2.188-5.98,2.188
    c-0.998,0-1.946-0.097-2.845-0.291v3.136c1.434,0.388,2.358,0.839,2.771,1.349l-0.365,2.808h-9.154l-0.365-2.808
    c0.316-0.438,0.984-0.851,2.005-1.239V14.229c-0.851-0.292-1.519-0.705-2.005-1.24L55.618,10.18z M64.845,24.988
    c1.216,0,2.176-0.541,2.881-1.623c0.705-1.082,1.058-2.577,1.058-4.486c0-1.908-0.195-3.215-0.584-3.92
    c-0.389-0.705-1.093-1.058-2.115-1.058c-1.557,0-2.797,0.365-3.72,1.094v9.702C63.118,24.891,63.944,24.988,64.845,24.988z"/>
  <path class="e" d="M83.955,28.707c-2.917,0-5.112-0.777-6.583-2.334c-1.471-1.555-2.206-3.817-2.206-6.783
    c0-1.799,0.255-3.349,0.766-4.649c0.511-1.301,1.203-2.304,2.079-3.009c1.702-1.361,3.684-2.042,5.944-2.042
    c2.262,0,3.994,0.578,5.198,1.732c1.204,1.155,1.806,3.228,1.806,6.219c0,1.75-0.864,2.625-2.59,2.625h-7.914
    c0.097,1.531,0.493,2.614,1.186,3.246c0.693,0.632,1.792,0.947,3.301,0.947c0.826,0,1.617-0.096,2.371-0.291
    c0.752-0.194,1.3-0.389,1.641-0.584l0.51-0.292l1.095,2.917c-0.146,0.171-0.359,0.383-0.638,0.639
    c-0.28,0.255-0.985,0.596-2.116,1.021C86.672,28.495,85.39,28.707,83.955,28.707z M86.253,17.22
    c0.049-0.341,0.073-0.754,0.073-1.241c0-0.486-0.195-1.003-0.583-1.549c-0.39-0.547-1.064-0.821-2.024-0.821
    c-0.96,0-1.696,0.292-2.207,0.875c-0.511,0.583-0.852,1.569-1.021,2.955L86.253,17.22z"/>
  <path class="r" d="M103.029,14.666c-1.848,0-3.124,0.353-3.83,1.058v8.352c1.97,0.365,3.319,0.876,4.049,1.532l-0.365,2.809
    h-10.43l-0.365-2.809c0.341-0.461,1.009-0.875,2.006-1.24V14.229c-0.852-0.292-1.52-0.705-2.006-1.24l0.365-2.809
    c1.337-0.292,2.541-0.437,3.611-0.437c1.069,0,1.957,0.024,2.662,0.072v2.298c0.559-0.657,1.276-1.197,2.151-1.623
    c0.875-0.425,1.672-0.638,2.39-0.638c0.716,0,1.208,0.061,1.477,0.183l-0.11,4.741C104.147,14.702,103.612,14.666,103.029,14.666z"
    />
  <path class="period" d="M108.955,28.78c-2.03,0-3.045-0.917-3.045-2.753c0-1.835,1.015-2.753,3.045-2.753
    c2.03,0,3.045,0.918,3.045,2.753C112,27.863,110.984,28.78,108.955,28.78z"/>
</svg>
