<?xml version="1.0" encoding="utf-8"?>
<svg version="1.1"
   xmlns="http://www.w3.org/2000/svg" xmlns:xlink="http://www.w3.org/1999/xlink"
   viewBox="0 0 72 20" overflow="visible" enable-background="new 0 0 72 20"
   xml:space="preserve">
<defs>
  <style>
    #copper_logo{
      opacity:.2;
    }
    #arrow_up,#arrow_down{
      opacity:.25;
    }
  </style>
</defs>
  <g id="copper_logo">
    <path fill="#231F20" d="M33.375,2.724h3.61V0.551c0,0-0.176-0.294-0.934-0.465c-0.76-0.167-1.934-0.124-2.779,0.423L33.375,2.724z"
      />
    <path fill="#231F20" d="M36.886,15.066h-3.613v3.364c0,0,0.181,0.294,0.937,0.462c0.76,0.167,1.931,0.129,2.778-0.423L36.886,15.066
      z"/>
    <path fill="#231F20" d="M35.29,5.052c-1.56,0-2.337,1.422-2.337,4.266c0,1.439,0.215,2.444,0.649,3.012
      c0.431,0.569,1.054,0.846,1.866,0.846c1.287,0,2.422-0.122,3.404-0.377l0.763,2.084c-0.543,0.374-1.271,0.692-2.185,0.955
      c-0.916,0.264-1.807,0.39-2.67,0.39c-3.656,0-5.484-2.25-5.484-6.749c0-2.626,0.634-4.517,1.903-5.669
      c1.135-1.009,2.516-1.512,4.14-1.512c1.628,0,2.982,0.323,4.062,0.972c0.021,0.181,0.031,0.351,0.031,0.512
      c0,1.027-0.221,1.998-0.664,2.917h-2.234c-0.239-0.449-0.382-0.991-0.434-1.618C35.899,5.061,35.628,5.052,35.29,5.052z"/>
  </g>
<path id="arrow_up" fill-rule="evenodd" clip-rule="evenodd" d="M14.44,10.981
  c1.739-0.076,4.052,0.251,5.832,0.645c1.933,0.428,4.893-0.716,5.376-0.215c0.096,0.098,0.189,0.25,0.259,0.394
  c0.123,0.262,0.097,0.851-0.063,1.24c-0.391,0.964-1.265,1.634-2.023,2.32c-0.657,0.603-1.414,1.188-1.905,1.94
  c-0.471,0.725-0.503,2.21-1.266,2.455c-0.263,0.116-0.317,0.166-0.633,0.129c-0.21-0.05-0.413-0.342-0.51-0.648
  c-0.076-1.481,0.278-2.322,0.889-3.358c-0.043,0-0.084,0-0.124,0C17.67,18.04,9.823,18.181,5.46,17.89
  C3.549,17.762,0.139,18.015,0,15.876c0.055-0.096-0.024-0.148,0.317-0.35c0.457-0.343,1.472-0.202,2.21-0.03
  c2.077,0.497,4.291,0.576,6.646,0.711c0.534,0.028,2.844,0.1,3.175,0.067c1.686-0.182,1.738-0.102,3.105-0.517
  c1.528-0.472,2.929-1.4,4.438-1.81c0-0.043,0-0.083,0-0.127c-2.095,0.055-6.756-0.137-6.523-1.774
  C13.586,11.107,13.644,11.089,14.44,10.981z"/>
<path id="arrow_down" fill-rule="evenodd" clip-rule="evenodd"  d="M48.391,0.768
  c0.327-0.334,0.785-0.115,0.898,0c0.189,0.193,0.265,0.287,0.304,0.428c0.176,0.263,0.002,0.738-0.161,0.999
  c-0.259,0.268-2.936,3.31-3.858,5.002c0.048,0,0.087,0,0.131,0c0.968-0.82,2.66-0.741,3.966-1.142
  c4.424-1.351,11.969-1.53,16.518-0.143c1.994,0.61,3.579,0.749,4.991,1.858c0.316,0.243,1.02,0.778,0.768,1.14
  c-0.467,0.487-0.879,0.338-1.321,0.285c-0.179,0-2.71-0.732-4.181-1.139C60.89,6.515,52.949,7.246,47.751,8.485
  c0,0.047,0,0.093,0,0.142c1.28,0.004,3.762,0.626,4.053,1.534c0.04,0.072,0.049,0.379,0.043,0.468c0,0.297-0.246,0.425-0.51,0.425
  c-1.51,0.019-2.848-0.373-4.097-0.712c-1.664-0.459-4.438-0.587-4.862-0.859c-0.266-0.114-0.614-0.917-0.258-1.285
  c1.191-1.768,2.697-2.89,3.841-4.571C46.668,2.582,48.312,0.768,48.391,0.768z"/>
</svg>
