<?xml version="1.0" encoding="UTF-8" standalone="no"?>
<svg viewBox="0 0 114 114" version="1.1" xmlns="http://www.w3.org/2000/svg" xmlns:xlink="http://www.w3.org/1999/xlink">
  <g id="5802" fill="rgba(41, 11, 5, 0.75)">
    <path d="M16.6947584,16.69477 C-5.56507781,38.9546217 -5.56476114,75.0452595 16.6947584,97.3051112 C38.954278,119.564963 75.0455241,119.564963 97.3053603,97.3051112 C119.56488,75.0455762 119.56488,38.954305 97.3053603,16.69477 C75.0452074,-5.56508167 38.954278,-5.564765 16.6947584,16.69477 L16.6947584,16.69477 Z M88.6731885,88.6744879 C70.9044752,106.441521 42.0953668,106.442153 24.3266535,88.6744879 C6.55762418,70.9055587 6.55794015,42.0954683 24.3266535,24.326855 C42.0956828,6.55760969 70.9044752,6.55792567 88.6735045,24.326539 C106.442218,42.0961002 106.442218,70.9052427 88.6731885,88.6744879 L88.6731885,88.6744879 Z M88.6731885,88.6744879" id="Shape"></path>
    <path d="M83.2727273,62 L31.7272727,62 C28.5642273,62 26,59.5375278 26,56.5 C26,53.4624722 28.5642273,51 31.7272727,51 L83.2727273,51 C86.4357727,51 89,53.4624722 89,56.5 C89,59.5375278 86.4357727,62 83.2727273,62 L83.2727273,62 Z M83.2727273,62" id="Shape"></path>
  </g>
</svg>