<svg xmlns="http://www.w3.org/2000/svg" xmlns:xlink="http://www.w3.org/1999/xlink">
  <symbol id="choir"      viewBox="0 0 64 64">
    <path transform="matrix(0.23783302,0,0,0.23783301,4.5023525,-78.64691)" d="m 71.653325,395.03466 a 16.162441,16.162441 0 1 1 -3.2e-5,-1.2e-4" />
    <path d="m 16.575771,20.591413 2.607577,0 c 1.873096,0 3.039776,0.834825 3.346914,2.226379 0,0 -1.984834,0.975025 -2.047585,3.665104 -0.06275,2.69008 2.115838,3.907474 2.115838,3.907474 0,0 -2.188403,0.120653 -2.857456,2.622373 -0.04165,3.805352 -0.09922,11.122936 -0.09922,11.122936 l -3.524556,-0.01207 c 0,0 0.0011,-7.406759 -0.03889,-11.110867 -0.534705,-2.453458 -2.866592,-2.622375 -2.866592,-2.622375 0,0 2.167788,-1.088164 2.066987,-3.858875 0.11368,-1.79274 -1.578624,-3.413606 -2.042718,-3.699464 0.253954,-1.40867 1.647883,-2.240618 3.339707,-2.240616 z" />
    <path d="m 71.653325,395.03466 a 16.162441,16.162441 0 1 1 -3.2e-5,-1.2e-4" transform="matrix(0.23783302,0,0,0.23783301,18.621012,-78.64691)" />
    <path transform="matrix(0.23783302,0,0,0.23783301,32.73967,-78.64691)" d="m 71.653325,395.03466 a 16.162441,16.162441 0 1 1 -3.2e-5,-1.2e-4" />
    <path d="m 71.653325,395.03466 a 16.162441,16.162441 0 1 1 -3.2e-5,-1.2e-4" transform="matrix(0.23783302,0,0,0.23783301,-2.5246001,-68.37675)" />
    <g transform="matrix(0.23783302,0,0,0.20702221,17.302052,-76.925581)">
      <path d="m 71.653325,395.03466 c 2.354883,8.61004 -2.715925,17.49887 -11.325967,19.85375 -8.610041,2.35489 -17.498869,-2.71592 -19.853752,-11.32596 -2.354884,-8.61005 2.715924,-17.49887 11.325966,-19.85376 8.609996,-2.35487 17.498785,2.71587 19.853721,11.32585" transform="matrix(1,0,0,1.1488285,-24,41.294272)" />
      <rect width="39.39595" height="113.72822" x="12.548238" y="520.65503" ry="14.216027"/>
      <rect ry="14.216027" y="520.65503" x="-47.698441" height="113.72822" width="39.39595" />
    </g>
    <g transform="matrix(0.23783302,0,0,0.20702221,31.488963,-76.925581)" id="g5453">
      <path transform="matrix(1,0,0,1.1488285,-24,41.294272)" d="m 71.653325,395.03466 a 16.162441,16.162441 0 1 1 -3.2e-5,-1.2e-4"/>
      <rect ry="14.216027" y="520.65503" x="12.548238" height="113.72822" width="39.39595" />
      <rect id="rect5972" width="39.39595" height="113.72822" x="73.03476" y="520.65503" ry="14.216027"/>
    </g>
    <path transform="matrix(0.23783302,0,0,0.23783301,40.034144,-68.37675)" d="m 71.653325,395.03466 a 16.162441,16.162441 0 1 1 -3.2e-5,-1.2e-4" />
    <path d="m 30.726199,20.591413 2.607577,0 c 1.873097,0 3.039777,0.834825 3.346914,2.226379 0,0 -1.984833,0.975025 -2.047584,3.665104 -0.06275,2.69008 2.115836,3.907474 2.115836,3.907474 0,0 -2.188401,0.120653 -2.857454,2.622373 -0.04165,3.805352 -0.09922,11.122936 -0.09922,11.122936 l -3.524556,-0.01207 c 0,0 0.0011,-7.406759 -0.03889,-11.110867 -0.534705,-2.453458 -2.866592,-2.622375 -2.866592,-2.622375 0,0 2.167787,-1.088164 2.066987,-3.858875 0.11368,-1.79274 -1.578625,-3.413606 -2.042718,-3.699464 0.253954,-1.40867 1.647883,-2.240618 3.339706,-2.240616 z" />
    <path d="m 44.97315,20.591413 2.607578,0 c 1.873096,0 3.039776,0.834825 3.346913,2.226379 0,0 -1.984833,0.975025 -2.047584,3.665104 -0.06275,2.69008 2.115837,3.907474 2.115837,3.907474 0,0 -2.188401,0.120653 -2.857456,2.622373 -0.04165,3.805352 -0.09922,11.122936 -0.09922,11.122936 l -3.524557,-0.01207 c 0,0 0.0011,-7.406759 -0.03889,-11.110867 -0.534702,-2.453458 -2.866591,-2.622375 -2.866591,-2.622375 0,0 2.167788,-1.088164 2.066986,-3.858875 0.113683,-1.79274 -1.578624,-3.413606 -2.042716,-3.699464 0.253954,-1.40867 1.647882,-2.240618 3.339705,-2.240616 z" />
  </symbol>
  <symbol id='handshake'  viewBox="0 0 100 64.844">
    <path d="M24.948,11.445c0,6.328-5.13,11.445-11.432,11.445c-6.341,0-11.458-5.117-11.458-11.445C2.057,5.13,7.174,0,13.516,0  C19.818,0,24.948,5.13,24.948,11.445z"/>
    <path d="M75.052,11.445c0,6.328,5.131,11.445,11.433,11.445c6.341,0,11.472-5.117,11.472-11.445C97.956,5.13,92.825,0,86.484,0  C80.183,0,75.052,5.13,75.052,11.445z"/>
    <path d="M43.672,50.781c-0.26-2.435,0.677-4.688,2.266-6.328c-9.688-1.849-13.659-6.575-17.109-10.847  c-1.68-2.096-3.281-4.088-5.404-5.495c-0.065-0.039-0.143-0.039-0.195-0.091c-1.81-1.498-4.102-2.448-6.627-2.448h-6.185  C4.688,25.573,0,30.248,0,35.977v28.867h27.018V46.185c3.945,3.451,9.519,6.732,18.086,8.164  C44.388,53.308,43.828,52.136,43.672,50.781z"/>
    <path d="M89.597,25.573h-6.198c-2.513,0-4.817,0.951-6.614,2.448c-0.065,0.052-0.144,0.052-0.195,0.091  c-2.123,1.406-3.725,3.386-5.417,5.495c-3.789,4.688-8.086,10.039-20.104,11.367c-2.721,0.312-4.674,2.761-4.375,5.482  c0.273,2.539,2.422,4.414,4.921,4.414c0.183,0,0.365-0.014,0.561-0.026c10.182-1.133,16.484-4.753,20.82-8.594v18.594H100V35.977  C100,30.248,95.312,25.573,89.597,25.573z"/>
  </symbol>
  <symbol id='helpdesk'   viewBox="0 0 114 114">
    <path d="M54.9296419,59.2880184 C52.7534652,61.3060474 35.3097345,78.1535852 35.3097345,78.1535852 L39.9662083,82.7256637 C39.9662083,82.7256637 55.4633318,68.4863665 57.790977,66.3328598 C58.3672674,65.8015515 59.3411627,64.7907699 61.1434015,64.7907699 L114,64.7907699 L114,57.5044248 L59.3068456,57.5044248 C57.7069593,57.5056028 56.1910907,58.1288004 54.9296419,59.2880184 L54.9296419,59.2880184 Z M54.9296419,59.2880184"></path>
    <path d="M86.2566372,19.1681416 C92.4569804,19.1681416 95.840708,14.8728957 95.840708,9.58170231 C95.840708,4.29169314 91.5465233,0 86.2566372,0 C80.9631992,0 76.6725664,4.29169314 76.6725664,9.58170231 C76.6725664,14.8728957 80.9631992,19.1681416 86.2566372,19.1681416 L86.2566372,19.1681416 Z M86.2566372,19.1681416" ></path>
    <path d="M71.6195562,36.4238513 L74.8152055,36.4238513 L70.1329613,53.4690265 L101.365578,53.4690265 L96.679803,36.4238513 L99.8754523,36.4238513 L104.734252,53.4690265 L112.99115,53.4690265 L106.355029,30.851459 C105.479315,27.7277228 101.579799,22.1946903 94.8306814,22.1946903 L76.6631501,22.1946903 C69.918741,22.1946903 66.023933,27.7277228 65.1399799,30.851459 L58.5132743,53.4690265 L66.768996,53.4690265 L71.6195562,36.4238513 L71.6195562,36.4238513 Z M71.6195562,36.4238513"></path>
    <path d="M44.9726108,50.5718883 L40.8699927,43.3431547 L36.4764596,35.6005781 C36.4764596,35.6005781 35.9780887,34.8872829 35.0528833,35.3098511 C34.2206754,35.6884723 34.596242,36.5753021 34.596242,36.5753021 L37.41478,41.658516 L39.1674241,44.8260874 L37.1453258,43.9651751 C33.5637319,42.4394221 31.5881323,41.7869768 30.7952695,41.4523028 C30.654581,41.3914529 29.9594847,41.0297345 29.6304169,40.3446106 C28.6920965,38.3613571 24.6836681,28.7718757 23.7835005,26.6522735 C23.0240214,24.8583305 21.1485729,22.3116527 17.2927558,21.409047 C12.9039917,20.382488 8.48184394,22.9990304 7.43621881,27.1604822 L1.44980633,51.0113593 C0.916859431,52.933763 0,58.1375497 0,60.3303971 C0,62.5232444 0.0381527982,106.917698 0.0381527982,106.917698 C0.0679596717,110.848146 3.07010798,114.015717 7.22399387,113.999941 C11.3731107,113.987546 14.2143019,110.791803 14.2011868,106.864736 C14.2011868,106.864736 14.19761,81.4948671 14.1928409,67.3979914 L20.576281,41.9255792 C21.3226451,43.6485306 22.2442736,45.7478496 22.5471114,46.2515509 C23.2672455,47.4403761 23.9754568,48.2584682 25.4264554,48.9041524 C25.4264554,48.9041524 33.785495,52.1731402 37.0177524,53.5681787 C38.9659297,54.2735859 41.0822177,53.6493118 42.3138377,52.182155 L42.7609408,51.3077205 L42.9147443,51.5860521 C42.9147443,51.5860521 43.8661797,53.1704012 45.2742564,53.2425195 C45.676053,52.0311572 44.9726108,50.5718883 44.9726108,50.5718883 L44.9726108,50.5718883 Z M44.9726108,50.5718883" ></path>
    <path d="M22.699115,19.1681416 C27.9922514,19.1681416 32.2831858,14.8772072 32.2831858,9.5840708 C32.2831858,4.29093439 27.9922514,0 22.699115,0 C17.4059786,0 13.1150442,4.29093439 13.1150442,9.5840708 C13.1150442,14.8772072 17.4059786,19.1681416 22.699115,19.1681416 Z M22.699115,19.1681416" id="Oval"></path>
    <path d="M35.7306591,72.6371681 L54.4778761,55.0895681 L52.0416292,52.460177 L33.2920354,70.0101674 L35.7306591,72.6371681 Z M35.7306591,72.6371681" ></path>
  </symbol>
  <symbol id='picture'    viewBox="0 0 90 90">
    <path d="M83.383,20.987l-9.503-0.056c-3.169-0.027-6.337-0.003-9.504-0.005c-3.169-0.005-6.336,0.013-9.505,0.04l-9.503,0.068   l-9.504,0.066l-9.504,0.115l-4.751,0.06l-4.752,0.089l-9.504,0.172l-0.589,0.01l0.042,0.569l0.466,6.433   c0.163,2.146,0.295,4.291,0.437,6.435l0.395,6.438c0.132,2.146,0.245,4.294,0.354,6.44c0.117,2.147,0.222,4.294,0.31,6.442   c0.1,2.147,0.185,4.296,0.256,6.445l0.464,12.894l0.026,0.705l0.733,0.012c2.926,0.051,5.854,0.132,8.781,0.156l4.39,0.046   l4.391,0.013c2.926,0.016,5.854-0.014,8.78-0.024l4.391-0.022l4.391-0.041c2.927-0.036,5.854-0.053,8.78-0.107   c2.927-0.053,5.854-0.085,8.78-0.157c2.928-0.059,5.854-0.128,8.782-0.222l4.39-0.131c1.463-0.036,2.926-0.108,4.39-0.16   l0.101-0.004l0.008-0.099c0.405-4.284,0.738-8.571,1.109-12.857l0.988-12.865c0.336-4.287,0.621-8.577,0.931-12.866l0.853-12.872   l0.076-1.153L83.383,20.987z M81.694,34.909c-0.173,4.298-0.37,8.593-0.519,12.892l-0.457,12.894   c-0.109,4.265-0.256,8.527-0.334,12.795c-1.428-0.054-2.856-0.122-4.284-0.157l-4.39-0.13c-2.928-0.096-5.854-0.164-8.782-0.224   c-2.927-0.072-5.854-0.104-8.78-0.157c-2.927-0.055-5.854-0.069-8.78-0.106l-4.391-0.042l-4.391-0.021   c-2.927-0.013-5.854-0.04-8.78-0.024l-4.391,0.011l-4.39,0.047c-2.693,0.022-5.386,0.092-8.079,0.143l-0.926-12.134   c-0.17-2.145-0.326-4.288-0.467-6.434c-0.153-2.145-0.289-4.29-0.414-6.437c-0.131-2.146-0.261-4.291-0.369-6.439l-0.329-6.441   c-0.1-2.148-0.208-4.295-0.287-6.444l-0.233-5.855l8.934,0.161l4.752,0.09l4.751,0.059l9.504,0.114l9.504,0.068l9.503,0.067   c3.169,0.026,6.336,0.046,9.505,0.041c3.167-0.002,6.335,0.02,9.504-0.006l8.353-0.048L81.694,34.909z"/>
    <path d="M58.763,64.027c-0.034-0.124-0.074-0.259-0.114-0.398c-0.048-0.136-0.113-0.27-0.176-0.416   c-0.13-0.286-0.28-0.596-0.449-0.918c-0.164-0.329-0.407-0.622-0.639-0.946c-0.238-0.315-0.481-0.653-0.793-0.929   c-0.296-0.295-0.609-0.581-0.928-0.861c-0.348-0.243-0.694-0.488-1.047-0.711c-0.339-0.243-0.727-0.397-1.086-0.564   c-0.183-0.078-0.358-0.161-0.536-0.229c-0.173-0.075-0.35-0.139-0.535-0.182c-0.361-0.098-0.701-0.177-1.014-0.24   c-0.157-0.026-0.305-0.066-0.445-0.075c-0.141-0.006-0.272-0.015-0.398-0.018c-0.251-0.008-0.475,0-0.658,0.003   c-0.366,0.009-0.584,0.038-0.584,0.038s0.16,0.15,0.453,0.372c0.147,0.109,0.324,0.245,0.533,0.384   c0.211,0.139,0.451,0.289,0.673,0.478c0.231,0.176,0.479,0.356,0.741,0.534c0.268,0.157,0.527,0.409,0.813,0.604   c0.277,0.214,0.586,0.396,0.86,0.639c0.281,0.233,0.578,0.45,0.874,0.669c0.281,0.235,0.555,0.482,0.845,0.705   c0.295,0.216,0.551,0.466,0.815,0.694c0.257,0.237,0.55,0.432,0.776,0.662c0.237,0.223,0.472,0.429,0.698,0.62   c0.114,0.094,0.224,0.185,0.328,0.271c0.099,0.093,0.191,0.181,0.279,0.264c0.179,0.164,0.35,0.302,0.488,0.42   c0.281,0.232,0.466,0.36,0.466,0.36s-0.016-0.214-0.09-0.576C58.876,64.5,58.832,64.276,58.763,64.027z"/>
    <path d="M53.66,39.086c0.529,1.083,0.888,2.267,1.003,3.488c0.021,0.152,0.023,0.306,0.036,0.459   c0.004,0.069,0.013,0.17,0.012,0.215l0.001,0.243c-0.001,0.16,0.005,0.329-0.002,0.481l-0.027,0.449   c-0.044,0.607-0.131,1.229-0.292,1.829c-0.146,0.606-0.359,1.197-0.623,1.769c-0.253,0.574-0.571,1.124-0.926,1.651   c-0.721,1.046-1.624,1.982-2.678,2.749c1.146-0.613,2.21-1.429,3.075-2.442c0.873-1.004,1.569-2.182,2.014-3.461   c0.237-0.639,0.395-1.296,0.51-1.977l0.069-0.521c0.019-0.171,0.024-0.327,0.038-0.491l0.017-0.242   c0.008-0.118,0.004-0.18,0.007-0.273c-0.001-0.17,0.009-0.342-0.002-0.514c-0.031-1.373-0.321-2.75-0.854-4.034   c-1.072-2.562-3.105-4.755-5.672-5.956c-1.282-0.608-2.648-0.985-4.098-1.097c-1.378-0.113-2.845,0.015-4.204,0.429   c-2.734,0.806-5.17,2.625-6.675,5.06c-0.752,1.216-1.283,2.567-1.558,3.966c-0.066,0.352-0.12,0.704-0.157,1.058   c-0.034,0.362-0.059,0.756-0.06,1.058c-0.015,0.73,0.048,1.449,0.189,2.16c0.284,1.425,0.899,2.758,1.689,3.918   c0.793,1.164,1.752,2.17,2.776,3.058c0.517,0.442,1.047,0.849,1.597,1.246l0.401,0.285l0.357,0.267   c0.233,0.181,0.46,0.371,0.665,0.575c0.417,0.401,0.769,0.852,1.009,1.335c0.128,0.24,0.209,0.492,0.271,0.741   c0.024,0.099,0.037,0.197,0.048,0.295l-0.337,0.093l-0.878,0.299l-0.857,0.349l-0.833,0.397l-0.807,0.444l-0.774,0.498   l-0.741,0.538l-0.708,0.58l-0.671,0.618l-0.63,0.655l-0.585,0.694l-0.542,0.724l-0.498,0.752l-0.445,0.781l-0.396,0.806   l-0.346,0.819l0.454-0.765l0.494-0.732l0.533-0.703l0.565-0.671l0.6-0.638l0.634-0.598l0.662-0.565l0.689-0.525l0.716-0.482   l0.742-0.439l0.763-0.395l0.779-0.355l0.796-0.311l0.812-0.263l0.823-0.215l0.832-0.165l0.442-0.088l0.1-0.433   c0.039-0.172,0.046-0.251,0.058-0.367c0.009-0.104,0.014-0.21,0.011-0.312c0-0.204-0.019-0.401-0.051-0.596   c-0.066-0.387-0.176-0.761-0.333-1.106c-0.303-0.696-0.739-1.303-1.229-1.828c-0.243-0.267-0.504-0.509-0.771-0.739l-0.407-0.337   l-0.377-0.3c-0.482-0.391-0.964-0.802-1.411-1.229c-0.909-0.843-1.725-1.764-2.363-2.771c-0.637-1.006-1.087-2.098-1.281-3.231   c-0.106-0.562-0.149-1.146-0.131-1.714c0.005-0.347,0.031-0.603,0.059-0.886c0.034-0.291,0.081-0.58,0.139-0.866   c0.238-1.146,0.684-2.247,1.31-3.233c0.627-0.985,1.411-1.876,2.342-2.588c0.926-0.717,1.981-1.265,3.101-1.608   c0.56-0.174,1.136-0.294,1.718-0.364c0.292-0.035,0.585-0.064,0.879-0.072l0.196-0.009l0.243,0.001   c0.162,0.003,0.332,0.001,0.462,0.014c1.143,0.05,2.335,0.328,3.413,0.802c1.083,0.478,2.093,1.139,2.964,1.96   C52.413,37.011,53.134,37.999,53.66,39.086z"/>
  </symbol>
  <symbol id="silhouette" viewBox="0 0 16 16">
    <path d="M14,12.5c-1-0.4-2.4-1.5-4.5-1.9c0.5-0.6,1-1.5,1.4-2.6c0.2-0.6,0.2-1.2,0.2-1.9c0-0.6,0.1-1.5,0-1.9
         C10.6,2.5,9.4,2,8,2C6.6,2,5.4,2.5,5,4.2c-0.1,0.5,0,1.4,0,1.9c0,0.8,0,1.3,0.2,1.9c0.4,1.1,0.8,2,1.4,2.6C4.4,11,3,12,2,12.5
         c-2,0.9-2,1.9-2,1.9V16l16,0v-1.6C16,14.3,16,13.4,14,12.5z"/>
  </symbol>

  <use xlink:href='#choir'      height="4em" y='0'/>
  <use xlink:href='#handshake'  height="4em" y='5em'/>
  <use xlink:href='#helpdesk'   height="4em" y='10em'/>
  <use xlink:href='#picture'    height="4em" y='15em'/>
  <use xlink:href='#silhouette' height="4em" y='20em'/>
</svg>
