<svg xmlns="http://www.w3.org/2000/svg" viewBox="0 0 113.07 210.85">
	<circle cx="37.785" cy="18.851" r="1.899"/>
	<path d="M48.585,20.75h15.899c1.048,0,1.9-0.853,1.9-1.9c0-1.047-0.853-1.898-1.9-1.898H48.585c-1.047,0-1.899,0.852-1.899,1.898   C46.686,19.897,47.538,20.75,48.585,20.75z"/>
	<path d="M98.569,2.5H14.501c-6.601,0-12,5.4-12,12v181.85c0,6.602,5.399,12,12,12h84.068c6.6,0,12-5.398,12-12V14.5   C110.569,7.9,105.169,2.5,98.569,2.5z M48.585,15.951h15.899c1.599,0,2.9,1.3,2.9,2.898c0,1.6-1.302,2.9-2.9,2.9H48.585   c-1.599,0-2.899-1.301-2.899-2.9C45.686,17.251,46.986,15.951,48.585,15.951z M37.785,15.951c1.599,0,2.9,1.3,2.9,2.898   c0,1.6-1.301,2.9-2.9,2.9s-2.9-1.301-2.9-2.9C34.885,17.251,36.186,15.951,37.785,15.951z M56.535,202.209   c-4.805,0-8.7-3.895-8.7-8.699s3.896-8.699,8.7-8.699s8.699,3.895,8.699,8.699S61.34,202.209,56.535,202.209z M104.535,177.051h-96   V33.092h96V177.051z"/>
	<path d="M58.685,190.01h-4.299c-0.745,0-1.351,0.606-1.351,1.352v4.299c0,0.744,0.606,1.35,1.351,1.35h4.299   c0.744,0,1.351-0.605,1.351-1.35v-4.299C60.035,190.616,59.429,190.01,58.685,190.01z M59.035,195.66   c0,0.192-0.157,0.35-0.351,0.35h-4.299c-0.193,0-0.351-0.157-0.351-0.35v-4.299c0-0.194,0.157-0.352,0.351-0.352h4.299   c0.193,0,0.351,0.157,0.351,0.352V195.66z"/>
	<path d="M48.585,16.951h15.899c1.048,0,1.9,0.852,1.9,1.898c0,1.048-0.853,1.9-1.9,1.9H48.585c-1.047,0-1.899-0.853-1.899-1.9   C46.686,17.803,47.538,16.951,48.585,16.951z"/>
	<path d="M37.785,16.951c1.048,0,1.9,0.852,1.9,1.898c0,1.048-0.853,1.9-1.9,1.9s-1.9-0.853-1.9-1.9   C35.885,17.803,36.737,16.951,37.785,16.951z"/>
</svg>
