<svg xmlns="http://www.w3.org/2000/svg" xmlns:xlink="http://www.w3.org/1999/xlink">

  <symbol id="twitter" viewBox="0 0 154 128">
    <path d="M140.348393,2.0002713 C138.60742,2.0002713 136.866446,2.45172142 135.303766,3.37893052 C132.19938,5.1882037 128.951661,6.63978947 125.560608,7.66423397 C119.079154,2.73995496 111.042011,5.68434189e-14 102.781128,5.68434189e-14 C83.84717,5.68434189e-14 68.1609315,14.0296807 65.6893089,32.1710301 C50.5938826,28.9622616 36.8408934,20.7007244 26.9334274,8.62964269 C25.0456252,6.316829 22.2139217,4.99720557 19.2563649,4.99720557 C19.0081538,4.99720557 18.7459591,5.01456903 18.4802684,5.0319325 C15.2360452,5.28543911 12.3379191,7.10165767 10.6983279,9.88675764 C7.3702024,15.5507203 5.6187414,22.0099297 5.6187414,28.5906834 C5.6187414,33.0357308 6.41231754,37.3592338 7.8806082,41.3979761 C6.30044778,43.1829404 5.38451409,45.4957541 5.38451409,47.9405301 C5.38451409,57.6918527 9.09020003,66.6583467 15.2640126,73.3953716 C14.8829563,75.0761551 14.9423871,76.854174 15.49824,78.5557937 C17.6342533,85.2025286 21.5427032,90.9220543 26.5978181,95.2872297 C23.3151397,96.0269134 19.9170957,96.4054369 16.4701085,96.4054369 C14.6836882,96.4054369 12.8762924,96.2908381 11.0549128,96.0859492 C10.6703604,96.0373315 10.2858081,96.0130226 9.89426396,96.0130226 C5.74809082,96.0130226 1.99346186,98.589761 0.584602012,102.559049 C-0.978078758,106.865189 0.675496195,111.681814 4.54898678,114.157845 C18.7809184,123.211156 35.2257737,128 52.1006285,128 C106.829415,128 139.719125,84.2440652 140.309938,41.5334111 C144.763753,37.7655389 148.679194,33.4281451 152.000328,28.5872107 C153.255367,26.9411541 154,24.8957378 154,22.6558507 C154,19.3602648 152.363905,16.4362571 149.857323,14.6408747 C151.000492,10.800076 149.693014,6.64673485 146.525701,4.14639572 C144.728793,2.7191188 142.554325,2.0002713 140.348393,2.0002713 Z M52.1006285,118.137551 C36.561219,118.137551 22.0915642,113.612632 9.90475175,105.854635 C12.0477569,106.090778 14.2501929,106.240104 16.4701085,106.240104 C29.3665948,106.240104 41.2317817,101.864511 50.6568093,94.5267099 C38.5993463,94.3148756 28.4436692,86.4006077 24.9372513,75.541496 C26.6187937,75.8609837 28.3457832,76.0380911 30.1042361,76.0380911 C32.6213058,76.0380911 35.0544731,75.6977672 37.3582911,75.0761551 C24.7659507,72.5515071 15.2745004,61.515288 15.2745004,48.2565452 L15.2745004,47.9162213 C18.9871782,49.9581649 23.2347333,51.1874983 27.7444832,51.326406 C20.3610788,46.4229632 15.5087278,38.0468271 15.5087278,28.5663746 C15.5087278,23.5587509 16.8651486,18.8671424 19.2353893,14.8284001 C32.7995982,31.368838 53.0864808,42.2487859 75.9638476,43.3878293 C75.4884011,41.3945034 75.2576697,39.2969967 75.2576697,37.1543449 C75.2576697,22.0689655 87.5773275,9.82772186 102.77064,9.82772186 C110.692418,9.82772186 117.848586,13.1476166 122.868742,18.4504192 C129.129953,17.2315038 135.027587,14.9568898 140.344897,11.8210478 C138.285794,18.2003853 133.919377,23.5587509 128.245483,26.9411541 C133.807508,26.2882878 139.103842,24.8193386 144.047087,22.6350145 C140.365872,28.1461787 135.705798,32.9593315 130.322065,36.814021 C130.384992,37.9843186 130.409463,39.1650343 130.409463,40.3492227 C130.409463,76.4791231 102.725193,118.137551 52.1006285,118.137551 Z"></path>
  </symbol>

  <symbol id='google' viewBox="0 0 128 128">
    <path d="M66.6398072,73.0217412 L60.5453373,68.3640471 C58.6893012,66.8491294 56.1508313,64.8493176 56.1508313,61.1885176 C56.1508313,57.5126588 58.6893012,55.1755294 60.8926747,53.0115765 C67.9924337,47.5120941 75.0860723,41.6587294 75.0860723,29.3240471 C75.0860723,16.64 66.9764337,9.96743529 63.0899277,6.80207059 L73.5697229,6.80207059 L84.569759,0 L51.2452651,0 C42.1012651,0 28.9238675,2.12931765 19.2764578,9.96743529 C12.0053253,16.1415529 8.45850602,24.6543059 8.45850602,32.3177412 C8.45850602,45.3270588 18.6077952,58.5140706 36.5300964,58.5140706 C38.2224096,58.5140706 40.0738554,58.3499294 41.9375422,58.1797647 C41.1005663,60.1840941 40.2544096,61.8526118 40.2544096,64.6851765 C40.2544096,69.8518588 42.952012,73.0202353 45.3298193,76.0214588 C37.7144096,76.5364706 23.4980602,77.3662118 13.0182651,83.7059765 C3.03728916,89.5472941 0,98.0495059 0,104.050447 C0,116.401694 11.8293614,127.906635 36.3587229,127.906635 C65.4463133,127.906635 80.8454458,112.066259 80.8454458,96.3855059 C80.8469759,84.864 74.0838434,79.1928471 66.6398072,73.0217412 L66.6398072,73.0217412 Z M44.4851928,53.8398118 C29.933747,53.8398118 23.341988,35.3264941 23.341988,24.1558588 C23.341988,19.8068706 24.1789639,15.3163294 27.0571205,11.8091294 C29.7700241,8.46908235 34.4950361,6.30211765 38.9063735,6.30211765 C52.9345181,6.30211765 60.210241,24.9810824 60.210241,36.9950118 C60.210241,40.0007529 59.8736145,45.3270588 55.9840482,49.1776 C53.263494,51.8490353 48.7113855,53.8398118 44.4851928,53.8398118 L44.4851928,53.8398118 Z M44.6519759,120.916329 C26.5567711,120.916329 14.8880723,112.397553 14.8880723,100.552282 C14.8880723,88.7100235 25.7075542,84.7043765 29.4303373,83.3776941 C36.5300964,81.0270118 45.6664458,80.6987294 47.1904458,80.6987294 C48.8812289,80.6987294 49.7273855,80.6987294 51.0738916,80.8658824 C63.9376145,89.8755765 69.5210241,94.3661176 69.5210241,102.895435 C69.5210241,113.224282 60.8926747,120.916329 44.6519759,120.916329 Z M109.35159,53.5853176 L109.35159,36.9076706 L100.981831,36.9076706 L100.981831,53.5853176 L84.0632892,53.5853176 L84.0632892,61.9143529 L100.981831,61.9143529 L100.981831,78.6944 L109.35159,78.6944 L109.35159,61.9143529 L126.355819,61.9143529 L126.355819,53.5853176 L109.35159,53.5853176 Z"></path>
  </symbol>

  <symbol id="github" viewBox="0 0 104 128">
    <path d="M25.7105328,55.3748981 C25.7105328,61.5221481 29.1889182,66.5048981 33.479245,66.5048981 C37.7695718,66.5048981 41.2474548,61.5221481 41.2474548,55.3748981 C41.2474548,49.2293981 37.7693206,44.2528981 33.479245,44.2483981 C29.188667,44.2483981 25.7105328,49.2293981 25.7105328,55.3748981 Z M67.3931255,55.3748981 C67.3931255,61.5221481 70.8707572,66.5048981 75.161084,66.5048981 C79.4516621,66.5048981 82.9292938,61.5221481 82.9292938,55.3748981 C82.929545,49.2293981 79.4519133,44.2528981 75.161084,44.2483981 C70.8707572,44.2483981 67.3931255,49.2293981 67.3931255,55.3748981 Z M92.5562767,0.177148083 C92.5562767,0.177148083 86.1381206,-1.85110192 71.6198938,7.81839808 C65.9310279,6.40439808 59.8801548,5.70514808 53.8187304,5.70514808 C47.149606,5.70514808 40.4106426,6.55089808 34.1248791,8.26614808 C19.1446596,-1.90460192 12.5310548,0.179148083 12.5310548,0.179148083 C8.213345,10.9223981 10.8823011,18.8768981 11.6942426,20.8526481 C6.62061329,26.3018981 3.52257427,33.2583981 3.52257427,41.7871481 C3.52257427,48.2263981 4.2594011,54.0021481 6.05913768,59.0228981 L7.95132305,63.2881481 C13.0081206,72.6698981 22.9802791,78.7296481 40.7196426,80.6323981 C38.2019206,82.3146481 35.6337035,85.1773981 34.5926499,90.0213981 C31.1609913,91.6546481 20.3005206,95.6411481 13.783384,84.4863981 C13.783384,84.4863981 10.1354255,77.8486481 3.15378402,77.3296481 C3.15378402,77.3296481 -3.61909402,77.2261481 2.68576207,81.5298981 C2.68576207,81.5298981 7.21776207,83.6551481 10.3449426,91.6406481 C10.3449426,91.6406481 14.4237426,105.263648 34.1077962,100.892648 L34.1077962,114.962648 C34.1077962,114.962648 33.6920279,119.939398 29.1070206,121.597648 C29.1070206,121.597648 26.398623,123.465898 29.3167889,124.499898 C29.3167889,124.499898 42.0257328,125.537148 42.0257328,115.170398 L42.0257328,99.8276481 C42.0257328,99.8276481 41.5215352,93.7431481 44.5258694,91.6271481 L44.5258694,116.828648 C44.5258694,116.828648 44.3181109,122.842648 41.1929401,125.122648 C41.1929401,125.122648 39.107567,128.853398 43.6918206,127.818898 C43.6918206,127.818898 52.4425499,126.574148 52.8595743,116.415148 L53.0577865,90.9116481 L55.1612474,90.9116481 L55.3612182,116.415148 C55.7777401,126.574148 64.5284694,127.818898 64.5284694,127.818898 C69.1107133,128.853398 67.0278523,125.122648 67.0278523,125.122648 C63.9024304,122.841398 63.6946718,116.828648 63.6946718,116.828648 L63.6946718,91.8448981 C66.6962426,94.1728981 66.1940548,99.8281481 66.1940548,99.8281481 L66.1940548,115.170398 C66.1940548,125.538148 78.9037523,124.499398 78.9037523,124.499398 C81.8191548,123.464648 79.112767,121.598398 79.112767,121.598398 C74.5282621,119.939898 74.1122426,114.962898 74.1122426,114.962898 L74.1122426,94.8523981 C74.1122426,87.0096481 70.793884,82.8551481 67.5476255,80.6636481 C86.4662133,78.7963981 95.5445328,72.7181481 99.7273377,63.2726481 L101.221089,59.0563981 C102.623647,54.0268981 103.045445,48.2386481 103.045445,41.7843981 C103.045696,32.5283981 99.5509816,25.1231481 93.8776913,19.4881481 C94.8690035,16.3033981 96.1944377,9.23089808 92.5562767,0.177148083 Z M16.3287401,54.2396481 C16.3287401,49.4918981 18.6786474,45.0833981 22.7024304,41.4248981 C29.4162718,35.3276481 40.7769206,38.5561481 53.6659889,38.5561481 C66.4977791,38.5541481 77.8202426,35.2928981 84.5423743,41.3481481 C88.6194157,45.0241481 91.0027352,49.4603981 91.0027352,54.2398981 C91.0032377,76.5571481 74.2868401,77.1606481 53.6667426,77.1606481 C33.0436304,77.1606481 16.3287401,74.0718981 16.3287401,54.2396481 Z"></path>
  </symbol>

  <symbol id='tumblr' viewBox="0 0 81 128">
    <path d="M80.8747267,121.02575 C75.3782981,123.595 70.3887484,125.407 65.9289689,126.448 C61.4639068,127.47825 56.6388727,127.99875 51.456382,127.99875 C45.5667764,127.99875 42.0918261,127.263 37.5696615,125.79175 C33.0469938,124.30825 29.1854068,122.19125 25.9957174,119.47425 C22.7947081,116.734 20.5845652,113.82325 19.3486863,110.74525 C18.1128075,107.66575 17.4977609,103.1935 17.4977609,97.34 L17.4977609,52.45225 L-1.42108547e-14,52.45225 L-1.42108547e-14,34.3265 C5.05721739,32.69625 10.9244348,30.353 14.5236522,27.3075 C18.1402267,24.25125 21.0345932,20.59425 23.2155559,16.3145 C25.403059,12.04625 26.9068416,6.6005 27.7274068,-7.10542736e-15 L46.0449783,-7.10542736e-15 L46.0449783,29.60575 L75.823295,29.60575 L75.823295,52.4525 L46.0444752,52.4525 L46.0444752,85.2725 C46.0444752,92.69975 45.9476273,96.9795 46.7400186,99.085 C47.5261211,101.17925 49.4967857,103.353 51.6440404,104.61 C54.4974037,106.30875 57.7494783,107.15725 61.4178727,107.15725 C67.939882,107.15725 74.427177,105.05125 80.8749783,100.83975 L80.8749783,121.02575 L80.8747267,121.02575 L80.8747267,121.02575 Z"></path>
  </symbol>

  <symbol id='facebook' viewBox="0 0 266.893 266.895" >
    <path d="M182.409,262.307v-99.803h33.499l5.016-38.895h-38.515V98.777c0-11.261,3.127-18.935,19.275-18.935
      l20.596-0.009V45.045c-3.562-0.474-15.788-1.533-30.012-1.533c-29.695,0-50.025,18.126-50.025,51.413v28.684h-33.585v38.895h33.585
      v99.803H182.409z"/>
  </symbol>

  <use xlink:href='#facebook' height="4em" y='0'/>
  <use xlink:href='#twitter'  height="4em" y='5em'/>
  <use xlink:href='#tumblr'   height="4em" y='10em'/>
  <use xlink:href='#github'   height="4em" y='15em'/>
  <use xlink:href='#google'   height="4em" y='20em'/>

</svg>
