<svg xmlns="http://www.w3.org/2000/svg" xmlns:xlink="http://www.w3.org/1999/xlink">

  <symbol id="twitter" viewBox="0 0 50 50">
    <path d="M45.88,11.416c0.327-1.106-0.047-2.302-0.953-3.022c-0.514-0.411-1.136-0.618-1.767-0.618   c-0.498,0-0.996,0.13-1.443,0.397c-0.888,0.521-1.817,0.939-2.787,1.234c-1.854-1.418-4.153-2.207-6.516-2.207   c-5.416,0-9.903,4.04-10.61,9.264c-4.318-0.924-8.252-3.303-11.086-6.779c-0.54-0.666-1.35-1.046-2.196-1.046   c-0.071,0-0.146,0.005-0.222,0.01c-0.928,0.073-1.757,0.596-2.226,1.398c-0.952,1.631-1.453,3.491-1.453,5.386   c0,1.28,0.227,2.525,0.647,3.688c-0.452,0.514-0.714,1.18-0.714,1.884c0,2.808,1.06,5.39,2.826,7.33   c-0.109,0.484-0.092,0.996,0.067,1.486c0.611,1.914,1.729,3.561,3.175,4.818c-0.939,0.213-1.911,0.322-2.897,0.322   c-0.511,0-1.028-0.033-1.549-0.092c-0.11-0.014-0.22-0.021-0.332-0.021c-1.186,0-2.26,0.742-2.663,1.885   c-0.447,1.24,0.026,2.627,1.134,3.34c4.071,2.607,8.775,3.986,13.602,3.986c15.655,0,25.063-12.6,25.232-24.899   c1.274-1.085,2.394-2.334,3.344-3.728c0.359-0.474,0.572-1.063,0.572-1.708C47.065,12.775,46.597,11.933,45.88,11.416z    M40.292,17.801c0.018,0.337,0.025,0.677,0.025,1.018c0,10.404-7.919,22.4-22.4,22.4c-4.445,0-8.584-1.303-12.07-3.537   c0.613,0.068,1.243,0.111,1.878,0.111c3.689,0,7.083-1.26,9.779-3.373c-3.449-0.061-6.354-2.34-7.357-5.467   c0.481,0.092,0.975,0.143,1.478,0.143c0.72,0,1.416-0.098,2.075-0.277c-3.602-0.727-6.317-3.905-6.317-7.723   c0-0.034,0-0.065,0-0.098c1.062,0.588,2.277,0.942,3.567,0.982c-2.112-1.412-3.5-3.824-3.5-6.554c0-1.442,0.388-2.793,1.066-3.956   c3.88,4.763,9.683,7.896,16.227,8.224c-0.136-0.574-0.202-1.178-0.202-1.795c0-4.344,3.524-7.869,7.87-7.869   c2.266,0,4.313,0.956,5.749,2.483c1.791-0.351,3.478-1.006,4.999-1.909c-0.589,1.837-1.838,3.38-3.461,4.354   c1.591-0.188,3.106-0.611,4.52-1.24C43.165,15.305,41.832,16.691,40.292,17.801z"/>
  </symbol>

  <symbol id='google' viewBox="0 0 134.658 131.646">
    <path d="M70.479,71.845l-3.983-3.093c-1.213-1.006-2.872-2.334-2.872-4.765c0-2.441,1.659-3.993,3.099-5.43
      c4.64-3.652,9.276-7.539,9.276-15.73c0-8.423-5.3-12.854-7.84-14.956h6.849l7.189-4.517H60.418
      c-5.976,0-14.588,1.414-20.893,6.619c-4.752,4.1-7.07,9.753-7.07,14.842c0,8.639,6.633,17.396,18.346,17.396
      c1.106,0,2.316-0.109,3.534-0.222c-0.547,1.331-1.1,2.439-1.1,4.32c0,3.431,1.763,5.535,3.317,7.528
      c-4.977,0.342-14.268,0.893-21.117,5.103c-6.523,3.879-8.508,9.525-8.508,13.51c0,8.202,7.731,15.842,23.762,15.842
      c19.01,0,29.074-10.519,29.074-20.932C79.764,79.709,75.344,75.943,70.479,71.845z M56,59.107
      c-9.51,0-13.818-12.294-13.818-19.712c0-2.888,0.547-5.87,2.428-8.199c1.773-2.218,4.861-3.657,7.744-3.657
      c9.168,0,13.923,12.404,13.923,20.382c0,1.996-0.22,5.533-2.762,8.09C61.737,57.785,58.762,59.107,56,59.107z M56.109,103.65
      c-11.826,0-19.452-5.657-19.452-13.523c0-7.864,7.071-10.524,9.504-11.405c4.64-1.561,10.611-1.779,11.607-1.779
      c1.105,0,1.658,0,2.538,0.111c8.407,5.983,12.056,8.965,12.056,14.629C72.362,98.542,66.723,103.65,56.109,103.65z"/>
    <polygon points="98.393,58.938 98.393,47.863 92.923,47.863 92.923,58.938 81.866,58.938 81.866,64.469
      92.923,64.469 92.923,75.612 98.393,75.612 98.393,64.469 109.506,64.469 109.506,58.938 		"/>
  </symbol>

  <symbol id="github" viewBox="0 0 512 512">
    <path d="M424.598,77.953c3.946-12.739,9.222-41.029-5.26-77.244c0,0-25.548-8.113-83.339,30.565
      c-22.645-5.656-46.731-8.453-70.859-8.453c-26.547,0-53.372,3.383-78.393,10.244c-59.63-40.683-85.956-32.348-85.956-32.348
      C83.604,43.69,94.228,75.508,97.46,83.411c-20.196,21.797-32.528,49.623-32.528,83.738c0,25.757,2.933,48.86,10.097,68.943
      l7.532,17.061c20.129,37.527,59.824,61.766,130.437,69.377c-10.022,6.729-20.245,18.18-24.389,37.556
      c-13.66,6.533-56.891,22.479-82.833-22.14c0,0-14.521-26.551-42.312-28.627c0,0-26.96-0.414-1.863,16.801
      c0,0,18.04,8.501,30.488,40.443c0,0,16.236,54.492,94.59,37.008v56.28c0,0-1.655,19.907-19.906,26.54
      c0,0-10.781,7.473,0.835,11.609c0,0,50.589,4.149,50.589-37.318v-61.371c0,0-2.007-24.338,9.952-32.802v100.806
      c0,0-0.827,24.056-13.267,33.176c0,0-8.301,14.923,9.947,10.785c0,0,34.833-4.979,36.493-45.615l0.789-102.014h8.373
      l0.796,102.014c1.658,40.636,36.491,45.615,36.491,45.615c18.24,4.138,9.949-10.785,9.949-10.785
      c-12.441-9.125-13.268-33.176-13.268-33.176V367.38c11.948,9.312,9.949,31.933,9.949,31.933v61.369
      c0,41.471,50.592,37.316,50.592,37.316c11.605-4.139,0.832-11.604,0.832-11.604c-18.249-6.634-19.905-26.542-19.905-26.542
      v-80.442c0-31.371-13.209-47.989-26.131-56.755c75.307-7.469,111.444-31.782,128.094-69.564l5.946-16.865
      c5.583-20.118,7.262-43.271,7.262-69.088C461.092,130.114,447.181,100.493,424.598,77.953z M264.535,308.643
      c-82.092,0-148.627-12.355-148.627-91.684c0-18.991,9.354-36.625,25.371-51.259c26.725-24.389,71.947-11.475,123.253-11.475
      c51.078-0.008,96.148-13.053,122.906,11.168l0.01,0.008c16.219,14.696,25.706,32.441,25.706,51.559
      C413.156,306.229,346.615,308.643,264.535,308.643z"/>
    <path d="M184.177,176.994c-17.079,0-30.924,19.924-30.924,44.506c0,24.589,13.846,44.52,30.924,44.52s30.922-19.931,30.922-44.52
      C215.099,196.918,201.254,177.012,184.177,176.994z"/>
    <path d="M350.095,176.994c-17.078,0-30.921,19.924-30.921,44.506c0,24.589,13.843,44.52,30.921,44.52
      c17.079,0,30.922-19.931,30.922-44.52C381.018,196.918,367.175,177.012,350.095,176.994z"/>
  </symbol>

  <symbol id='tumblr' viewBox="0 0 512 512">
    <path d="M416.751,484.105c-21.85,10.277-41.685,17.525-59.414,21.689c-17.75,4.121-36.931,6.203-57.533,6.203
      c-23.413,0-37.227-2.943-55.204-8.828c-17.979-5.934-33.33-14.402-46.01-25.27c-12.725-10.961-21.511-22.604-26.424-34.916
      c-4.913-12.318-7.358-30.207-7.358-53.621V209.811H95.249v-72.503c20.104-6.521,43.428-15.894,57.736-28.076
      c14.377-12.225,25.883-26.853,34.553-43.972c8.696-17.073,14.674-38.856,17.936-65.258h72.818v118.423H396.67v91.387H278.29v131.28
      c0,29.709-0.385,46.828,2.765,55.25c3.125,8.377,10.959,17.072,19.495,22.1c11.343,6.795,24.271,10.189,38.854,10.189
      c25.927,0,51.716-8.424,77.348-25.27V484.105L416.751,484.105z"/>
  </symbol>

  <symbol id='facebook' viewBox="0 0 266.893 266.895" >
    <path d="M182.409,262.307v-99.803h33.499l5.016-38.895h-38.515V98.777c0-11.261,3.127-18.935,19.275-18.935
      l20.596-0.009V45.045c-3.562-0.474-15.788-1.533-30.012-1.533c-29.695,0-50.025,18.126-50.025,51.413v28.684h-33.585v38.895h33.585
      v99.803H182.409z"/>
  </symbol>

  <use xlink:href='#facebook' height="4em" y='0'/>
  <use xlink:href='#twitter'  height="4em" y='5em'/>
  <use xlink:href='#tumblr'   height="4em" y='10em'/>
  <use xlink:href='#github'   height="4em" y='15em'/>
  <use xlink:href='#google'   height="4em" y='20em'/>

</svg>
