<svg xmlns="http://www.w3.org/2000/svg" xmlns:xlink="http://www.w3.org/1999/xlink">

  <symbol id="twitter" viewBox="0 0 50 50">
    <path d="M45.88,11.416c0.327-1.106-0.047-2.302-0.953-3.022c-0.514-0.411-1.136-0.618-1.767-0.618   c-0.498,0-0.996,0.13-1.443,0.397c-0.888,0.521-1.817,0.939-2.787,1.234c-1.854-1.418-4.153-2.207-6.516-2.207   c-5.416,0-9.903,4.04-10.61,9.264c-4.318-0.924-8.252-3.303-11.086-6.779c-0.54-0.666-1.35-1.046-2.196-1.046   c-0.071,0-0.146,0.005-0.222,0.01c-0.928,0.073-1.757,0.596-2.226,1.398c-0.952,1.631-1.453,3.491-1.453,5.386   c0,1.28,0.227,2.525,0.647,3.688c-0.452,0.514-0.714,1.18-0.714,1.884c0,2.808,1.06,5.39,2.826,7.33   c-0.109,0.484-0.092,0.996,0.067,1.486c0.611,1.914,1.729,3.561,3.175,4.818c-0.939,0.213-1.911,0.322-2.897,0.322   c-0.511,0-1.028-0.033-1.549-0.092c-0.11-0.014-0.22-0.021-0.332-0.021c-1.186,0-2.26,0.742-2.663,1.885   c-0.447,1.24,0.026,2.627,1.134,3.34c4.071,2.607,8.775,3.986,13.602,3.986c15.655,0,25.063-12.6,25.232-24.899   c1.274-1.085,2.394-2.334,3.344-3.728c0.359-0.474,0.572-1.063,0.572-1.708C47.065,12.775,46.597,11.933,45.88,11.416z    M40.292,17.801c0.018,0.337,0.025,0.677,0.025,1.018c0,10.404-7.919,22.4-22.4,22.4c-4.445,0-8.584-1.303-12.07-3.537   c0.613,0.068,1.243,0.111,1.878,0.111c3.689,0,7.083-1.26,9.779-3.373c-3.449-0.061-6.354-2.34-7.357-5.467   c0.481,0.092,0.975,0.143,1.478,0.143c0.72,0,1.416-0.098,2.075-0.277c-3.602-0.727-6.317-3.905-6.317-7.723   c0-0.034,0-0.065,0-0.098c1.062,0.588,2.277,0.942,3.567,0.982c-2.112-1.412-3.5-3.824-3.5-6.554c0-1.442,0.388-2.793,1.066-3.956   c3.88,4.763,9.683,7.896,16.227,8.224c-0.136-0.574-0.202-1.178-0.202-1.795c0-4.344,3.524-7.869,7.87-7.869   c2.266,0,4.313,0.956,5.749,2.483c1.791-0.351,3.478-1.006,4.999-1.909c-0.589,1.837-1.838,3.38-3.461,4.354   c1.591-0.188,3.106-0.611,4.52-1.24C43.165,15.305,41.832,16.691,40.292,17.801z"/>
  </symbol>

  <symbol id='facebook' viewBox="0 0 400 400">
    <path d="M367.231,2H32.769C15.813,2,2,15.812,2,32.768v334.463C2,384.188,15.813,398,32.769,398h170.063h78.594h85.806  C384.187,398,398,384.188,398,367.231V32.768C398,15.812,384.187,2,367.231,2z M223,378V232h-49v-36h49v-52.196  c0-20.625,5.889-37.43,17.189-48.599c10.857-10.731,26.823-16.403,45.866-16.403c13.383,0,24.944,0.657,33.944,1.3v31.688  l-20.463,0.009c-38.12,0-38.537,28.317-38.537,37.623V196h55.24l-4.737,36H261v146H223z M378,367.231  c0,5.928-4.842,10.769-10.769,10.769H281V252h48.089l9.896-76H281v-26.578c0-6.902,1.127-11.202,3.088-13.532  c2.286-2.715,7.726-4.091,15.561-4.091L340,131.781V62.277l-8.888-1.153c-4.536-0.603-22.661-2.322-45.201-2.322  c-24.418,0-45.051,7.669-59.731,22.179C210.994,95.991,203,117.715,203,143.804V176h-49v76h49v126H32.769  C26.841,378,22,373.159,22,367.231V32.768C22,26.84,26.841,22,32.769,22h334.462C373.158,22,378,26.84,378,32.768V367.231z"/>
  </symbol>

  <symbol id='github'>
  </symbol>

  <symbol id="tumblr" viewBox="0 0 50 50">
    <path d="M32.913,37.945c-2.654,0.969-3.091,0.826-3.486,0.541c-0.169-0.121-0.215-0.229-0.236-0.311   c-0.027-0.129-0.122-0.807-0.122-4.092V22.918h5.579v-9.047h-5.579V2.04l-10.73,6.241v5.591h-3.749v9.047h3.749v12.179   c0,2.996,0.094,4.951,0.277,5.953c0.239,1.523,0.698,2.771,1.363,3.713c0.689,0.98,1.751,1.771,3.147,2.357   c1.33,0.557,2.835,0.84,4.472,0.84c2.561,0,4.897-0.445,6.948-1.326l0.865-0.369l-0.976-8.877L32.913,37.945z M27.598,45.424   c-1.296,0-2.473-0.215-3.49-0.643c-0.951-0.396-1.642-0.896-2.054-1.479c-0.437-0.621-0.749-1.51-0.938-2.678   c-0.108-0.596-0.239-2.039-0.239-5.523v-14.72h-3.749v-3.967h3.749V9.745l5.65-3.287v9.957h5.578v3.967h-5.578v13.707   c0,3.457,0.098,4.314,0.2,4.713c0.181,0.703,0.601,1.307,1.219,1.752c1.035,0.74,2.255,0.852,4.31,0.277l0.417,3.807   C31.155,45.158,29.452,45.424,27.598,45.424z"/>
  </symbol>

  <symbol id='linkedin'>
  </symbol>

  <symbol id='google'>
  </symbol>

  <use xlink:href='#facebook' height="4em" y='0'/>
  <use xlink:href='#twitter'  height="4em" y='5em'/>
  <use xlink:href='#tumblr'  height="4em" y='10em'/>
</svg>
