<svg version="1.1" xmlns="http://www.w3.org/2000/svg" width="1em" height="1em" viewBox="0 0 16 16"
   overflow="visible" enable-background="new 0 0 16 16" xml:space="preserve">
   <style>path{fill:white;}</style>
   <g id="silhouette">
     <path d="M14,12.5c-1-0.4-2.4-1.5-4.5-1.9c0.5-0.6,1-1.5,1.4-2.6c0.2-0.6,0.2-1.2,0.2-1.9c0-0.6,0.1-1.5,0-1.9
       C10.6,2.5,9.4,2,8,2C6.6,2,5.4,2.5,5,4.2c-0.1,0.5,0,1.4,0,1.9c0,0.8,0,1.3,0.2,1.9c0.4,1.1,0.8,2,1.4,2.6C4.4,11,3,12,2,12.5
       c-2,0.9-2,1.9-2,1.9V16l16,0v-1.6C16,14.3,16,13.4,14,12.5z"/>
   </g>
</svg>