<svg xmlns="http://www.w3.org/2000/svg" viewBox="0 0 296.65 381.5">
	<path d="M276.291,2.5H20.36c-9.822,0-17.858,8.037-17.858,17.859v340.783c0,9.822,8.036,17.857,17.858,17.857h255.931   c9.822,0,17.858-8.035,17.858-17.857V20.359C294.149,10.537,286.113,2.5,276.291,2.5z M148.325,370.805   c-4.805,0-8.699-3.895-8.699-8.699s3.895-8.701,8.699-8.701s8.7,3.896,8.7,8.701S153.129,370.805,148.325,370.805z    M263.525,344.324H33.125V37.436h230.399V344.324z"/>
	<path d="M150.475,358.605h-4.3c-0.745,0-1.351,0.605-1.351,1.35v4.299c0,0.745,0.606,1.352,1.351,1.352h4.3   c0.744,0,1.35-0.606,1.35-1.352v-4.299C151.825,359.211,151.219,358.605,150.475,358.605z M150.825,364.254   c0,0.194-0.156,0.352-0.35,0.352h-4.3c-0.193,0-0.351-0.157-0.351-0.352v-4.299c0-0.192,0.157-0.35,0.351-0.35h4.3   c0.193,0,0.35,0.157,0.35,0.35V364.254z"/>
</svg>
