<?xml version="1.0" encoding="UTF-8" standalone="no"?>
<svg width="81px" height="128px" viewBox="0 0 81 128" version="1.1" xmlns="http://www.w3.org/2000/svg" xmlns:xlink="http://www.w3.org/1999/xlink" xmlns:sketch="http://www.bohemiancoding.com/sketch/ns">
    <title>Untitled</title>
    <description>Created with Sketch (http://www.bohemiancoding.com/sketch)</description>
    <defs></defs>
    <g id="Page-1" stroke="none" stroke-width="1" fill="none" fill-rule="evenodd" sketch:type="MSPage">
        <path d="M80.8747267,121.02575 C75.3782981,123.595 70.3887484,125.407 65.9289689,126.448 C61.4639068,127.47825 56.6388727,127.99875 51.456382,127.99875 C45.5667764,127.99875 42.0918261,127.263 37.5696615,125.79175 C33.0469938,124.30825 29.1854068,122.19125 25.9957174,119.47425 C22.7947081,116.734 20.5845652,113.82325 19.3486863,110.74525 C18.1128075,107.66575 17.4977609,103.1935 17.4977609,97.34 L17.4977609,52.45225 L-1.42108547e-14,52.45225 L-1.42108547e-14,34.3265 C5.05721739,32.69625 10.9244348,30.353 14.5236522,27.3075 C18.1402267,24.25125 21.0345932,20.59425 23.2155559,16.3145 C25.403059,12.04625 26.9068416,6.6005 27.7274068,-7.10542736e-15 L46.0449783,-7.10542736e-15 L46.0449783,29.60575 L75.823295,29.60575 L75.823295,52.4525 L46.0444752,52.4525 L46.0444752,85.2725 C46.0444752,92.69975 45.9476273,96.9795 46.7400186,99.085 C47.5261211,101.17925 49.4967857,103.353 51.6440404,104.61 C54.4974037,106.30875 57.7494783,107.15725 61.4178727,107.15725 C67.939882,107.15725 74.427177,105.05125 80.8749783,100.83975 L80.8749783,121.02575 L80.8747267,121.02575 L80.8747267,121.02575 Z" id="tumblr" fill="#000000" sketch:type="MSShapeGroup"></path>
    </g>
</svg>