<svg version="1.1" xmlns="http://www.w3.org/2000/svg"
  x="0" y="0" viewBox="0 0 72 72" enable-background="new 0 0 72 72"
  xml:space="preserve" overflow="visible">
<path fill="#2A2929" d="M72.2,36.1C72.2,56,56,72.2,36.1,72.2C16.2,72.2,0,56,0,36.1C0,16.2,16.2,0,36.1,0C56,0,72.2,16.2,72.2,36.1
	z M52,54.2l-2.7-7c-3.4,0.9-7.4,1.3-11.9,1.3c-2.8,0-5-0.9-6.5-2.9c-1.5-1.9-2.3-5.3-2.3-10.2c0-9.6,2.7-14.4,8.1-14.4
	c1.2,0,2.1,0.2,2.8,0.3c0.2,2.1,0.7,3.7,1.5,5.7H49c1.5-4,2.3-6.6,2.3-10c0-0.5,0.1-1.2,0-1.8c-2.4-1.4-5.3-2.4-8.3-2.9V5.9
	c0,0-0.7-1-3.4-1.6c-2.6-0.6-6.8-0.4-9.7,1.4l0.3,7.1c-2.8,0.8-5.3,2.2-7.6,4.1c-4.4,3.9-6.6,10.3-6.6,19.1
	c0,12.9,4.9,20.3,13.9,22.2v8c0,0,0.5,1,3.2,1.6c2.6,0.6,6.7,0.4,9.6-1.4l-0.3-8.5c0.6-0.1,1.2-0.2,1.9-0.4
	C47.6,56.6,50.1,55.5,52,54.2z"/>
</svg>
