<?xml version="1.0" encoding="utf-8"?>
<!-- Generator: Adobe Illustrator 14.0.0, SVG Export Plug-In  -->
<!DOCTYPE svg PUBLIC "-//W3C//DTD SVG 1.1//EN" "http://www.w3.org/Graphics/SVG/1.1/DTD/svg11.dtd" [
  <!ENTITY ns_flows "http://ns.adobe.com/Flows/1.0/">
]>
<svg version="1.1"
   xmlns="http://www.w3.org/2000/svg" xmlns:xlink="http://www.w3.org/1999/xlink" xmlns:a="http://ns.adobe.com/AdobeSVGViewerExtensions/3.0/"
   x="0px" y="0px" width="103px" height="36px" viewBox="25.999 20 103 36" style="enable-background:new 25.999 20 103 36;"
   xml:space="preserve">
<defs>
</defs>
<path id="global_nav_1_" style="display:none;fill:none;stroke:#808080;stroke-width:2;" d="M706.127,15.259H29.837
  c-8.219,0-14.883,5.746-14.883,12.835V56.79c0,7.088,6.664,12.834,14.883,12.834h676.29c8.219,0,14.882-5.746,14.882-12.834V28.094
  C721.009,21.005,714.346,15.259,706.127,15.259z"/>
<rect x="1" y="1" style="display:none;fill:none;stroke:#808080;stroke-width:2;" width="959.999" height="960"/>
<path style="fill:#999999;stroke:#999999;stroke-width:2.0688;" d="M127.666,46.333c0,4.418-3.832,8-8.56,8h-82.74
  c-4.728,0-8.56-3.582-8.56-8v-4c0-4.418,3.832-8,8.56-8h82.74c4.728,0,8.56,3.582,8.56,8V46.333z"/>
<text transform="matrix(1 0 0 1 34.4033 41)" style="fill:none;stroke:#808080;stroke-width:0.75; font-family:'MyriadPro-Regular'; font-size:24;">FunTime</text>
</svg>
