<?xml version="1.0" encoding="utf-8"?>
<svg version="1.1" xmlns="http://www.w3.org/2000/svg" 
  xmlns:xlink="http://www.w3.org/1999/xlink" 
  x="0px" y="0px" width="217px" height="217px" 
  xml:space="preserve" xml:base="/weave/icon">

  <style type="text/css">
    .st0{opacity:0.03;}
    .st1{opacity:0.15;}
    .st2{opacity:0.51;}
    .st3{fill:none;stroke:#808080;stroke-width:1.0322;}
    .st4{fill:url(#SVGID_1_);}
    .st5{fill:url(#SVGID_2_);}
    .st6{fill:url(#SVGID_3_);}
    .st7{fill:url(#SVGID_4_);}
    .st8{fill:url(#SVGID_5_);}
    .st9{fill:url(#SVGID_6_);}
    .st10{opacity:0.5;}
    .st11{fill:#34332E;}
    .st12{fill:#718D78;}
    .st13{fill:none;stroke:#FFFFFF;stroke-width:2.0648;}    
  </style>
  <defs>
  <symbol id="logo" viewBox="-105 -105 217 217">
    <g id="tip">
			<g>
				<g class="st2">
					<path class="st12" d="M56.078,33.509c0,6.082-4.935,11.014-11.022,11.014H11.07C4.981,44.521,0.045,39.591,0.045,33.509V-0.454
						c0.001-6.08,4.938-11.012,11.025-11.012h33.985c6.088,0,11.022,4.932,11.023,11.012L56.078,33.509z"/>
					<path class="st3" d="M56.078,33.509c0,6.082-4.935,11.014-11.022,11.014H11.07C4.981,44.521,0.045,39.591,0.045,33.509V-0.454
						c0.001-6.08,4.938-11.012,11.025-11.012h33.985c6.088,0,11.022,4.932,11.023,11.012L56.078,33.509z"/>
				</g>
				<g class="st10">
					<path class="st12" d="M-55.983-22.479c-0.001,6.082,4.934,11.014,11.021,11.014h33.986c6.087,0,11.021-4.932,11.021-11.014
						L0.046-56.44c-0.001-6.082-4.935-11.014-11.021-11.016l-33.988,0.002c-6.087,0-11.021,4.932-11.021,11.014L-55.983-22.479z"/>
					<path class="st3" d="M-55.983-22.479c-0.001,6.082,4.934,11.014,11.021,11.014h33.986c6.087,0,11.021-4.932,11.021-11.014
						L0.046-56.44c-0.001-6.082-4.935-11.014-11.021-11.016l-33.988,0.002c-6.087,0-11.021,4.932-11.021,11.014L-55.983-22.479z"/>
				</g>
				<g class="st10">
					<path class="st11" d="M-55.982-11.466c-0.002,30.921,25.084,55.988,56.028,55.988c30.945,0,56.034-25.066,56.03-55.988
						C56.08-42.388,30.99-67.454,0.045-67.456C-30.898-67.456-55.984-42.39-55.982-11.466z"/>
					<path class="st3" d="M-55.982-11.466c-0.002,30.921,25.084,55.988,56.028,55.988c30.945,0,56.034-25.066,56.03-55.988
						C56.08-42.388,30.99-67.454,0.045-67.456C-30.898-67.456-55.984-42.39-55.982-11.466z"/>
				</g>
				<g>
					<g>
						<g class="st1">
							
								<radialGradient id="SVGID_1_" cx="2422.7671" cy="-630.5771" r="36.0763" gradientTransform="matrix(1.3011 0 0 1.0674 -3152.2754 664.5078)" gradientUnits="userSpaceOnUse">
								<stop  offset="0" style="stop-color:#230000"/>
								<stop  offset="0.73" style="stop-color:#93432A"/>
								<stop  offset="1" style="stop-color:#230000"/>
							</radialGradient>
							<path class="st4" d="M-43.805-8.57c0.002-31.381,19.604-50.576,43.793-35.924c24.181,14.643,43.788,27.633,43.79,35.925
								C43.775-0.275,24.172,12.713-0.009,27.354C-24.199,42.005-43.801,22.813-43.805-8.57z"/>
						</g>
						<g class="st10">
							
								<radialGradient id="SVGID_2_" cx="2422.7686" cy="-630.5747" r="17.2272" gradientTransform="matrix(1.3011 0 0 1.0674 -3152.2754 664.5078)" gradientUnits="userSpaceOnUse">
								<stop  offset="0.15" style="stop-color:#FFFFFF"/>
								<stop  offset="0.2114" style="stop-color:#E2D1D2"/>
								<stop  offset="0.2918" style="stop-color:#BF9A9C"/>
								<stop  offset="0.3613" style="stop-color:#A67276"/>
								<stop  offset="0.4163" style="stop-color:#975A5E"/>
								<stop  offset="0.45" style="stop-color:#915155"/>
								<stop  offset="0.5553" style="stop-color:#6C3638"/>
								<stop  offset="0.6842" style="stop-color:#44191A"/>
								<stop  offset="0.787" style="stop-color:#2C0707"/>
								<stop  offset="0.85" style="stop-color:#230000"/>
								<stop  offset="0.8572" style="stop-color:#270201"/>
								<stop  offset="0.8647" style="stop-color:#340805"/>
								<stop  offset="0.8723" style="stop-color:#48120B"/>
								<stop  offset="0.88" style="stop-color:#652114"/>
								<stop  offset="0.8878" style="stop-color:#8B331F"/>
								<stop  offset="0.8955" style="stop-color:#B8492D"/>
								<stop  offset="0.9" style="stop-color:#D65836"/>
								<stop  offset="0.903" style="stop-color:#C95232"/>
								<stop  offset="0.9146" style="stop-color:#9D3C25"/>
								<stop  offset="0.9267" style="stop-color:#782A1A"/>
								<stop  offset="0.9392" style="stop-color:#591B10"/>
								<stop  offset="0.9523" style="stop-color:#410F09"/>
								<stop  offset="0.9661" style="stop-color:#300604"/>
								<stop  offset="0.9812" style="stop-color:#260201"/>
								<stop  offset="1" style="stop-color:#230000"/>
							</radialGradient>
							<path class="st5" d="M-21.908-8.569C-21.906-21.89-12.1-30.114-0.015-26.53c12.094,3.589,21.9,11.435,21.899,17.961
								c0.002,6.524-9.799,14.38-21.899,17.963C-12.102,12.984-21.908,4.738-21.908-8.569z"/>
						</g>
						<g>
							
								<radialGradient id="SVGID_3_" cx="2422.7671" cy="-630.5767" r="14.2651" gradientTransform="matrix(1.3011 0 0 1.0674 -3152.2754 664.5078)" gradientUnits="userSpaceOnUse">
								<stop  offset="0.15" style="stop-color:#FFFFFF"/>
								<stop  offset="0.2824" style="stop-color:#C2C2C2"/>
								<stop  offset="0.4253" style="stop-color:#888888"/>
								<stop  offset="0.5636" style="stop-color:#575757"/>
								<stop  offset="0.6936" style="stop-color:#313131"/>
								<stop  offset="0.8134" style="stop-color:#161616"/>
								<stop  offset="0.9192" style="stop-color:#060606"/>
								<stop  offset="1" style="stop-color:#000000"/>
							</radialGradient>
							<path class="st6" d="M-18.258-8.572c0.002-10.65,8.158-17.461,18.246-14.961c10.071,2.482,18.241,9.096,18.243,14.964
								C18.235-2.696,10.06,3.911-0.015,6.397C-10.095,8.886-18.255,2.093-18.258-8.572z"/>
						</g>
						<g class="st0">
							<path class="st13" d="M-0.012-8.568c16.244,4.836,32.49,5.732,48.735,6.49c16.245,1.08,32.491,2.025,48.735,14.314
								C81.214-0.053,64.97-0.998,48.723-2.077C32.478-2.837,16.233-3.733-0.012-8.568c-16.247-4.547-32.491-13.033-48.738-21.657
								c-16.243-8.301-32.489-16.738-48.735-13.831c16.246-2.908,32.49,5.529,48.735,13.833
								C-32.504-21.602-16.258-13.115-0.012-8.568c11.438-26.939,22.873-39.693,34.31-45.837
								C22.86-48.263,11.425-35.509-0.012-8.568c-11.437,26.366-22.874,66.919-34.31,114.082
								C-22.885,58.351-11.449,17.798-0.012-8.568c29.95-7.835,59.903-0.659,89.854-12.003C59.892-9.228,29.938-16.403-0.012-8.568
								c-29.951,5.301-59.904,25.613-89.856,27.405C-59.916,17.046-29.963-3.269-0.012-8.568
								C-8.02-33.048-16.027-66.173-24.035-105.55C-16.027-66.174-8.02-33.049-0.012-8.568
								c8.006,24.661,16.014,40.677,24.018,50.441C16.002,32.108,7.994,16.091-0.012-8.568c20.034,2.592,40.065,2.385,60.1,3.118
								C40.054-6.185,20.022-5.978-0.012-8.568c-20.033-2.311-40.068-7.42-60.103-11.587C-40.08-15.988-20.045-10.879-0.012-8.568
								c2.988-16.438,5.977-30.823,8.965-43.237C5.965-39.392,2.977-25.007-0.012-8.568C-3,7.861-5.988,26.346-8.977,46.8
								C-5.988,26.346-3,7.861-0.012-8.568C16.907,2.924,33.829,4.537,50.748,6.489C33.829,4.536,16.907,2.923-0.012-8.568
								c-16.92-10.722-33.842-31.323-50.763-51.584C-33.854-39.895-16.932-19.291-0.012-8.568
								c13.539-14.127,27.078-19.125,40.62-21.54C27.068-27.693,13.529-22.695-0.012-8.568C-13.551,5.063-27.09,27.823-40.629,53.17
								C-27.09,27.823-13.551,5.063-0.012-8.568c36.178,0.558,72.357-0.274,108.536,1.247C72.345-8.843,36.167-8.013-0.012-8.568
								C-36.19-8.844-72.37-10.506-108.548-9.815C-72.369-10.507-36.189-8.845-0.012-8.568c0.508-29.68,1.014-58.736,1.521-87.169
								C1.002-67.305,0.496-38.248-0.012-8.568C-0.519,21.108-1.026,51.413-1.532,82.34C-1.026,51.413-0.519,21.108-0.012-8.568
								C26.319,5.395,52.647-2.871,78.979,9.447C52.646-2.874,26.318,5.394-0.012-8.568c-26.33-10.729-52.662-43.69-78.993-56.057
								C-52.674-52.258-26.342-19.299-0.012-8.568C15.035-30.695,30.084-36.49,45.132-39.936
								C30.085-36.491,15.036-30.698-0.012-8.568c-15.051,21.07-30.1,58.479-45.149,98.235
								C-30.111,49.911-15.061,12.503-0.012-8.568C7.004,3.096,14.018,11.219,21.032,16.568C14.017,11.219,7.003,3.094-0.012-8.568
								c-7.016-11.607-14.029-26.754-21.044-44.677C-14.041-35.322-7.025-20.176-0.012-8.568
								c14.184-5.874,28.367-7.726,42.551-8.674C28.355-16.294,14.172-14.442-0.012-8.568C-14.197-2.934-28.381,6.727-42.565,17.286
								C-28.381,6.727-14.197-2.934-0.012-8.568c0.993,0.188,1.985,0.371,2.979,0.544C1.974-8.197,0.981-8.379-0.012-8.568
								c-0.994-0.19-1.986-0.388-2.982-0.592C-1.998-8.957-1.006-8.76-0.012-8.568c0.229-0.815,0.459-1.622,0.688-2.42
								C0.447-10.19,0.217-9.386-0.012-8.568c-0.23,0.813-0.461,1.636-0.691,2.465C-0.473-6.933-0.242-7.757-0.012-8.568
								c3.227,2.402,6.451,4.48,9.677,6.249C6.439-4.088,3.213-6.166-0.012-8.568c-3.226-2.401-6.452-5.126-9.677-8.161
								C-6.463-13.694-3.236-10.972-0.012-8.568c2.928-2.647,5.857-4.97,8.786-6.982C5.845-13.538,2.917-11.216-0.012-8.568
								C-2.94-5.924-5.87-2.951-8.798,0.33C-5.869-2.951-2.939-5.924-0.012-8.568C4.992-2.819,9.996,1.71,15,5.158
								C9.996,1.709,4.992-2.82-0.012-8.568c-5.005-5.742-10.013-12.701-15.018-20.746C-10.024-21.271-5.017-14.312-0.012-8.568
								C6.992-12.684,13.996-15.553,21-17.443C13.996-15.555,6.992-12.686-0.012-8.568C-7.016-4.475-14.02,0.869-21.023,7.193
								C-14.02,0.869-7.016-4.475-0.012-8.568C7.605-5.174,15.223-2.906,22.84-1.482C15.223-2.907,7.605-5.177-0.012-8.568
								c-7.617-3.374-15.236-7.874-22.854-13.217C-15.248-16.443-7.629-11.943-0.012-8.568c4.125-6.251,8.25-11.417,12.378-15.581
								C8.239-19.985,4.114-14.819-0.012-8.568C-4.136-2.325-8.261,5.007-12.384,13.34C-8.26,5.007-4.137-2.325-0.012-8.568
								c31.087-2.289,62.173,0.047,93.261-3.746C62.162-8.523,31.076-10.859-0.012-8.568c-31.089,1.476-62.175,7.577-93.264,7.554
								C-62.187-0.991-31.101-7.093-0.012-8.568c-2.295-25.501-4.592-53.44-6.888-83.761C-4.604-62.008-2.307-34.068-0.012-8.568
								C2.283,16.937,4.58,40.003,6.876,60.686C4.579,40.002,2.284,16.936-0.012-8.568c6.733,1.704,13.47,2.913,20.206,3.726
								C13.46-5.655,6.724-6.866-0.012-8.568c-6.737-1.698-13.472-3.888-20.209-6.476C-13.483-12.456-6.749-10.267-0.012-8.568
								c2.072-5.524,4.146-10.573,6.22-15.153C4.135-19.142,2.061-14.093-0.012-8.568C-2.085-3.046-4.155,2.954-6.229,9.424
								C-4.154,2.957-2.084-3.045-0.012-8.568c13.668,0.327,27.336,0.442,41.004,0.496C27.324-8.127,13.656-8.24-0.012-8.568
								c-13.67-0.316-27.338-0.846-41.007-1.436C-27.35-9.414-13.682-8.885-0.012-8.568C0.381-19.782,0.771-30.813,1.163-41.66
								C0.771-30.814,0.381-19.781-0.012-8.568C-0.404,2.644-0.795,14.038-1.187,25.616C-0.795,14.037-0.404,2.643-0.012-8.568
								C13.504,0.444,27.021,3.644,40.538,5.188C27.022,3.645,13.505,0.441-0.012-8.568c-13.518-8.699-27.033-23.209-40.55-39.377
								C-27.045-31.778-13.529-17.269-0.012-8.568c10.797-11.188,21.594-16.87,32.391-19.7C21.582-25.439,10.785-19.756-0.012-8.568
								C-10.806,2.417-21.603,18.909-32.396,38.253"/>
						</g>
					</g>
				</g>
			</g>
		</g>
  </symbol>
  </defs>
  <use xlink:href="#logo"  width="217" height="217" x="0" y="0" />
</svg>
