<?xml version="1.0" encoding="utf-8"?>
<svg version="1.1"
   xmlns="http://www.w3.org/2000/svg" xmlns:xlink="http://www.w3.org/1999/xlink"
   x="0px" y="0px" width="962px" height="962px" viewBox="0 0 962 962" style="enable-background:new 0 0 962 962;"
   xml:space="preserve">
<defs>
</defs>

<path id="content_area_1_"  style="fill:none;stroke:#808080;stroke-width:2.3141;" d="M720.647,822.032
  c0,3.653-6.909,6.614-15.438,6.614H30.091c-8.527,0-15.438-2.961-15.438-6.614V89.945c0-3.654,6.911-6.616,15.438-6.616H705.21
  c8.528,0,15.438,2.962,15.438,6.616V822.032z"/>
<path id="global_nav_1_" style="fill:none;stroke:#808080;stroke-width:2;" d="M706.127,15.259H29.837
  c-8.219,0-14.883,5.746-14.883,12.835V56.79c0,7.088,6.664,12.834,14.883,12.834h676.29c8.219,0,14.882-5.746,14.882-12.834V28.094
  C721.009,21.005,714.346,15.259,706.127,15.259z"/>
<path id="courtesy_nav_1_" style="fill:none;stroke:#808080;stroke-width:2.9926;" d="M949.088,932.143
  c0,8.45-5.334,15.305-11.916,15.305H25.441c-6.581,0-11.916-6.854-11.916-15.305v-64.508c0-8.447,5.335-15.302,11.916-15.302h911.73
  c6.582,0,11.916,6.854,11.916,15.302V932.143z"/>
<path id="account_info_1_" style="fill:none;stroke:#808080;stroke-width:1.8746;" d="M942.798,557.094c0,3.881-3.582,7.027-8,7.027
  h-184c-4.418,0-8-3.146-8-7.027V90.906c0-3.881,3.582-7.027,8-7.027h184c4.418,0,8,3.146,8,7.027V557.094z"/>
<rect x="1" y="1" style="fill:none;stroke:#808080;stroke-width:2;" width="959.999" height="960"/>
<path style="fill:#999999;stroke:#999999;stroke-width:2.0688;" d="M127.666,46.333c0,4.418-3.832,8-8.56,8h-82.74
  c-4.728,0-8.56-3.582-8.56-8v-4c0-4.418,3.832-8,8.56-8h82.74c4.728,0,8.56,3.582,8.56,8V46.333z"/>
<text transform="matrix(1 0 0 1 34.4033 41)" style="fill:none;stroke:#808080;stroke-width:0.75; font-family:'MyriadPro-Regular'; font-size:24;">FunTime</text>
<text transform="matrix(1 0 0 1 796.1318 297.333)" style="display:none;fill:#808080; font-family:'MyriadPro-Regular'; font-size:24;">Account</text>
<text transform="matrix(1 0 0 1 400.999 907.8975)" style="display:none;fill:#808080; font-family:'MyriadPro-Regular'; font-size:21;">Courtesy Nav</text>
<text transform="matrix(1 0 0 1 267.666 54.1504)" style="display:none;fill:#808080; font-family:'MyriadPro-Regular'; font-size:36;">Global Nav</text>
<text transform="matrix(1 0 0 1 254.333 414.1504)" style="display:none;fill:#808080; font-family:'MyriadPro-Regular'; font-size:36;">Content Area</text>
<text transform="matrix(1 0 0 1 561 881)" style="fill:#808080; font-family:'MyriadPro-Regular'; font-size:18;">News</text>
<text transform="matrix(1 0 0 1 341.5586 921)" style="fill:#999999; font-family:'MyriadPro-Regular'; font-size:14;">subscribe</text>
<text transform="matrix(1 0 0 1 341.5586 901)" style="fill:#999999; font-family:'MyriadPro-Regular'; font-size:14;">contact</text>
<text transform="matrix(1 0 0 1 581.2393 921)" style="fill:#999999; font-family:'MyriadPro-Regular'; font-size:12;">Loreum opseosis ipseum doceous</text>
<text transform="matrix(1 0 0 1 581.2393 901)" style="fill:#999999; font-family:'MyriadPro-Regular'; font-size:12;">Ipseum doceous breasos rodesun</text>
<text transform="matrix(1 0 0 1 320.999 881)" style="fill:#808080; font-family:'MyriadPro-Regular'; font-size:18;">About</text>
<text transform="matrix(1 0 0 1 107.666 921)" style="fill:#999999; font-family:'MyriadPro-Regular'; font-size:14;">privacy</text>
<text transform="matrix(1 0 0 1 107.666 901)" style="fill:#999999; font-family:'MyriadPro-Regular'; font-size:14;">terms &amp; conditions</text>
<text transform="matrix(1 0 0 1 80.999 881)" style="fill:#808080; font-family:'MyriadPro-Regular'; font-size:18;">Policies</text>
<text transform="matrix(1 0 0 1 660.999 54.333)" style="fill:#808080; font-family:'MyriadPro-Regular'; font-size:24;">Blog</text>
<text transform="matrix(1 0 0 1 587.665 54.333)" style="fill:#808080; font-family:'MyriadPro-Regular'; font-size:24;">Home</text>
<text transform="matrix(1 0 0 1 474.332 54.333)" style="fill:#808080; font-family:'MyriadPro-Regular'; font-size:24;">Publishers</text>
<text transform="matrix(1 0 0 1 400.999 54.333)" style="fill:#808080; font-family:'MyriadPro-Regular'; font-size:24;">Pages</text>
<path style="fill:#808080;" d="M904.469,685.497c0,6.534-5.302,11.835-11.841,11.835h-36.519c-6.539,0-11.841-5.301-11.841-11.835
  v-36.488c0-6.535,5.302-11.835,11.841-11.835h36.519c6.539,0,11.841,5.3,11.841,11.835V685.497z"/>
<ellipse style="fill:#808080;" cx="844.267" cy="697.332" rx="60.202" ry="60.155"/>
<path style="fill:#808080;" d="M784.064,745.653c0,6.536,5.302,11.834,11.844,11.834h36.515c6.542,0,11.846-5.298,11.846-11.834
  v-36.489c0-6.533-5.304-11.832-11.846-11.832h-36.515c-6.542,0-11.844,5.299-11.844,11.832V745.653z"/>
<g style="opacity:0.63;">
  <line style="fill:none;" x1="834.244" y1="707.355" x2="853.206" y2="722.515"/>
  <path style="fill:none;" d="M814.004,707.355c0,11.168,9.06,20.223,20.24,20.223c11.177,0,20.236-9.055,20.236-20.223
    c0-11.171-9.06-20.226-20.236-20.226C823.063,687.13,814.004,696.185,814.004,707.355z"/>
  <ellipse style="fill:none;" cx="834.244" cy="707.355" rx="24.29" ry="24.27"/>
  <polyline style="fill:none;" points="834.244,707.355 942.368,669.322 834.244,707.355 726.116,745.386 834.244,707.355 
    872.304,815.4 834.244,707.355 796.181,599.308 834.244,707.355 933.917,733.979 834.244,707.355 734.571,680.729 834.244,707.355 
    807.597,806.952 834.244,707.355 860.888,607.756 834.244,707.355 900.911,697.416 834.244,707.355 767.573,717.292 
    834.244,707.355 844.188,773.974 834.244,707.355 824.298,640.734 834.244,707.355 890.552,662.33 834.244,707.355 
    777.933,752.377 834.244,707.355 879.299,763.622 834.244,707.355 789.188,651.086 834.244,707.355 954.638,705.669 
    834.244,707.355 713.847,709.039 834.244,707.355 835.929,827.665 834.244,707.355 832.557,587.043 834.244,707.355 
    921.866,657.31 834.244,707.355 746.618,757.398 834.244,707.355 884.322,794.914 834.244,707.355 784.161,619.794 
    834.244,707.355 857.586,660.188 834.244,707.355 810.897,754.521 834.244,707.355 881.443,730.683 834.244,707.355 
    787.041,684.026 834.244,707.355 837.551,706.587 834.244,707.355 830.936,708.12 834.244,707.355 835.01,710.657 834.244,707.355 
    833.475,704.051 834.244,707.355 844.979,697.617 834.244,707.355 823.507,717.091 834.244,707.355 843.983,718.084 
    834.244,707.355 824.499,696.624 834.244,707.355 850.896,684.063 834.244,707.355 817.587,730.645 834.244,707.355 
    857.552,723.999 834.244,707.355 810.934,690.709 834.244,707.355 859.591,693.637 834.244,707.355 808.892,721.071 
    834.244,707.355 847.972,732.685 834.244,707.355 820.516,682.023 834.244,707.355 937.696,714.988 834.244,707.355 730.79,699.72 
    834.244,707.355 826.602,810.732 834.244,707.355 841.885,603.976 834.244,707.355 856.655,700.459 834.244,707.355 
    811.829,714.248 834.244,707.355 841.142,729.749 834.244,707.355 827.344,684.959 834.244,707.355 879.728,706.05 
    834.244,707.355 788.756,708.658 834.244,707.355 835.547,752.809 834.244,707.355 832.938,661.899 834.244,707.355 
    879.225,671.455 834.244,707.355 789.262,743.253 834.244,707.355 870.169,752.302 834.244,707.355 798.315,662.406   "/>
  
    <radialGradient id="SVGID_1_" cx="969.2119" cy="631.9072" r="42.623" gradientTransform="matrix(1.1397 0 0 1.1389 -270.3672 -12.3251)" gradientUnits="userSpaceOnUse">
    <stop  offset="0" style="stop-color:#230000"/>
    <stop  offset="0.73" style="stop-color:#93432A"/>
    <stop  offset="1" style="stop-color:#230000"/>
  </radialGradient>
  <ellipse style="opacity:0.15;fill:url(#SVGID_1_);" cx="834.243" cy="707.355" rx="48.578" ry="48.542"/>
  
    <radialGradient id="SVGID_2_" cx="969.2119" cy="631.9082" r="21.3115" gradientTransform="matrix(1.1397 0 0 1.1389 -270.3672 -12.3251)" gradientUnits="userSpaceOnUse">
    <stop  offset="0.15" style="stop-color:#FFFFFF"/>
    <stop  offset="0.2114" style="stop-color:#E2D1D2"/>
    <stop  offset="0.2918" style="stop-color:#BF9A9C"/>
    <stop  offset="0.3613" style="stop-color:#A67276"/>
    <stop  offset="0.4163" style="stop-color:#975A5E"/>
    <stop  offset="0.45" style="stop-color:#915155"/>
    <stop  offset="0.5553" style="stop-color:#6C3638"/>
    <stop  offset="0.6842" style="stop-color:#44191A"/>
    <stop  offset="0.787" style="stop-color:#2C0707"/>
    <stop  offset="0.85" style="stop-color:#230000"/>
    <stop  offset="0.8572" style="stop-color:#270201"/>
    <stop  offset="0.8647" style="stop-color:#340805"/>
    <stop  offset="0.8723" style="stop-color:#48120B"/>
    <stop  offset="0.88" style="stop-color:#652114"/>
    <stop  offset="0.8878" style="stop-color:#8B331F"/>
    <stop  offset="0.8955" style="stop-color:#B8492D"/>
    <stop  offset="0.9" style="stop-color:#D65836"/>
    <stop  offset="0.903" style="stop-color:#C95232"/>
    <stop  offset="0.9146" style="stop-color:#9D3C25"/>
    <stop  offset="0.9267" style="stop-color:#782A1A"/>
    <stop  offset="0.9392" style="stop-color:#591B10"/>
    <stop  offset="0.9523" style="stop-color:#410F09"/>
    <stop  offset="0.9661" style="stop-color:#300604"/>
    <stop  offset="0.9812" style="stop-color:#260201"/>
    <stop  offset="1" style="stop-color:#230000"/>
  </radialGradient>
  <ellipse style="opacity:0.5;fill:url(#SVGID_2_);" cx="834.244" cy="707.355" rx="24.29" ry="24.27"/>
  
    <radialGradient id="SVGID_3_" cx="969.2109" cy="631.9082" r="17.7573" gradientTransform="matrix(1.1397 0 0 1.1389 -270.3672 -12.3251)" gradientUnits="userSpaceOnUse">
    <stop  offset="0.15" style="stop-color:#FFFFFF"/>
    <stop  offset="0.2824" style="stop-color:#C2C2C2"/>
    <stop  offset="0.4253" style="stop-color:#888888"/>
    <stop  offset="0.5636" style="stop-color:#575757"/>
    <stop  offset="0.6936" style="stop-color:#313131"/>
    <stop  offset="0.8134" style="stop-color:#161616"/>
    <stop  offset="0.9192" style="stop-color:#060606"/>
    <stop  offset="1" style="stop-color:#000000"/>
  </radialGradient>
  <path style="fill:url(#SVGID_3_);" d="M814.004,707.355c0,11.168,9.06,20.223,20.24,20.223c11.177,0,20.236-9.055,20.236-20.223
    c0-11.171-9.06-20.226-20.236-20.226C823.063,687.13,814.004,696.185,814.004,707.355z"/>
  <polyline style="opacity:0.03;fill:none;stroke:#FFFFFF;stroke-width:2.5279;" points="834.244,707.355 942.368,669.322 
    834.244,707.355 726.116,745.386 834.244,707.355 872.304,815.4 834.244,707.355 796.181,599.308 834.244,707.355 933.917,733.979 
    834.244,707.355 734.571,680.729 834.244,707.355 807.597,806.952 834.244,707.355 860.888,607.756 834.244,707.355 
    900.911,697.416 834.244,707.355 767.573,717.292 834.244,707.355 844.188,773.974 834.244,707.355 824.298,640.734 
    834.244,707.355 890.552,662.33 834.244,707.355 777.933,752.377 834.244,707.355 879.299,763.622 834.244,707.355 
    789.188,651.086 834.244,707.355 954.638,705.669 834.244,707.355 713.847,709.039 834.244,707.355 835.929,827.665 
    834.244,707.355 832.557,587.043 834.244,707.355 921.866,657.31 834.244,707.355 746.618,757.398 834.244,707.355 
    884.322,794.914 834.244,707.355 784.161,619.794 834.244,707.355 857.586,660.188 834.244,707.355 810.897,754.521 
    834.244,707.355 881.443,730.683 834.244,707.355 787.041,684.026 834.244,707.355 837.551,706.587 834.244,707.355 
    830.936,708.12 834.244,707.355 835.01,710.657 834.244,707.355 833.475,704.051 834.244,707.355 844.979,697.617 834.244,707.355 
    823.507,717.091 834.244,707.355 843.983,718.084 834.244,707.355 824.499,696.624 834.244,707.355 850.896,684.063 
    834.244,707.355 817.587,730.645 834.244,707.355 857.552,723.999 834.244,707.355 810.934,690.709 834.244,707.355 
    859.591,693.637 834.244,707.355 808.892,721.071 834.244,707.355 847.972,732.685 834.244,707.355 820.516,682.023 
    834.244,707.355 937.696,714.988 834.244,707.355 730.79,699.72 834.244,707.355 826.602,810.732 834.244,707.355 841.885,603.976 
    834.244,707.355 856.655,700.459 834.244,707.355 811.829,714.248 834.244,707.355 841.142,729.749 834.244,707.355 
    827.344,684.959 834.244,707.355 879.728,706.05 834.244,707.355 788.756,708.658 834.244,707.355 835.547,752.809 
    834.244,707.355 832.938,661.899 834.244,707.355 879.225,671.455 834.244,707.355 789.262,743.253 834.244,707.355 
    870.169,752.302 834.244,707.355 798.315,662.406   "/>
</g>
</svg>
